<svg width="26" height="29" viewBox="0 0 26 29" fill="none" xmlns="http://www.w3.org/2000/svg">
<path fill-rule="evenodd" clip-rule="evenodd" d="M20.9509 13.4128V10.0068C20.9509 5.61769 17.3928 2.05957 13.0036 2.05957C8.61448 2.05957 5.05637 5.61769 5.05637 10.0068V13.4128C5.05637 17.1594 1.65039 18.0677 1.65039 20.2248C1.65039 22.1548 6.07816 23.6307 13.0036 23.6307C19.9291 23.6307 24.3569 22.1548 24.3569 20.2248C24.3569 18.0677 20.9509 17.1594 20.9509 13.4128Z" stroke="#11142D" stroke-width="2.27065" stroke-linecap="round" stroke-linejoin="round"/>
<path d="M13.004 25.9014C11.8562 25.9014 10.7777 25.8628 9.7627 25.7878C10.2068 27.2045 11.5194 28.1686 13.004 28.1686C14.4887 28.1686 15.8013 27.2045 16.2454 25.7878C15.2304 25.8628 14.1519 25.9014 13.004 25.9014Z" fill="#1B1D21"/>
</svg>
