<svg width="181" height="199" viewBox="0 0 181 199" fill="none" xmlns="http://www.w3.org/2000/svg">
<path fill-rule="evenodd" clip-rule="evenodd" d="M97.9775 9.14129C100.271 9.14129 102.13 7.26289 102.13 4.94577C102.13 2.62864 100.271 0.750244 97.9775 0.750244C95.6843 0.750244 93.8252 2.62864 93.8252 4.94577C93.8252 7.26289 95.6843 9.14129 97.9775 9.14129Z" fill="#0272FA"/>
<path fill-rule="evenodd" clip-rule="evenodd" d="M39.6904 47.4629C41.9837 47.4629 43.8427 45.5845 43.8427 43.2674C43.8427 40.9503 41.9837 39.0719 39.6904 39.0719C37.3971 39.0719 35.5381 40.9503 35.5381 43.2674C35.5381 45.5845 37.3971 47.4629 39.6904 47.4629Z" fill="#0272FA"/>
<path fill-rule="evenodd" clip-rule="evenodd" d="M4.25388 120.622C6.54715 120.622 8.40621 118.744 8.40621 116.427C8.40621 114.11 6.54715 112.231 4.25388 112.231C1.96062 112.231 0.101562 114.11 0.101562 116.427C0.101562 118.744 1.96062 120.622 4.25388 120.622Z" fill="#0272FA"/>
<path fill-rule="evenodd" clip-rule="evenodd" d="M63.292 173.755C65.5852 173.755 67.4443 171.877 67.4443 169.56C67.4443 167.243 65.5852 165.364 63.292 165.364C60.9987 165.364 59.1396 167.243 59.1396 169.56C59.1396 171.877 60.9987 173.755 63.292 173.755Z" fill="#0272FA"/>
<path fill-rule="evenodd" clip-rule="evenodd" d="M146.619 198.539C148.912 198.539 150.771 196.661 150.771 194.344C150.771 192.027 148.912 190.148 146.619 190.148C144.326 190.148 142.467 192.027 142.467 194.344C142.467 196.661 144.326 198.539 146.619 198.539Z" fill="#0272FA"/>
<path fill-rule="evenodd" clip-rule="evenodd" d="M176.482 112.865C178.776 112.865 180.635 110.987 180.635 108.67C180.635 106.353 178.776 104.474 176.482 104.474C174.189 104.474 172.33 106.353 172.33 108.67C172.33 110.987 174.189 112.865 176.482 112.865Z" fill="#0272FA"/>
<path fill-rule="evenodd" clip-rule="evenodd" d="M147.806 63.0837C150.099 63.0837 151.958 61.2053 151.958 58.8882C151.958 56.571 150.099 54.6926 147.806 54.6926C145.512 54.6926 143.653 56.571 143.653 58.8882C143.653 61.2053 145.512 63.0837 147.806 63.0837Z" fill="#0272FA"/>
</svg>
