<svg width="18" height="18" viewBox="0 0 18 18" fill="none" xmlns="http://www.w3.org/2000/svg">
<g clip-path="url(#clip0_4_3321)">
<path d="M16.8961 12.0023C16.4988 12.0023 16.1789 12.3222 16.1789 12.7195V16.1789H1.82109V12.7195C1.82109 12.3222 1.50117 12.0023 1.10391 12.0023C0.706641 12.0023 0.386719 12.3222 0.386719 12.7195V16.8961C0.386719 17.2933 0.706641 17.6133 1.10391 17.6133H16.8961C17.2934 17.6133 17.6133 17.2933 17.6133 16.8961V12.7195C17.6133 12.3222 17.2934 12.0023 16.8961 12.0023Z" fill="black"/>
<path d="M8.47278 12.8531C8.87708 13.261 9.37278 13.036 9.52395 12.8531L13.6478 8.41643C13.9185 8.12463 13.9009 7.67112 13.6091 7.40041C13.3173 7.12971 12.8638 7.14729 12.5966 7.43909L9.71731 10.5364V1.21292C9.71731 0.815649 9.39739 0.495728 9.00012 0.495728C8.60286 0.495728 8.28294 0.815649 8.28294 1.21292V10.5399L5.40364 7.4426C5.13294 7.15081 4.67942 7.13674 4.38762 7.40393C4.09583 7.67463 4.08177 8.12815 4.34895 8.41995L8.47278 12.8531Z" fill="black"/>
</g>
<defs>
<clipPath id="clip0_4_3321">
<rect width="18" height="18" fill="white"/>
</clipPath>
</defs>
</svg>
