<svg width="29" height="33" viewBox="0 0 29 33" fill="none" xmlns="http://www.w3.org/2000/svg">
<g clip-path="url(#clip0_116_1158)">
<path d="M22.1595 15.7963C22.028 17.8786 20.9383 19.3405 19.6801 19.9601C18.346 20.6168 16.9976 20.2546 16.3243 19.0584C15.2221 17.0997 15.9795 15.7366 16.7119 14.4182C17.5424 12.9234 18.4838 11.229 17.5809 7.934C16.8681 5.33273 15.4722 3.14884 13.4318 1.44297C12.7958 0.911246 12.1925 0.511348 11.703 0.224976C12.3867 2.0385 13.2759 5.41322 12.3471 9.14168C11.758 11.5067 10.2012 13.2988 8.69555 15.032C6.71252 17.3149 4.66187 19.6754 4.66187 23.447C4.66187 26.3729 5.59741 28.7038 7.44243 30.3748C8.83961 31.6402 10.2653 32.1329 10.2795 32.1368H13.6815L13.6103 32.1353C13.5972 32.1242 12.3011 31.0095 12.2788 29.731C12.2684 29.1335 12.5562 28.5603 13.1341 28.0274C14.0023 27.2269 14.4794 26.3651 14.5929 25.3926C14.6623 24.7979 14.5922 24.1691 14.3789 23.4905C15.8188 24.1485 17.3082 25.5852 17.813 27.3687C18.2663 28.9703 17.8469 30.6175 16.6015 32.1368H20.3246C22.7634 30.0549 24.1364 27.5601 24.4055 24.7215C24.7486 21.1023 23.2301 17.6936 22.1595 15.7963Z" fill="#0C0B0B"/>
<path d="M13.6814 32.1368L16.5523 32.1969C16.569 32.1769 16.585 32.1568 16.6013 32.1368H13.6814Z" fill="#0C0B0B"/>
</g>
<defs>
<clipPath id="clip0_116_1158">
<rect width="27.8748" height="31.9718" fill="white" transform="translate(0.62085 0.224976)"/>
</clipPath>
</defs>
</svg>
