<svg width="29" height="33" viewBox="0 0 29 33" fill="none" xmlns="http://www.w3.org/2000/svg">
<g clip-path="url(#clip0_116_1139)">
<path d="M22.1595 16.0956C22.028 18.1779 20.9383 19.6398 19.6801 20.2594C18.346 20.9161 16.9976 20.5539 16.3243 19.3577C15.2221 17.3991 15.9795 16.0359 16.7119 14.7175C17.5424 13.2227 18.4838 11.5283 17.5809 8.23331C16.8681 5.63204 15.4722 3.44815 13.4318 1.74228C12.7958 1.21056 12.1925 0.810665 11.703 0.524292C12.3867 2.33782 13.2759 5.71253 12.3471 9.441C11.758 11.806 10.2012 13.5981 8.69555 15.3313C6.71252 17.6142 4.66187 19.9747 4.66187 23.7463C4.66187 26.6722 5.59741 29.0031 7.44243 30.6741C8.83961 31.9395 10.2653 32.4322 10.2795 32.4361H13.6815L13.6103 32.4346C13.5972 32.4235 12.3011 31.3088 12.2788 30.0304C12.2684 29.4328 12.5562 28.8596 13.1341 28.3267C14.0023 27.5263 14.4794 26.6644 14.5929 25.6919C14.6623 25.0972 14.5922 24.4684 14.3789 23.7898C15.8188 24.4478 17.3082 25.8845 17.813 27.668C18.2663 29.2697 17.8469 30.9168 16.6015 32.4361H20.3246C22.7634 30.3543 24.1364 27.8594 24.4055 25.0208C24.7486 21.4017 23.2301 17.9929 22.1595 16.0956Z" fill="#0C0B0B"/>
<path d="M13.6814 32.4362L16.5523 32.4962C16.569 32.4762 16.585 32.4561 16.6013 32.4362H13.6814Z" fill="#0C0B0B"/>
</g>
<defs>
<clipPath id="clip0_116_1139">
<rect width="27.8748" height="31.9718" fill="white" transform="translate(0.62085 0.524292)"/>
</clipPath>
</defs>
</svg>
