<svg width="28" height="33" viewBox="0 0 28 33" fill="none" xmlns="http://www.w3.org/2000/svg">
<g clip-path="url(#clip0_116_1184)">
<path d="M21.6454 16.3318C21.5138 18.4141 20.4241 19.876 19.1659 20.4956C17.8319 21.1523 16.4834 20.7901 15.8102 19.5939C14.7079 17.6353 15.4653 16.2721 16.1977 14.9537C17.0282 13.4589 17.9696 11.7645 17.0667 8.46952C16.3539 5.86825 14.958 3.68436 12.9177 1.97849C12.2816 1.44677 11.6784 1.04687 11.1888 0.760498C11.8726 2.57403 12.7617 5.94874 11.8329 9.67721C11.2439 12.0422 9.68701 13.8344 8.18139 15.5675C6.19836 17.8504 4.14771 20.2109 4.14771 23.9825C4.14771 26.9084 5.08325 29.2393 6.92827 30.9103C8.32545 32.1757 9.75115 32.6685 9.76535 32.6723H13.1673L13.0961 32.6708C13.083 32.6597 11.7869 31.545 11.7646 30.2666C11.7542 29.669 12.042 29.0958 12.62 28.5629C13.4881 27.7625 13.9653 26.9006 14.0788 25.9281C14.1482 25.3334 14.078 24.7047 13.8647 24.026C15.3046 24.684 16.7941 26.1207 17.2988 27.9042C17.7521 29.5059 17.3328 31.153 16.0873 32.6723H19.8105C22.2493 30.5905 23.6222 28.0956 23.8913 25.257C24.2344 21.6379 22.7159 18.2291 21.6454 16.3318Z" fill="#0C0B0B"/>
<path d="M13.1672 32.6724L16.0382 32.7324C16.0548 32.7125 16.0708 32.6923 16.0872 32.6724H13.1672Z" fill="#0C0B0B"/>
</g>
<defs>
<clipPath id="clip0_116_1184">
<rect width="27.8748" height="31.9718" fill="white" transform="translate(0.106689 0.760498)"/>
</clipPath>
</defs>
</svg>
