<svg width="29" height="33" viewBox="0 0 29 33" fill="none" xmlns="http://www.w3.org/2000/svg">
<g clip-path="url(#clip0_116_1109)">
<path d="M21.6742 16.4582C21.5426 18.5406 20.4529 20.0025 19.1947 20.6221C17.8607 21.2788 16.5122 20.9166 15.839 19.7204C14.7367 17.7617 15.4941 16.3985 16.2266 15.0802C17.057 13.5853 17.9984 11.891 17.0955 8.59598C16.3828 5.99471 14.9868 3.81082 12.9465 2.10495C12.3104 1.57323 11.7072 1.17334 11.2176 0.886963C11.9014 2.70049 12.7905 6.0752 11.8617 9.80367C11.2727 12.1686 9.71582 13.9608 8.2102 15.694C6.22717 17.9768 4.17651 20.3374 4.17651 24.109C4.17651 27.0349 5.11206 29.3657 6.95708 31.0368C8.35425 32.3022 9.77995 32.7949 9.79416 32.7988H13.1961L13.1249 32.7973C13.1118 32.7862 11.8157 31.6715 11.7934 30.393C11.783 29.7955 12.0708 29.2223 12.6488 28.6894C13.5169 27.8889 13.9941 27.0271 14.1076 26.0546C14.177 25.4599 14.1068 24.8311 13.8935 24.1525C15.3334 24.8104 16.8229 26.2472 17.3276 28.0307C17.7809 29.6323 17.3616 31.2795 16.1161 32.7988H19.8393C22.2781 30.7169 23.651 28.2221 23.9201 25.3835C24.2632 21.7643 22.7447 18.3556 21.6742 16.4582Z" fill="#0C0B0B"/>
<path d="M13.196 32.7988L16.067 32.8588C16.0837 32.8389 16.0996 32.8188 16.116 32.7988H13.196Z" fill="#0C0B0B"/>
</g>
<defs>
<clipPath id="clip0_116_1109">
<rect width="27.8748" height="31.9718" fill="white" transform="translate(0.135498 0.886963)"/>
</clipPath>
</defs>
</svg>
