<svg width="29" height="33" viewBox="0 0 29 33" fill="none" xmlns="http://www.w3.org/2000/svg">
<g clip-path="url(#clip0_116_1087)">
<path d="M21.6742 15.9227C21.5426 18.005 20.4529 19.4669 19.1947 20.0865C17.8607 20.7432 16.5122 20.381 15.839 19.1848C14.7367 17.2261 15.4941 15.863 16.2266 14.5446C17.057 13.0498 17.9984 11.3554 17.0955 8.0604C16.3828 5.45913 14.9868 3.27524 12.9465 1.56937C12.3104 1.03765 11.7072 0.637752 11.2176 0.351379C11.9014 2.16491 12.7905 5.53962 11.8617 9.26809C11.2727 11.6331 9.71582 13.4252 8.2102 15.1584C6.22717 17.4413 4.17651 19.8018 4.17651 23.5734C4.17651 26.4993 5.11206 28.8302 6.95708 30.5012C8.35425 31.7666 9.77995 32.2593 9.79416 32.2632H13.1961L13.1249 32.2617C13.1118 32.2506 11.8157 31.1359 11.7934 29.8574C11.783 29.2599 12.0708 28.6867 12.6488 28.1538C13.5169 27.3533 13.9941 26.4915 14.1076 25.519C14.177 24.9243 14.1068 24.2955 13.8935 23.6169C15.3334 24.2749 16.8229 25.7116 17.3276 27.4951C17.7809 29.0967 17.3616 30.7439 16.1161 32.2632H19.8393C22.2781 30.1814 23.651 27.6865 23.9201 24.8479C24.2632 21.2287 22.7447 17.82 21.6742 15.9227Z" fill="#0C0B0B"/>
<path d="M13.196 32.2632L16.067 32.3232C16.0837 32.3033 16.0996 32.2832 16.116 32.2632H13.196Z" fill="#0C0B0B"/>
</g>
<defs>
<clipPath id="clip0_116_1087">
<rect width="27.8748" height="31.9718" fill="white" transform="translate(0.135498 0.351379)"/>
</clipPath>
</defs>
</svg>
