<svg width="40" height="65" viewBox="0 0 40 65" fill="none" xmlns="http://www.w3.org/2000/svg">
<g clip-path="url(#clip0_116_1191)">
<path d="M10.4914 64.7184C15.8903 64.7184 20.2728 59.943 20.2728 54.0602V43.4021H10.4914C5.09247 43.4021 0.709961 48.1774 0.709961 54.0602C0.709961 59.943 5.09247 64.7184 10.4914 64.7184Z" fill="#0ACF83"/>
<path d="M0.709961 32.7464C0.709961 26.8637 5.09247 22.0884 10.4914 22.0884H20.2728V43.4019H10.4914C5.09247 43.4045 0.709961 38.6292 0.709961 32.7464Z" fill="#A259FF"/>
<path d="M0.709961 11.4328C0.709961 5.54997 5.09247 0.774658 10.4914 0.774658H20.2728V22.0884H10.4914C5.09247 22.0884 0.709961 17.3156 0.709961 11.4328Z" fill="#F24E1E"/>
<path d="M20.2705 0.774658H30.0519C35.4509 0.774658 39.8334 5.54997 39.8334 11.4328C39.8334 17.3156 35.4509 22.0884 30.0519 22.0884H20.2705V0.774658Z" fill="#FF7262"/>
<path d="M39.8334 32.7465C39.8334 38.6293 35.4509 43.4046 30.0519 43.4046C24.653 43.4046 20.2705 38.6293 20.2705 32.7465C20.2705 26.8637 24.653 22.0884 30.0519 22.0884C35.4509 22.0884 39.8334 26.8637 39.8334 32.7465Z" fill="#1ABCFE"/>
</g>
<defs>
<clipPath id="clip0_116_1191">
<rect width="39.1234" height="63.9437" fill="white" transform="translate(0.709961 0.774658)"/>
</clipPath>
</defs>
</svg>
