<svg width="59" height="52" viewBox="0 0 59 52" fill="none" xmlns="http://www.w3.org/2000/svg">
<path d="M29.3428 10.65L46.1412 0.780273V9.36441L29.3428 10.65Z" fill="#B8E8F2"/>
<path d="M29.3428 10.6501L49.7228 3.09448V9.2157L29.3428 10.6501Z" fill="#88CFE5"/>
<path d="M29.3432 10.6501L7.51074 0V8.34957L29.3432 10.6501Z" fill="#B8E8F2"/>
<path d="M29.3427 10.65L2.90918 1.92603V7.81268L29.3427 10.65Z" fill="#88CFE5"/>
<path d="M29.3791 51.8476L0.0315758 46.1685L0 4.96191L29.3475 10.6456L29.3791 51.8476Z" fill="#21B573"/>
<path d="M58.7941 34.0297C58.7941 41.3192 53.0743 47.1968 45.9968 48.5772L29.3473 51.8159L29.3428 10.65L44.8601 7.63224C51.7662 6.28801 57.3777 9.84256 57.3777 16.9607C57.3777 20.3709 56.074 23.33 53.9269 25.6891C56.8679 27.0514 58.7896 29.8527 58.7941 34.0297ZM38.4051 17.7095V24.999L44.8601 23.7405C46.899 23.3435 48.3154 21.5392 48.3154 19.4236C48.3154 17.308 46.9576 16.045 44.8601 16.4509L38.4051 17.7095ZM49.7318 35.0852C49.7318 32.7937 48.2613 31.4315 45.9923 31.8735L38.4051 33.3486V41.229L45.9923 39.754C48.2613 39.3164 49.7318 37.3813 49.7318 35.0852Z" fill="#21B573"/>
</svg>
