<svg width="88" height="16" viewBox="0 0 88 16" fill="none" xmlns="http://www.w3.org/2000/svg">
<g clip-path="url(#clip0_4_3330)">
<path d="M80.7724 0.829716L82.577 4.48629C82.7025 4.7406 82.9451 4.91682 83.2258 4.95754L87.2612 5.54394C87.9681 5.64674 88.2501 6.51516 87.7388 7.01345L84.8188 9.85967C84.6159 10.0576 84.5231 10.3429 84.5712 10.6223L85.2604 14.6413C85.3812 15.3452 84.6423 15.8819 84.0101 15.5498L80.401 13.6524C80.15 13.5206 79.8499 13.5206 79.599 13.6524L75.9898 15.5498C75.3577 15.8822 74.6187 15.3452 74.7396 14.6413L75.4287 10.6223C75.4768 10.3429 75.384 10.0576 75.1811 9.85967L72.2611 7.01345C71.7498 6.51482 72.0318 5.6464 72.7387 5.54394L76.7741 4.95754C77.0548 4.91682 77.2974 4.7406 77.4229 4.48629L79.2275 0.829716C79.5432 0.189248 80.4564 0.189248 80.7724 0.829716Z" fill="#F9D4AB"/>
</g>
<g clip-path="url(#clip1_4_3330)">
<path d="M62.7724 0.829716L64.577 4.48629C64.7025 4.7406 64.9451 4.91682 65.2258 4.95754L69.2612 5.54394C69.9681 5.64674 70.2501 6.51516 69.7388 7.01345L66.8188 9.85967C66.6159 10.0576 66.5231 10.3429 66.5712 10.6223L67.2604 14.6413C67.3812 15.3452 66.6423 15.8819 66.0101 15.5498L62.401 13.6524C62.15 13.5206 61.8499 13.5206 61.599 13.6524L57.9898 15.5498C57.3577 15.8822 56.6187 15.3452 56.7396 14.6413L57.4287 10.6223C57.4768 10.3429 57.384 10.0576 57.1811 9.85967L54.2611 7.01345C53.7498 6.51482 54.0318 5.6464 54.7387 5.54394L58.7741 4.95754C59.0548 4.91682 59.2974 4.7406 59.4229 4.48629L61.2275 0.829716C61.5432 0.189248 62.4564 0.189248 62.7724 0.829716Z" fill="#FFA135"/>
</g>
<g clip-path="url(#clip2_4_3330)">
<path d="M44.7724 0.829716L46.577 4.48629C46.7025 4.7406 46.9451 4.91682 47.2258 4.95754L51.2612 5.54394C51.9681 5.64674 52.2501 6.51516 51.7388 7.01345L48.8188 9.85967C48.6159 10.0576 48.5231 10.3429 48.5712 10.6223L49.2604 14.6413C49.3812 15.3452 48.6423 15.8819 48.0101 15.5498L44.401 13.6524C44.15 13.5206 43.8499 13.5206 43.599 13.6524L39.9898 15.5498C39.3577 15.8822 38.6187 15.3452 38.7396 14.6413L39.4287 10.6223C39.4768 10.3429 39.384 10.0576 39.1811 9.85967L36.2611 7.01345C35.7498 6.51482 36.0318 5.6464 36.7387 5.54394L40.7741 4.95754C41.0548 4.91682 41.2974 4.7406 41.4229 4.48629L43.2275 0.829716C43.5432 0.189248 44.4564 0.189248 44.7724 0.829716Z" fill="#FFA135"/>
</g>
<g clip-path="url(#clip3_4_3330)">
<path d="M26.7724 0.829716L28.577 4.48629C28.7025 4.7406 28.9451 4.91682 29.2258 4.95754L33.2612 5.54394C33.9681 5.64674 34.2501 6.51516 33.7388 7.01345L30.8188 9.85967C30.6159 10.0576 30.5231 10.3429 30.5712 10.6223L31.2604 14.6413C31.3812 15.3452 30.6423 15.8819 30.0101 15.5498L26.401 13.6524C26.15 13.5206 25.8499 13.5206 25.599 13.6524L21.9898 15.5498C21.3577 15.8822 20.6187 15.3452 20.7396 14.6413L21.4287 10.6223C21.4768 10.3429 21.384 10.0576 21.1811 9.85967L18.2611 7.01345C17.7498 6.51482 18.0318 5.6464 18.7387 5.54394L22.7741 4.95754C23.0548 4.91682 23.2974 4.7406 23.4229 4.48629L25.2275 0.829716C25.5432 0.189248 26.4564 0.189248 26.7724 0.829716Z" fill="#FFA135"/>
</g>
<g clip-path="url(#clip4_4_3330)">
<path d="M8.77243 0.829716L10.577 4.48629C10.7025 4.7406 10.9451 4.91682 11.2258 4.95754L15.2612 5.54394C15.9681 5.64674 16.2501 6.51516 15.7388 7.01345L12.8188 9.85967C12.6159 10.0576 12.5231 10.3429 12.5712 10.6223L13.2604 14.6413C13.3812 15.3452 12.6423 15.8819 12.0101 15.5498L8.40097 13.6524C8.14999 13.5206 7.84994 13.5206 7.59896 13.6524L3.98978 15.5498C3.35766 15.8822 2.61874 15.3452 2.73955 14.6413L3.42875 10.6223C3.47681 10.3429 3.38403 10.0576 3.18111 9.85967L0.261123 7.01345C-0.250182 6.51482 0.0318366 5.6464 0.73872 5.54394L4.7741 4.95754C5.05478 4.91682 5.29742 4.7406 5.42291 4.48629L7.2275 0.829716C7.54323 0.189248 8.45637 0.189248 8.77243 0.829716Z" fill="#FFA135"/>
</g>
<defs>
<clipPath id="clip0_4_3330">
<rect width="16" height="16" fill="white" transform="translate(72)"/>
</clipPath>
<clipPath id="clip1_4_3330">
<rect width="16" height="16" fill="white" transform="translate(54)"/>
</clipPath>
<clipPath id="clip2_4_3330">
<rect width="16" height="16" fill="white" transform="translate(36)"/>
</clipPath>
<clipPath id="clip3_4_3330">
<rect width="16" height="16" fill="white" transform="translate(18)"/>
</clipPath>
<clipPath id="clip4_4_3330">
<rect width="16" height="16" fill="white"/>
</clipPath>
</defs>
</svg>
