<svg width="91" height="121" viewBox="0 0 91 121" fill="none" xmlns="http://www.w3.org/2000/svg">
<path d="M40.0008 12.6308L8.77077 27.3008C7.10077 28.0908 5.11082 27.3708 4.32082 25.7008L2.32082 21.4408C1.53082 19.7708 2.2508 17.7808 3.9208 16.9908L35.1508 2.32082C36.8208 1.53082 38.8108 2.25082 39.6008 3.92082L41.6008 8.18082C42.3908 9.86082 41.6708 11.8508 40.0008 12.6308Z" stroke="#4D2C5E" stroke-opacity="0.1" stroke-width="4" stroke-miterlimit="10" stroke-linecap="round"/>
<path d="M52.1307 45.9508L36.8508 14.1308L12.1307 26.0008L27.4108 57.8208L37.0508 111.061C40.2208 117.671 48.1507 120.451 54.7507 117.281L81.4408 104.461C88.0508 101.291 90.8308 93.3608 87.6608 86.7608L52.1307 45.9508Z" stroke="#4D2C5E" stroke-opacity="0.1" stroke-width="4" stroke-miterlimit="10" stroke-linecap="round"/>
<path d="M31.7507 81.8308C31.7507 81.8308 36.8508 73.5708 50.4108 74.0408C63.9708 74.5108 66.2507 62.1608 66.2507 62.1608" stroke="#4D2C5E" stroke-opacity="0.1" stroke-width="4" stroke-miterlimit="10" stroke-linecap="round"/>
</svg>
