<svg width="59" height="52" viewBox="0 0 59 52" fill="none" xmlns="http://www.w3.org/2000/svg">
<path d="M29.343 10.6501L46.1414 0.780396V9.36453L29.343 10.6501Z" fill="#B8E8F2"/>
<path d="M29.343 10.6501L49.723 3.09442V9.21563L29.343 10.6501Z" fill="#88CFE5"/>
<path d="M29.343 10.6501L7.5105 0V8.34957L29.343 10.6501Z" fill="#B8E8F2"/>
<path d="M29.3431 10.6501L2.90955 1.92615V7.8128L29.3431 10.6501Z" fill="#88CFE5"/>
<path d="M29.3791 51.8476L0.0315758 46.1685L0 4.96191L29.3475 10.6456L29.3791 51.8476Z" fill="#21B573"/>
<path d="M58.7943 34.0298C58.7943 41.3193 53.0746 47.197 45.997 48.5773L29.3475 51.8161L29.343 10.6501L44.8603 7.63237C51.7664 6.28813 57.3779 9.84268 57.3779 16.9608C57.3779 20.371 56.0743 23.3301 53.9271 25.6893C56.8682 27.0515 58.7898 29.8528 58.7943 34.0298ZM38.4053 17.7096V24.9991L44.8603 23.7406C46.8992 23.3436 48.3156 21.5393 48.3156 19.4237C48.3156 17.3081 46.9579 16.0451 44.8603 16.4511L38.4053 17.7096ZM49.732 35.0854C49.732 32.7938 48.2615 31.4316 45.9925 31.8736L38.4053 33.3487V41.2291L45.9925 39.7541C48.2615 39.3165 49.732 37.3814 49.732 35.0854Z" fill="#21B573"/>
</svg>
