<svg width="30" height="33" viewBox="0 0 30 33" fill="none" xmlns="http://www.w3.org/2000/svg">
<path d="M15.2386 0.758667C7.1487 0.758667 0.567627 7.9296 0.567627 16.7446C0.567627 25.5596 7.1487 32.7305 15.2386 32.7305C23.3285 32.7305 29.9096 25.5596 29.9096 16.7446C29.9096 7.9296 23.3285 0.758667 15.2386 0.758667ZM22.2159 25.0132C21.9775 25.273 21.6645 25.4037 21.3516 25.4037C21.0386 25.4037 20.7254 25.273 20.4872 25.0132L14.3743 18.3525C14.1444 18.1035 14.0161 17.7649 14.0161 17.4107V8.75163C14.0161 8.01497 14.5637 7.41955 15.2386 7.41955C15.9135 7.41955 16.4611 8.01497 16.4611 8.75163V16.8592L22.2159 23.1296C22.6938 23.6506 22.6938 24.4924 22.2159 25.0132V25.0132Z" fill="#0C0B0B"/>
</svg>
