<svg width="107" height="94" viewBox="0 0 107 94" fill="none" xmlns="http://www.w3.org/2000/svg">
<path d="M77.9929 87.5784L8.78841 66.9056C3.75514 65.4039 0.898255 60.1066 2.40002 55.0733L16.221 8.7884C17.7227 3.75513 23.02 0.898256 28.0532 2.40002L97.2578 23.0728C102.291 24.5746 105.148 29.8718 103.646 34.9051L89.8252 81.19C88.3176 86.2174 83.0203 89.0802 77.9929 87.5784Z" stroke="#4D2C5E" stroke-opacity="0.1" stroke-width="4" stroke-miterlimit="10" stroke-linecap="round"/>
<path d="M4.03076 49.6001L91.4559 75.7168" stroke="#4D2C5E" stroke-opacity="0.1" stroke-width="4" stroke-miterlimit="10" stroke-linecap="round"/>
<path d="M47.9578 70.2435C47.5823 71.4989 46.2566 72.2146 45.0012 71.8391C43.7458 71.4637 43.0301 70.1379 43.4056 68.8825C43.781 67.6272 45.1068 66.9115 46.3622 67.2869C47.6175 67.6624 48.3332 68.9881 47.9578 70.2435Z" fill="#4D2C5E"/>
<path d="M53.1983 80.1788L33.5977 74.3243L30.9567 83.1663L50.5574 89.0207L53.1983 80.1788Z" stroke="#4D2C5E" stroke-opacity="0.1" stroke-width="4" stroke-miterlimit="10" stroke-linecap="round"/>
<path d="M23.689 81.5009L57.5257 91.6085" stroke="#4D2C5E" stroke-opacity="0.1" stroke-width="4" stroke-miterlimit="10" stroke-linecap="round"/>
</svg>
