<svg width="59" height="52" viewBox="0 0 59 52" fill="none" xmlns="http://www.w3.org/2000/svg">
<path d="M29.3438 10.65L46.1421 0.780273V9.36441L29.3438 10.65Z" fill="#B8E8F2"/>
<path d="M29.3438 10.6501L49.7237 3.09448V9.2157L29.3438 10.6501Z" fill="#88CFE5"/>
<path d="M29.3422 10.6501L7.50977 0V8.34957L29.3422 10.6501Z" fill="#B8E8F2"/>
<path d="M29.3437 10.65L2.91016 1.92603V7.81268L29.3437 10.65Z" fill="#88CFE5"/>
<path d="M29.3791 51.8476L0.0315758 46.1685L0 4.96191L29.3475 10.6456L29.3791 51.8476Z" fill="#21B573"/>
<path d="M58.795 34.0297C58.795 41.3192 53.0753 47.1968 45.9978 48.5772L29.3483 51.8159L29.3438 10.65L44.8611 7.63224C51.7672 6.28801 57.3786 9.84256 57.3786 16.9607C57.3786 20.3709 56.075 23.33 53.9278 25.6891C56.8689 27.0514 58.7905 29.8527 58.795 34.0297ZM38.406 17.7095V24.999L44.8611 23.7405C46.9 23.3435 48.3164 21.5392 48.3164 19.4236C48.3164 17.308 46.9586 16.045 44.8611 16.4509L38.406 17.7095ZM49.7328 35.0852C49.7328 32.7937 48.2622 31.4315 45.9933 31.8735L38.406 33.3486V41.229L45.9933 39.754C48.2622 39.3164 49.7328 37.3813 49.7328 35.0852Z" fill="#21B573"/>
</svg>
