<svg width="59" height="52" viewBox="0 0 59 52" fill="none" xmlns="http://www.w3.org/2000/svg">
<path d="M29.3438 10.6501L46.1421 0.780396V9.36453L29.3438 10.6501Z" fill="#B8E8F2"/>
<path d="M29.3438 10.6501L49.7237 3.09442V9.21563L29.3438 10.6501Z" fill="#88CFE5"/>
<path d="M29.3422 10.6501L7.50977 0V8.34957L29.3422 10.6501Z" fill="#B8E8F2"/>
<path d="M29.3437 10.6501L2.91016 1.92615V7.8128L29.3437 10.6501Z" fill="#88CFE5"/>
<path d="M29.3791 51.8476L0.0315758 46.1685L0 4.96191L29.3475 10.6456L29.3791 51.8476Z" fill="#21B573"/>
<path d="M58.795 34.0298C58.795 41.3193 53.0753 47.197 45.9978 48.5773L29.3483 51.8161L29.3438 10.6501L44.8611 7.63237C51.7672 6.28813 57.3786 9.84268 57.3786 16.9608C57.3786 20.371 56.075 23.3301 53.9278 25.6893C56.8689 27.0515 58.7905 29.8528 58.795 34.0298ZM38.406 17.7096V24.9991L44.8611 23.7406C46.9 23.3436 48.3164 21.5393 48.3164 19.4237C48.3164 17.3081 46.9586 16.0451 44.8611 16.4511L38.406 17.7096ZM49.7328 35.0854C49.7328 32.7938 48.2622 31.4316 45.9933 31.8736L38.406 33.3487V41.2291L45.9933 39.7541C48.2622 39.3165 49.7328 37.3814 49.7328 35.0854Z" fill="#21B573"/>
</svg>
