<svg width="1743" height="1745" viewBox="0 0 1743 1745" fill="none" xmlns="http://www.w3.org/2000/svg">
<path d="M1133.93 829.632C1133.93 832.35 1131.67 834.558 1128.89 834.558C1126.11 834.558 1123.86 832.35 1123.86 829.632C1123.86 826.914 1126.11 824.706 1128.89 824.706C1131.67 824.706 1133.93 826.908 1133.93 829.632Z" stroke="#4D2C5E" stroke-opacity="0.1" stroke-width="2" stroke-miterlimit="10" stroke-linecap="round" stroke-linejoin="round"/>
<path d="M1182.77 872.355C1185.55 872.355 1187.8 870.15 1187.8 867.429C1187.8 864.708 1185.55 862.503 1182.77 862.503C1179.99 862.503 1177.73 864.708 1177.73 867.429C1177.73 870.15 1179.99 872.355 1182.77 872.355Z" stroke="#4D2C5E" stroke-opacity="0.1" stroke-width="2" stroke-miterlimit="10" stroke-linecap="round" stroke-linejoin="round"/>
<path d="M1163.81 857.302C1169.74 857.302 1174.55 852.598 1174.55 846.796C1174.55 840.994 1169.74 836.29 1163.81 836.29C1157.89 836.29 1153.08 840.994 1153.08 846.796C1153.08 852.598 1157.89 857.302 1163.81 857.302Z" stroke="#4D2C5E" stroke-opacity="0.1" stroke-width="2" stroke-miterlimit="10" stroke-linecap="round" stroke-linejoin="round"/>
<path d="M1182.52 846.796L1178.94 852.92L1177.04 859.739L1170.08 861.591L1163.81 865.101L1157.55 861.591L1150.58 859.739L1148.69 852.92L1145.1 846.796L1148.69 840.665L1150.58 833.847L1157.55 831.995L1163.81 828.485L1170.08 831.995L1177.04 833.847L1178.94 840.665L1182.52 846.796Z" stroke="#4D2C5E" stroke-opacity="0.1" stroke-width="2" stroke-miterlimit="10" stroke-linecap="round" stroke-linejoin="round"/>
<path d="M1177.73 867.429C1177.73 864.711 1179.99 862.503 1182.77 862.503C1184.27 862.503 1185.62 863.151 1186.54 864.172C1190.37 859.378 1192.66 853.35 1192.66 846.79C1192.66 831.197 1179.74 818.558 1163.81 818.558C1147.87 818.558 1134.96 831.197 1134.96 846.79C1134.96 862.382 1147.87 875.022 1163.81 875.022C1169.41 875.022 1174.63 873.456 1179.06 870.755C1178.24 869.878 1177.73 868.714 1177.73 867.429Z" stroke="#4D2C5E" stroke-opacity="0.1" stroke-width="2" stroke-miterlimit="10" stroke-linecap="round" stroke-linejoin="round"/>
<path d="M1163.81 808.592C1150.35 808.592 1138.48 815.261 1131.46 825.406C1132.93 826.266 1133.93 827.837 1133.93 829.638C1133.93 832.356 1131.67 834.564 1128.89 834.564C1128.21 834.564 1127.55 834.426 1126.96 834.185C1125.55 838.136 1124.78 842.374 1124.78 846.796C1124.78 867.893 1142.26 885 1163.82 885C1185.38 885 1202.86 867.893 1202.86 846.796C1202.86 825.698 1185.38 808.592 1163.81 808.592Z" stroke="#4D2C5E" stroke-opacity="0.1" stroke-width="2" stroke-miterlimit="10" stroke-linecap="round" stroke-linejoin="round"/>
<path d="M1280.64 195.557L1256.41 187.507C1253.85 186.659 1252.49 183.937 1253.36 181.432C1254.22 178.927 1257 177.59 1259.56 178.439L1283.78 186.489C1286.34 187.337 1287.71 190.059 1286.84 192.557C1285.97 195.069 1283.2 196.412 1280.64 195.557Z" stroke="#4D2C5E" stroke-opacity="0.1" stroke-width="3" stroke-miterlimit="10"/>
<path d="M1277.45 204.734L1253.23 196.684C1250.67 195.835 1249.3 193.114 1250.17 190.616C1251.04 188.111 1253.82 186.774 1256.38 187.622L1280.6 195.666C1283.16 196.514 1284.53 199.236 1283.66 201.741C1282.79 204.245 1280.01 205.583 1277.45 204.734Z" stroke="#4D2C5E" stroke-opacity="0.1" stroke-width="3" stroke-miterlimit="10"/>
<path d="M1255.92 153.684C1255.95 153.765 1255.97 153.84 1256 153.921C1256.54 155.611 1259.73 166.322 1258.4 178.208L1284.38 186.597C1290.54 176.273 1299.62 169.533 1301.09 168.488C1301.16 168.44 1301.23 168.393 1301.29 168.345C1302 167.85 1302.68 167.32 1303.35 166.757C1307.26 163.451 1310.34 159.1 1312.08 153.955C1317.19 138.805 1308.78 122.467 1293.3 117.465C1277.81 112.462 1261.12 120.689 1256 135.839C1254.26 140.991 1254.09 146.278 1255.23 151.213C1255.42 152.041 1255.65 152.869 1255.92 153.684Z" stroke="#4D2C5E" stroke-opacity="0.1" stroke-width="3" stroke-miterlimit="10"/>
<path d="M1254.56 197.241C1254.26 202.264 1257.43 207.049 1262.55 208.705C1267.6 210.334 1272.97 208.4 1275.83 204.307L1254.56 197.241Z" stroke="#4D2C5E" stroke-opacity="0.1" stroke-width="3" stroke-miterlimit="10"/>
<path d="M1266.54 180.699L1274.26 157.804C1275.02 155.55 1273.76 153.12 1271.46 152.374C1269.16 151.627 1266.67 152.856 1265.91 155.109C1265.15 157.363 1266.4 159.793 1268.71 160.539L1277.97 163.533" stroke="#4D2C5E" stroke-opacity="0.1" stroke-width="3" stroke-miterlimit="10"/>
<path d="M1276.72 183.991L1284.44 161.096C1285.2 158.842 1287.69 157.621 1289.99 158.361C1292.29 159.107 1293.54 161.537 1292.78 163.791C1292.02 166.044 1289.54 167.266 1287.24 166.526L1277.97 163.533" stroke="#4D2C5E" stroke-opacity="0.1" stroke-width="3" stroke-miterlimit="10"/>
<path d="M1317.56 161.843L1325.39 164.374" stroke="#4D2C5E" stroke-opacity="0.1" stroke-width="3" stroke-miterlimit="10" stroke-linecap="round"/>
<path d="M1321.15 152.197L1329.3 150.996" stroke="#4D2C5E" stroke-opacity="0.1" stroke-width="3" stroke-miterlimit="10" stroke-linecap="round"/>
<path d="M1312.09 170.117L1317.9 175.832" stroke="#4D2C5E" stroke-opacity="0.1" stroke-width="3" stroke-miterlimit="10" stroke-linecap="round"/>
<path d="M1244.88 138.371L1237.06 135.846" stroke="#4D2C5E" stroke-opacity="0.1" stroke-width="3" stroke-miterlimit="10" stroke-linecap="round"/>
<path d="M1247.87 128.528L1242.06 122.813" stroke="#4D2C5E" stroke-opacity="0.1" stroke-width="3" stroke-miterlimit="10" stroke-linecap="round"/>
<path d="M1244.25 148.206L1236.11 149.407" stroke="#4D2C5E" stroke-opacity="0.1" stroke-width="3" stroke-miterlimit="10" stroke-linecap="round"/>
<path d="M1712.99 1404.04L1641.06 1383.01C1635.82 1381.48 1632.85 1376.1 1634.42 1370.98L1648.78 1323.9C1650.34 1318.79 1655.85 1315.88 1661.08 1317.41L1733.01 1338.43C1738.24 1339.96 1741.21 1345.35 1739.65 1350.47L1725.28 1397.54C1723.72 1402.65 1718.21 1405.56 1712.99 1404.04Z" stroke="#4D2C5E" stroke-opacity="0.1" stroke-width="4" stroke-miterlimit="10" stroke-linecap="round"/>
<path d="M1636.11 1365.41L1726.98 1391.97" stroke="#4D2C5E" stroke-opacity="0.1" stroke-width="4" stroke-miterlimit="10" stroke-linecap="round"/>
<path d="M1681.77 1386.41C1681.38 1387.68 1680 1388.41 1678.69 1388.03C1677.39 1387.65 1676.65 1386.3 1677.04 1385.02C1677.43 1383.74 1678.8 1383.02 1680.11 1383.4C1681.41 1383.78 1682.16 1385.13 1681.77 1386.41Z" fill="#4D2C5E" fill-opacity="0.5"/>
<path d="M1687.21 1396.51L1666.84 1390.56L1664.1 1399.55L1684.47 1405.5L1687.21 1396.51Z" stroke="#4D2C5E" stroke-opacity="0.1" stroke-width="4" stroke-miterlimit="10" stroke-linecap="round"/>
<path d="M1656.54 1397.85L1691.71 1408.13" stroke="#4D2C5E" stroke-opacity="0.1" stroke-width="4" stroke-miterlimit="10" stroke-linecap="round"/>
<path d="M1154.83 62.8876C1177.38 62.8876 1195.65 54.4096 1195.65 43.9515C1195.65 33.4934 1177.38 25.0154 1154.83 25.0154C1132.28 25.0154 1114 33.4934 1114 43.9515C1114 54.4096 1132.28 62.8876 1154.83 62.8876Z" stroke="#4D2C5E" stroke-opacity="0.1" stroke-width="3" stroke-miterlimit="10" stroke-linecap="round" stroke-linejoin="round"/>
<path d="M1171.34 53.8222C1183.06 34.9782 1185.17 15.2936 1176.04 9.85535C1166.91 4.41713 1150 15.2847 1138.28 34.1287C1126.55 52.9727 1124.45 72.6573 1133.58 78.0955C1142.71 83.5338 1159.61 72.6662 1171.34 53.8222Z" stroke="#4D2C5E" stroke-opacity="0.1" stroke-width="3" stroke-miterlimit="10" stroke-linecap="round" stroke-linejoin="round"/>
<path d="M1176.03 78.0868C1185.16 72.6486 1183.05 52.9639 1171.33 34.1199C1159.6 15.2759 1142.7 4.40838 1133.57 9.8466C1124.44 15.2848 1126.55 34.9694 1138.27 53.8135C1150 72.6575 1166.9 83.525 1176.03 78.0868Z" stroke="#4D2C5E" stroke-opacity="0.1" stroke-width="3" stroke-miterlimit="10" stroke-linecap="round" stroke-linejoin="round"/>
<path d="M1154.83 48.9643C1157.66 48.9643 1159.95 46.7201 1159.95 43.9516C1159.95 41.1832 1157.66 38.939 1154.83 38.939C1152 38.939 1149.7 41.1832 1149.7 43.9516C1149.7 46.7201 1152 48.9643 1154.83 48.9643Z" stroke="#4D2C5E" stroke-opacity="0.1" stroke-width="3" stroke-miterlimit="10" stroke-linecap="round" stroke-linejoin="round"/>
<path d="M381.374 1734.46L347.662 1742.07L346.146 1735.64C345.798 1734.15 346.741 1732.67 348.264 1732.32L376.463 1725.95C377.986 1725.61 379.502 1726.53 379.858 1728.02L381.374 1734.46Z" stroke="#4D2C5E" stroke-opacity="0.1" stroke-width="3" stroke-miterlimit="10" stroke-linecap="round"/>
<path d="M370.292 1699.88C385.152 1688.16 387.485 1666.87 375.504 1652.33C363.523 1637.79 341.765 1635.5 326.905 1647.23C312.046 1658.95 309.713 1680.24 321.694 1694.78C333.675 1709.32 355.433 1711.6 370.292 1699.88Z" stroke="#4D2C5E" stroke-opacity="0.1" stroke-width="3" stroke-miterlimit="10"/>
<path d="M364.684 1703.47L332.452 1643.64L328.427 1636.38C307.415 1647.22 299.364 1672.67 310.439 1693.23C321.515 1713.79 347.524 1721.67 368.536 1710.83L364.597 1703.52" stroke="#4D2C5E" stroke-opacity="0.1" stroke-width="3" stroke-miterlimit="10" stroke-linecap="round" stroke-linejoin="round"/>
<path d="M339.556 1656.75C350.108 1651.31 357.077 1643.95 355.121 1640.32C353.165 1636.69 343.025 1638.16 332.472 1643.61C321.92 1649.05 314.951 1656.41 316.907 1660.04C318.863 1663.67 329.003 1662.2 339.556 1656.75Z" stroke="#4D2C5E" stroke-opacity="0.1" stroke-width="3" stroke-miterlimit="10"/>
<path d="M342.033 1706.76C349.482 1708.16 357.453 1707.21 364.684 1703.47C371.915 1699.74 377.232 1693.85 380.256 1687.04C372.807 1685.64 364.836 1686.6 357.605 1690.33C350.367 1694.06 345.057 1699.95 342.033 1706.76Z" stroke="#4D2C5E" stroke-opacity="0.1" stroke-width="3" stroke-miterlimit="10"/>
<path d="M364.711 1703.44C373.151 1699.08 372.777 1682.16 363.875 1665.64C354.972 1649.12 340.913 1639.25 332.473 1643.61C324.032 1647.96 324.407 1664.88 333.309 1681.41C342.211 1697.93 356.27 1707.79 364.711 1703.44Z" stroke="#4D2C5E" stroke-opacity="0.1" stroke-width="3" stroke-miterlimit="10"/>
<path d="M317.997 1689.33L379.139 1657.79" stroke="#4D2C5E" stroke-opacity="0.1" stroke-width="3" stroke-miterlimit="10"/>
<path d="M358.606 1714.51L362.175 1729.08" stroke="#4D2C5E" stroke-opacity="0.1" stroke-width="3" stroke-miterlimit="10"/>
<path d="M343.614 1743.43L386.588 1733.34" stroke="#4D2C5E" stroke-opacity="0.1" stroke-width="3" stroke-miterlimit="10" stroke-linecap="round"/>
<path d="M1145.88 393.249L1163.87 375.65L1114.03 326.884L1096.05 344.483L1145.88 393.249Z" stroke="#4D2C5E" stroke-opacity="0.1" stroke-width="3" stroke-miterlimit="10" stroke-linecap="round" stroke-linejoin="round"/>
<path d="M1168.73 398.011L1163.87 375.646L1145.88 393.246L1168.73 398.011Z" stroke="#4D2C5E" stroke-opacity="0.1" stroke-width="3" stroke-miterlimit="10" stroke-linecap="round" stroke-linejoin="round"/>
<path d="M1166.46 387.576L1158.06 395.787" stroke="#4D2C5E" stroke-opacity="0.1" stroke-width="3" stroke-miterlimit="10" stroke-linecap="round" stroke-linejoin="round"/>
<path d="M1090.75 331.066L1100.31 321.708C1102.64 319.431 1106.4 319.431 1108.73 321.708L1114.02 326.883L1096.03 344.483L1090.75 339.308C1088.42 337.031 1088.42 333.335 1090.75 331.066Z" stroke="#4D2C5E" stroke-opacity="0.1" stroke-width="3" stroke-miterlimit="10" stroke-linecap="round" stroke-linejoin="round"/>
<path d="M1118.88 331.631L1100.9 349.239" stroke="#4D2C5E" stroke-opacity="0.1" stroke-width="3" stroke-miterlimit="10" stroke-linecap="round" stroke-linejoin="round"/>
<path d="M1154.87 384.447L1109.89 340.439" stroke="#4D2C5E" stroke-opacity="0.1" stroke-width="3" stroke-miterlimit="10" stroke-linecap="round" stroke-linejoin="round"/>
<path d="M366.175 781.342L362.864 788.725" stroke="#4D2C5E" stroke-opacity="0.1" stroke-width="4" stroke-miterlimit="10" stroke-linecap="round" stroke-linejoin="round"/>
<path d="M390.203 791.656L386.893 799.039" stroke="#4D2C5E" stroke-opacity="0.1" stroke-width="4" stroke-miterlimit="10" stroke-linecap="round" stroke-linejoin="round"/>
<path d="M414.238 801.964L410.928 809.348" stroke="#4D2C5E" stroke-opacity="0.1" stroke-width="4" stroke-miterlimit="10" stroke-linecap="round" stroke-linejoin="round"/>
<path d="M350.093 774.441L348.437 778.139" stroke="#4D2C5E" stroke-opacity="0.1" stroke-width="4" stroke-miterlimit="10" stroke-linecap="round" stroke-linejoin="round"/>
<path d="M358.134 777.897L356.479 781.583" stroke="#4D2C5E" stroke-opacity="0.1" stroke-width="4" stroke-miterlimit="10" stroke-linecap="round" stroke-linejoin="round"/>
<path d="M374.169 784.771L372.513 788.468" stroke="#4D2C5E" stroke-opacity="0.1" stroke-width="4" stroke-miterlimit="10" stroke-linecap="round" stroke-linejoin="round"/>
<path d="M382.204 788.221L380.555 791.913" stroke="#4D2C5E" stroke-opacity="0.1" stroke-width="4" stroke-miterlimit="10" stroke-linecap="round" stroke-linejoin="round"/>
<path d="M398.245 795.1L396.589 798.798" stroke="#4D2C5E" stroke-opacity="0.1" stroke-width="4" stroke-miterlimit="10" stroke-linecap="round" stroke-linejoin="round"/>
<path d="M422.668 805.582L421.019 809.274" stroke="#4D2C5E" stroke-opacity="0.1" stroke-width="4" stroke-miterlimit="10" stroke-linecap="round" stroke-linejoin="round"/>
<path d="M406.28 798.55L404.63 802.242" stroke="#4D2C5E" stroke-opacity="0.1" stroke-width="4" stroke-miterlimit="10" stroke-linecap="round" stroke-linejoin="round"/>
<path d="M409.04 864.619L329.695 765.694L433.427 810.195L409.04 864.619Z" stroke="#4D2C5E" stroke-opacity="0.1" stroke-width="4" stroke-miterlimit="10" stroke-linecap="round" stroke-linejoin="round"/>
<path d="M404.996 833.397L383.29 806.334L411.664 818.503L404.996 833.397Z" stroke="#4D2C5E" stroke-opacity="0.1" stroke-width="4" stroke-miterlimit="10" stroke-linecap="round" stroke-linejoin="round"/>
<path d="M799.907 828L770 842.149L829.609 962.783L859.516 948.634L799.907 828Z" stroke="#4D2C5E" stroke-opacity="0.1" stroke-width="4" stroke-miterlimit="10" stroke-linecap="round" stroke-linejoin="round"/>
<path d="M807.043 842.476L792.097 849.544" stroke="#4D2C5E" stroke-opacity="0.1" stroke-width="4" stroke-miterlimit="10" stroke-linecap="round" stroke-linejoin="round"/>
<path d="M820.856 870.424L805.9 877.502" stroke="#4D2C5E" stroke-opacity="0.1" stroke-width="4" stroke-miterlimit="10" stroke-linecap="round" stroke-linejoin="round"/>
<path d="M834.67 898.371L819.713 905.45" stroke="#4D2C5E" stroke-opacity="0.1" stroke-width="4" stroke-miterlimit="10" stroke-linecap="round" stroke-linejoin="round"/>
<path d="M848.473 926.329L833.527 933.398" stroke="#4D2C5E" stroke-opacity="0.1" stroke-width="4" stroke-miterlimit="10" stroke-linecap="round" stroke-linejoin="round"/>
<path d="M811.616 851.731L804.143 855.26" stroke="#4D2C5E" stroke-opacity="0.1" stroke-width="4" stroke-miterlimit="10" stroke-linecap="round" stroke-linejoin="round"/>
<path d="M816.231 861.077L808.758 864.616" stroke="#4D2C5E" stroke-opacity="0.1" stroke-width="4" stroke-miterlimit="10" stroke-linecap="round" stroke-linejoin="round"/>
<path d="M825.451 879.729L817.977 883.258" stroke="#4D2C5E" stroke-opacity="0.1" stroke-width="4" stroke-miterlimit="10" stroke-linecap="round" stroke-linejoin="round"/>
<path d="M830.065 889.076L822.592 892.615" stroke="#4D2C5E" stroke-opacity="0.1" stroke-width="4" stroke-miterlimit="10" stroke-linecap="round" stroke-linejoin="round"/>
<path d="M839.285 907.728L831.812 911.257" stroke="#4D2C5E" stroke-opacity="0.1" stroke-width="4" stroke-miterlimit="10" stroke-linecap="round" stroke-linejoin="round"/>
<path d="M843.91 917.074L836.427 920.614" stroke="#4D2C5E" stroke-opacity="0.1" stroke-width="4" stroke-miterlimit="10" stroke-linecap="round" stroke-linejoin="round"/>
<path d="M43.4973 1369.81L11.0374 1384.73C9.30165 1385.53 7.23333 1384.8 6.41222 1383.1L4.33346 1378.77C3.51234 1377.07 4.26067 1375.05 5.99644 1374.25L38.4563 1359.33C40.1921 1358.52 42.2605 1359.26 43.0817 1360.95L45.1604 1365.29C45.9815 1366.99 45.2331 1369.02 43.4973 1369.81Z" stroke="#4D2C5E" stroke-opacity="0.1" stroke-width="4" stroke-miterlimit="10" stroke-linecap="round"/>
<path d="M56.105 1403.7L40.2233 1371.34L14.5297 1383.41L30.4115 1415.77L40.4312 1469.92C43.726 1476.64 51.9683 1479.47 58.8282 1476.24L86.5694 1463.2C93.4397 1459.98 96.3291 1451.92 93.0343 1445.2L56.105 1403.7Z" stroke="#4D2C5E" stroke-opacity="0.1" stroke-width="4" stroke-miterlimit="10" stroke-linecap="round"/>
<path d="M34.9224 1440.19C34.9224 1440.19 40.2232 1431.79 54.3173 1432.27C68.4113 1432.75 70.781 1420.18 70.781 1420.18" stroke="#4D2C5E" stroke-opacity="0.1" stroke-width="4" stroke-miterlimit="10" stroke-linecap="round"/>
<path d="M24.6889 225.798C37.0192 225.798 47.0148 216.017 47.0148 203.952C47.0148 191.887 37.0192 182.106 24.6889 182.106C12.3586 182.106 2.36292 191.887 2.36292 203.952C2.36292 216.017 12.3586 225.798 24.6889 225.798Z" stroke="#4D2C5E" stroke-opacity="0.1" stroke-width="4" stroke-miterlimit="10" stroke-linecap="round" stroke-linejoin="round"/>
<path d="M55.9847 247.379C60.9157 247.379 64.913 243.467 64.913 238.643C64.913 233.818 60.9157 229.906 55.9847 229.906C51.0538 229.906 47.0564 233.818 47.0564 238.643C47.0564 243.467 51.0538 247.379 55.9847 247.379Z" stroke="#4D2C5E" stroke-opacity="0.1" stroke-width="4" stroke-miterlimit="10" stroke-linecap="round" stroke-linejoin="round"/>
</svg>
