<svg width="60" height="64" viewBox="0 0 60 64" fill="none" xmlns="http://www.w3.org/2000/svg">
<path d="M58.0505 10.378L50.0481 1.65104C48.0319 -0.547799 44.5244 -0.552023 42.5003 1.65526L6.65125 41.1029C6.49233 41.2775 6.37767 41.4921 6.31515 41.7278L0.980337 62.0908C0.847548 62.5979 0.977711 63.1448 1.32031 63.5184C1.57426 63.7953 1.91424 63.9445 2.26334 63.9445C2.38575 63.9445 2.50954 63.926 2.62932 63.8891L21.3014 58.0711C21.5176 58.0029 21.7143 57.8779 21.8745 57.7046L58.0505 18.6049C59.0587 17.5056 59.6134 16.0453 59.6134 14.4915C59.6134 12.9376 59.0587 11.4773 58.0505 10.378Z" fill="#0C0B0B"/>
<path d="M15.9576 45.5056L14.118 41.4954C13.8913 41.0029 13.4303 40.6921 12.9249 40.6921H10.7891L36.6802 12.2266L41.5896 17.576L15.9576 45.5056Z" fill="#FFCA28"/>
<path d="M21.5243 49.5649L17.844 47.5605L43.476 19.6311L48.3855 24.9806L22.2615 53.1923V50.865C22.2615 50.3143 21.9762 49.8119 21.5243 49.5649Z" fill="#FFCA28"/>
<path d="M44.3818 3.75884C45.39 2.6603 47.1456 2.6603 48.1538 3.75884L56.1562 12.4784C56.6602 13.0276 56.9376 13.7571 56.9376 14.5334C56.9376 15.3097 56.6602 16.0392 56.16 16.5841L50.2792 22.9349L38.5574 10.1624L44.3818 3.75884Z" fill="#D32F2F"/>
<path d="M15.0038 49.2655C14.8749 49.1952 14.4717 48.756 14.4072 48.6155L12.1084 43.6057H8.60351L5.63501 54.9285L9.35523 58.779L19.6016 55.5896V51.7705L15.0038 49.2655Z" fill="#F2F2F2"/>
<path d="M9.35485 58.779L5.63475 54.9285L5.94209 53.7557L4.20483 60.3822L10.2861 58.4891L9.35485 58.779Z" fill="#0C0B0B"/>
<path opacity="0.1" d="M19.6012 51.7705L15.0035 49.2656C14.8746 49.1953 14.8061 49.0505 14.7053 48.9407L4.20483 60.3823L19.6012 55.5896V51.7705Z" fill="#0C0B0B"/>
<path opacity="0.1" d="M52.1632 8.12549L44.4265 16.5556L50.2875 22.9419L56.1683 16.5911C56.6685 16.0462 56.9459 15.3167 56.9459 14.5404C56.9459 13.7641 56.6685 13.0346 56.1645 12.4854L52.1632 8.12549Z" fill="#0C0B0B"/>
<path opacity="0.1" d="M21.5319 49.5719L17.8516 47.5675L43.4836 19.6381L48.393 24.9875L22.2691 53.1993V50.8719C22.2691 50.3212 21.9838 49.8189 21.5319 49.5719Z" fill="#0C0B0B"/>
<path d="M58.0505 10.378L50.0481 1.65104C48.0319 -0.547799 44.5244 -0.552022 42.5003 1.65526L6.65125 41.1029C6.49233 41.2775 6.37767 41.4921 6.31515 41.7278L0.980337 62.0908C0.847548 62.5979 0.977711 63.1448 1.32031 63.5184C1.57426 63.7953 1.91424 63.9445 2.26334 63.9445C2.38575 63.9445 2.50954 63.926 2.62932 63.8891L21.3014 58.0711C21.5176 58.0029 21.7143 57.8779 21.8745 57.7046L58.0505 18.6049C59.0587 17.5056 59.6134 16.0453 59.6134 14.4915C59.6134 12.9376 59.0587 11.4773 58.0505 10.378Z" fill="url(#paint0_linear_116_1118)"/>
<defs>
<linearGradient id="paint0_linear_116_1118" x1="13.0177" y1="26.0211" x2="48.7068" y2="41.288" gradientUnits="userSpaceOnUse">
<stop stop-color="white" stop-opacity="0.2"/>
<stop offset="1" stop-color="white" stop-opacity="0"/>
</linearGradient>
</defs>
</svg>
