<svg width="83" height="87" viewBox="0 0 83 87" fill="none" xmlns="http://www.w3.org/2000/svg">
<path d="M41.28 61.8352C62.9737 61.8352 80.56 53.4991 80.56 43.216C80.56 32.933 62.9737 24.5969 41.28 24.5969C19.5862 24.5969 2 32.933 2 43.216C2 53.4991 19.5862 61.8352 41.28 61.8352Z" stroke="#4D2C5E" stroke-opacity="0.1" stroke-width="3" stroke-miterlimit="10" stroke-linecap="round" stroke-linejoin="round"/>
<path d="M57.1649 52.9214C68.4457 34.3928 70.4707 15.0376 61.6879 9.69038C52.9051 4.34318 36.6404 15.0288 25.3597 33.5575C14.0789 52.0861 12.0539 71.4413 20.8367 76.7885C29.6195 82.1357 45.8842 71.45 57.1649 52.9214Z" stroke="#4D2C5E" stroke-opacity="0.1" stroke-width="3" stroke-miterlimit="10" stroke-linecap="round" stroke-linejoin="round"/>
<path d="M61.6801 76.7801C70.4629 71.4329 68.4379 52.0777 57.1571 33.5491C45.8764 15.0204 29.6117 4.33479 20.8289 9.68199C12.0461 15.0292 14.0711 34.3844 25.3519 52.913C36.6326 71.4416 52.8973 82.1273 61.6801 76.7801Z" stroke="#4D2C5E" stroke-opacity="0.1" stroke-width="3" stroke-miterlimit="10" stroke-linecap="round" stroke-linejoin="round"/>
<path d="M41.2799 48.1448C44.002 48.1448 46.2086 45.9381 46.2086 43.216C46.2086 40.4939 44.002 38.2872 41.2799 38.2872C38.5578 38.2872 36.3511 40.4939 36.3511 43.216C36.3511 45.9381 38.5578 48.1448 41.2799 48.1448Z" stroke="#4D2C5E" stroke-opacity="0.1" stroke-width="3" stroke-miterlimit="10" stroke-linecap="round" stroke-linejoin="round"/>
</svg>
