<svg width="59" height="52" viewBox="0 0 59 52" fill="none" xmlns="http://www.w3.org/2000/svg">
<path d="M29.3428 10.6501L46.1412 0.780365V9.3645L29.3428 10.6501Z" fill="#B8E8F2"/>
<path d="M29.3428 10.6501L49.7228 3.09444V9.21565L29.3428 10.6501Z" fill="#88CFE5"/>
<path d="M29.3432 10.6501L7.51074 0V8.34957L29.3432 10.6501Z" fill="#B8E8F2"/>
<path d="M29.3427 10.6501L2.90918 1.92613V7.81278L29.3427 10.6501Z" fill="#88CFE5"/>
<path d="M29.3791 51.8476L0.0315758 46.1685L0 4.96193L29.3475 10.6456L29.3791 51.8476Z" fill="#21B573"/>
<path d="M58.7941 34.0298C58.7941 41.3193 53.0743 47.197 45.9968 48.5773L29.3473 51.8161L29.3428 10.6501L44.8601 7.63235C51.7662 6.28812 57.3777 9.84266 57.3777 16.9608C57.3777 20.371 56.074 23.3301 53.9269 25.6893C56.8679 27.0515 58.7896 29.8528 58.7941 34.0298ZM38.4051 17.7096V24.9991L44.8601 23.7406C46.899 23.3436 48.3154 21.5393 48.3154 19.4237C48.3154 17.3081 46.9576 16.0451 44.8601 16.451L38.4051 17.7096ZM49.7318 35.0853C49.7318 32.7938 48.2613 31.4316 45.9923 31.8736L38.4051 33.3487V41.2291L45.9923 39.7541C48.2613 39.3165 49.7318 37.3814 49.7318 35.0853Z" fill="#21B573"/>
</svg>
