<svg width="21" height="20" viewBox="0 0 21 20" fill="none" xmlns="http://www.w3.org/2000/svg">
<ellipse cx="10.3664" cy="9.90818" rx="9.96597" ry="9.28073" fill="white"/>
<path d="M10.3669 10.3379C10.2264 10.3363 10.0888 10.3749 9.9726 10.4484C9.85639 10.5219 9.76714 10.6268 9.71688 10.749C9.66662 10.8711 9.65776 11.0047 9.69148 11.1317C9.7252 11.2587 9.79989 11.373 9.90549 11.4593V12.0565C9.90549 12.1705 9.9541 12.2798 10.0406 12.3603C10.1272 12.4409 10.2445 12.4862 10.3669 12.4862C10.4892 12.4862 10.6066 12.4409 10.6931 12.3603C10.7797 12.2798 10.8283 12.1705 10.8283 12.0565V11.4593C10.9339 11.373 11.0086 11.2587 11.0423 11.1317C11.076 11.0047 11.0671 10.8711 11.0169 10.749C10.9666 10.6268 10.8774 10.5219 10.7612 10.4484C10.645 10.3749 10.5074 10.3363 10.3669 10.3379V10.3379ZM12.6738 8.61922V7.75989C12.6738 7.19012 12.4308 6.64369 11.9981 6.2408C11.5655 5.83791 10.9787 5.61157 10.3669 5.61157C9.75504 5.61157 9.16826 5.83791 8.73563 6.2408C8.303 6.64369 8.05994 7.19012 8.05994 7.75989V8.61922C7.69284 8.61922 7.34077 8.75502 7.08119 8.99675C6.82161 9.23849 6.67578 9.56635 6.67578 9.90821V12.9159C6.67578 13.2577 6.82161 13.5856 7.08119 13.8273C7.34077 14.069 7.69284 14.2048 8.05994 14.2048H12.6738C13.0409 14.2048 13.393 14.069 13.6526 13.8273C13.9121 13.5856 14.058 13.2577 14.058 12.9159V9.90821C14.058 9.56635 13.9121 9.23849 13.6526 8.99675C13.393 8.75502 13.0409 8.61922 12.6738 8.61922ZM8.98272 7.75989C8.98272 7.41803 9.12855 7.09017 9.38813 6.84844C9.64771 6.6067 9.99978 6.4709 10.3669 6.4709C10.734 6.4709 11.0861 6.6067 11.3456 6.84844C11.6052 7.09017 11.751 7.41803 11.751 7.75989V8.61922H8.98272V7.75989ZM13.1352 12.9159C13.1352 13.0298 13.0866 13.1391 13.0001 13.2197C12.9135 13.3003 12.7962 13.3455 12.6738 13.3455H8.05994C7.93758 13.3455 7.82022 13.3003 7.73369 13.2197C7.64717 13.1391 7.59856 13.0298 7.59856 12.9159V9.90821C7.59856 9.79425 7.64717 9.68497 7.73369 9.60439C7.82022 9.52381 7.93758 9.47855 8.05994 9.47855H12.6738C12.7962 9.47855 12.9135 9.52381 13.0001 9.60439C13.0866 9.68497 13.1352 9.79425 13.1352 9.90821V12.9159Z" fill="#954AE9"/>
</svg>
