<svg width="30" height="33" viewBox="0 0 30 33" fill="none" xmlns="http://www.w3.org/2000/svg">
<path d="M14.753 0.223267C6.6631 0.223267 0.0820312 7.3942 0.0820312 16.2092C0.0820312 25.0242 6.6631 32.1951 14.753 32.1951C22.8429 32.1951 29.424 25.0242 29.424 16.2092C29.424 7.3942 22.8429 0.223267 14.753 0.223267ZM21.7303 24.4778C21.4919 24.7376 21.1789 24.8683 20.866 24.8683C20.553 24.8683 20.2398 24.7376 20.0016 24.4778L13.8887 17.8171C13.6588 17.5681 13.5305 17.2295 13.5305 16.8753V8.21623C13.5305 7.47957 14.0781 6.88415 14.753 6.88415C15.4279 6.88415 15.9755 7.47957 15.9755 8.21623V16.3238L21.7303 22.5942C22.2082 23.1152 22.2082 23.957 21.7303 24.4778V24.4778Z" fill="#0C0B0B"/>
</svg>
