<svg width="59" height="52" viewBox="0 0 59 52" fill="none" xmlns="http://www.w3.org/2000/svg">
<path d="M29.3433 10.6501L46.1416 0.780396V9.36453L29.3433 10.6501Z" fill="#B8E8F2"/>
<path d="M29.3433 10.6501L49.7233 3.09442V9.21563L29.3433 10.6501Z" fill="#88CFE5"/>
<path d="M29.3432 10.6501L7.51074 0V8.34957L29.3432 10.6501Z" fill="#B8E8F2"/>
<path d="M29.3432 10.6501L2.90967 1.92615V7.8128L29.3432 10.6501Z" fill="#88CFE5"/>
<path d="M29.3791 51.8476L0.0315758 46.1685L0 4.96191L29.3475 10.6456L29.3791 51.8476Z" fill="#21B573"/>
<path d="M58.7946 34.0298C58.7946 41.3193 53.0748 47.197 45.9973 48.5773L29.3478 51.8161L29.3433 10.6501L44.8606 7.63237C51.7667 6.28813 57.3782 9.84268 57.3782 16.9608C57.3782 20.371 56.0745 23.3301 53.9274 25.6893C56.8684 27.0515 58.79 29.8528 58.7946 34.0298ZM38.4055 17.7096V24.9991L44.8606 23.7406C46.8995 23.3436 48.3159 21.5393 48.3159 19.4237C48.3159 17.3081 46.9581 16.0451 44.8606 16.4511L38.4055 17.7096ZM49.7323 35.0854C49.7323 32.7938 48.2617 31.4316 45.9928 31.8736L38.4055 33.3487V41.2291L45.9928 39.7541C48.2617 39.3165 49.7323 37.3814 49.7323 35.0854Z" fill="#21B573"/>
</svg>
