<svg width="169" height="110" viewBox="0 0 169 110" fill="none" xmlns="http://www.w3.org/2000/svg">
<path fill-rule="evenodd" clip-rule="evenodd" d="M151.222 73.0905C150.182 72.4469 148.691 72.3619 147.861 72.8893C137.869 78.9808 126.713 81.6966 114.748 81.0285C103.098 80.3769 90.7631 76.4309 78.1116 69.355C75.3038 67.8076 70.8361 64.6727 66.757 61.0466C69.2309 58.5614 70.6421 55.5225 71.084 52.5371C71.7348 48.1276 69.9886 43.9256 67.2918 41.729C65.7976 40.5126 64.0026 39.7118 61.9936 39.2985C59.4224 38.7718 56.0713 38.8861 52.5208 40.7398C47.6245 43.3109 47.0263 47.3849 49.4234 52.061C50.6876 54.5195 52.8396 57.1514 55.397 59.7115C53.1344 60.8074 50.1763 61.3375 46.3803 60.8404C38.351 59.8222 31.6888 55.3194 26.6204 50.1961C22.2265 45.7633 16.7367 39.2779 17.0598 34.4198C17.1681 32.7687 18.079 31.4013 15.659 29.8939C11.9501 27.5639 9.26028 29.5645 9.1064 31.8318C8.77995 36.7028 12.5866 42.835 16.1174 47.5699C22.6013 56.2824 33.3607 64.429 46.3177 66.275C52.389 67.123 57.299 66.4348 61.0948 64.8204C65.5923 68.5002 70.2949 71.6065 73.3052 73.2065C88.1761 80.9816 102.5 85.0641 115.741 85.4146C128.97 85.7691 141.171 82.4448 151.604 75.2202C152.425 74.6838 152.261 73.7341 151.222 73.0905ZM60.1515 54.0366C59.081 52.589 58.2843 51.1829 57.8959 49.8692C57.4063 48.1988 57.6475 46.6936 59.5006 45.7298C59.8151 45.5694 60.1925 45.3414 60.507 45.1809C60.8659 45.7728 61.51 46.9333 61.6773 47.8702C62.0356 49.9604 61.712 52.4005 60.603 54.6222C60.428 54.4192 60.2835 54.2299 60.1515 54.0366Z" fill="#DF615C"/>
<path fill-rule="evenodd" clip-rule="evenodd" d="M61.6777 46.1332C61.9314 46.2323 62.1699 46.3002 62.1312 46.1799C62.0772 46.0284 61.9224 46.0422 61.6777 46.1332Z" fill="#DF615C"/>
<path fill-rule="evenodd" clip-rule="evenodd" d="M144.73 71.6007C143.892 73.0929 143.11 74.6874 142.62 76.2235C141.872 78.6216 141.758 80.8513 143.004 82.5583C143.446 83.3985 144.843 83.9907 146.099 83.8732C147.365 83.7646 148.028 82.9874 147.574 82.1513C147.437 81.7399 147.589 81.3315 147.72 80.8698C148.014 79.7806 148.9 78.68 149.866 77.4936C151.102 75.9807 152.645 74.4887 153.941 73.1001C155.121 71.8446 156.084 70.6713 156.663 69.7297C157.579 68.2482 157.418 66.9458 157.019 66.1637C156.91 65.9592 153.778 62.8231 149.497 63.7242C147.967 64.0498 144.202 65.0122 144.017 65.0602C141.771 65.7362 137.594 66.9514 133.505 67.467C132.214 67.6319 130.963 67.7715 129.795 67.7289C129.721 67.6569 129.647 67.5849 129.56 67.5169C128.295 66.463 126.123 66.0969 124.676 66.6834C123.865 66.9569 122.892 67.8097 122.685 68.344C122.289 69.3824 123.084 70.2884 124.793 71.1034C127.12 72.2103 130.293 72.6849 133.776 72.7243C137.434 72.7549 141.476 72.1943 144.73 71.6007ZM147.773 66.8566C147.979 66.5504 148.028 66.3191 147.665 66.2442C147.259 66.1594 147.596 66.6021 147.773 66.8566Z" fill="#DF615C"/>
</svg>
