<svg width="30" height="33" viewBox="0 0 30 33" fill="none" xmlns="http://www.w3.org/2000/svg">
<path d="M15.2676 0.885254C7.17775 0.885254 0.59668 8.05618 0.59668 16.8712C0.59668 25.6862 7.17775 32.8571 15.2676 32.8571C23.3575 32.8571 29.9386 25.6862 29.9386 16.8712C29.9386 8.05618 23.3575 0.885254 15.2676 0.885254ZM22.245 25.1398C22.0065 25.3995 21.6936 25.5303 21.3806 25.5303C21.0677 25.5303 20.7545 25.3995 20.5163 25.1398L14.4033 18.4791C14.1734 18.2301 14.0451 17.8915 14.0451 17.5373V8.87821C14.0451 8.14156 14.5927 7.54613 15.2676 7.54613C15.9426 7.54613 16.4902 8.14156 16.4902 8.87821V16.9858L22.245 23.2562C22.7229 23.7772 22.7229 24.619 22.245 25.1398V25.1398Z" fill="#0C0B0B"/>
</svg>
