<svg width="10" height="8" viewBox="0 0 10 8" fill="none" xmlns="http://www.w3.org/2000/svg">
<path d="M5.35768 6.62563L8.97603 2.3705C9.19679 2.11089 9.19679 1.68984 8.97603 1.43023C8.75522 1.17056 8.39727 1.17056 8.17646 1.43023L5.52326 4.55036C5.52326 4.55036 5.25628 4.90198 4.96005 4.8946C4.67094 4.88739 4.39253 4.55036 4.39253 4.55036L1.73933 1.43033C1.51852 1.17066 1.16057 1.17066 0.939761 1.43033C0.829446 1.56011 0.774177 1.73032 0.774177 1.90047C0.774177 2.07062 0.829446 2.24078 0.939761 2.37061L4.55811 6.62563C4.77892 6.8853 5.13687 6.8853 5.35768 6.62563Z" fill="#0C0B0B" stroke="#0C0B0B" stroke-width="0.5"/>
</svg>
