<svg width="61" height="65" viewBox="0 0 61 65" fill="none" xmlns="http://www.w3.org/2000/svg">
<path d="M49.7079 64.0422H10.8361C4.94266 64.0422 0.177734 58.8502 0.177734 52.4285V11.7123C0.177734 5.29058 4.94266 0.0985718 10.8361 0.0985718H49.7079C55.6014 0.0985718 60.3663 5.29058 60.3663 11.7123V52.4285C60.3663 58.8502 55.6014 64.0422 49.7079 64.0422Z" fill="#26C9FF"/>
<path d="M48.7547 61.3097H11.7888C6.77311 61.3097 2.6853 56.8555 2.6853 51.3629V12.7781C2.6853 7.28549 6.77311 2.8313 11.7888 2.8313H48.7296C53.7704 2.8313 57.8331 7.28549 57.8331 12.7508V51.3629C57.8582 56.8555 53.7704 61.3097 48.7547 61.3097Z" fill="#062026"/>
<path d="M14.7231 15.0733C14.7231 14.882 15.0742 14.7453 15.2749 14.7453C16.8799 14.6634 19.2624 14.6087 21.7451 14.6087C28.6919 14.6087 31.4004 18.7623 31.4004 24.0909C31.4004 31.0318 26.7859 34.0104 21.1182 34.0104C20.1652 34.0104 19.8392 33.9558 19.1621 33.9558V44.4491C19.1621 44.6677 19.0868 44.777 18.8611 44.777H15.0241C14.8235 44.777 14.7231 44.695 14.7231 44.4491V15.0733ZM19.1871 29.5835C19.7639 29.6382 20.2154 29.6382 21.2185 29.6382C24.1527 29.6382 26.9113 28.5178 26.9113 24.1729C26.9113 20.7025 24.9301 18.9536 21.5947 18.9536C20.5915 18.9536 19.6385 19.0082 19.1871 19.0356V29.5835ZM40.7547 26.3317C38.7735 26.3317 38.0964 27.4248 38.0964 28.3265C38.0964 29.3103 38.5478 29.9934 41.2061 31.4964C45.1435 33.5732 46.3723 35.568 46.3723 38.4919C46.3723 42.8642 43.3127 45.2142 39.1748 45.2142C36.9929 45.2142 35.112 44.7223 34.0336 44.0392C33.8581 43.9572 33.833 43.8206 33.833 43.602V39.585C33.833 39.3117 33.9584 39.2297 34.134 39.3664C35.7139 40.4868 37.5196 40.9786 39.1748 40.9786C41.156 40.9786 41.9836 40.0769 41.9836 38.8472C41.9836 37.8634 41.4068 36.989 38.8738 35.568C35.3127 33.7098 33.833 31.8243 33.833 28.6818C33.833 25.1567 36.366 22.2328 40.7547 22.2328C42.9115 22.2328 44.4162 22.588 45.2438 22.9979C45.4444 23.1345 45.4946 23.3531 45.4946 23.5444V27.2881C45.4946 27.5067 45.3692 27.6434 45.1184 27.5614C44.0149 26.7963 42.3848 26.3317 40.7547 26.3317Z" fill="#D9F5FF"/>
</svg>
