<svg width="21" height="19" viewBox="0 0 21 19" fill="none" xmlns="http://www.w3.org/2000/svg">
<ellipse cx="10.3664" cy="9.54319" rx="9.96597" ry="9.28073" fill="white"/>
<path d="M10.3669 9.97288C10.2264 9.97135 10.0888 10.0099 9.9726 10.0834C9.85639 10.1569 9.76714 10.2618 9.71688 10.384C9.66662 10.5061 9.65776 10.6397 9.69148 10.7667C9.7252 10.8937 9.79989 11.008 9.90549 11.0943V11.6915C9.90549 11.8055 9.9541 11.9148 10.0406 11.9954C10.1272 12.0759 10.2445 12.1212 10.3669 12.1212C10.4892 12.1212 10.6066 12.0759 10.6931 11.9954C10.7797 11.9148 10.8283 11.8055 10.8283 11.6915V11.0943C10.9339 11.008 11.0086 10.8937 11.0423 10.7667C11.076 10.6397 11.0671 10.5061 11.0169 10.384C10.9666 10.2618 10.8774 10.1569 10.7612 10.0834C10.645 10.0099 10.5074 9.97135 10.3669 9.97288V9.97288ZM12.6738 8.25423V7.3949C12.6738 6.82513 12.4308 6.2787 11.9981 5.87581C11.5655 5.47292 10.9787 5.24658 10.3669 5.24658C9.75504 5.24658 9.16826 5.47292 8.73563 5.87581C8.303 6.2787 8.05994 6.82513 8.05994 7.3949V8.25423C7.69284 8.25423 7.34077 8.39003 7.08119 8.63176C6.82161 8.8735 6.67578 9.20136 6.67578 9.54322V12.5509C6.67578 12.8927 6.82161 13.2206 7.08119 13.4623C7.34077 13.7041 7.69284 13.8399 8.05994 13.8399H12.6738C13.0409 13.8399 13.393 13.7041 13.6526 13.4623C13.9121 13.2206 14.058 12.8927 14.058 12.5509V9.54322C14.058 9.20136 13.9121 8.8735 13.6526 8.63176C13.393 8.39003 13.0409 8.25423 12.6738 8.25423ZM8.98272 7.3949C8.98272 7.05304 9.12855 6.72518 9.38813 6.48345C9.64771 6.24171 9.99978 6.10591 10.3669 6.10591C10.734 6.10591 11.0861 6.24171 11.3456 6.48345C11.6052 6.72518 11.751 7.05304 11.751 7.3949V8.25423H8.98272V7.3949ZM13.1352 12.5509C13.1352 12.6648 13.0866 12.7741 13.0001 12.8547C12.9135 12.9353 12.7962 12.9805 12.6738 12.9805H8.05994C7.93758 12.9805 7.82022 12.9353 7.73369 12.8547C7.64717 12.7741 7.59856 12.6648 7.59856 12.5509V9.54322C7.59856 9.42926 7.64717 9.31998 7.73369 9.2394C7.82022 9.15882 7.93758 9.11355 8.05994 9.11355H12.6738C12.7962 9.11355 12.9135 9.15882 13.0001 9.2394C13.0866 9.31998 13.1352 9.42926 13.1352 9.54322V12.5509Z" fill="#954AE9"/>
</svg>
