<svg width="60" height="65" viewBox="0 0 60 65" fill="none" xmlns="http://www.w3.org/2000/svg">
<path d="M59.6135 32.5775C59.6135 25.0231 57.195 18.0737 53.1595 12.5964L38.4072 40.4383H58.7152C59.301 37.9224 59.6135 35.2891 59.6135 32.5775Z" fill="#0C0B0B"/>
<path d="M40.5876 28.8306L50.7322 9.6846C45.4426 4.07017 38.2222 0.605469 30.2721 0.605469C28.7611 0.605469 27.2765 0.730733 25.8264 0.972021L40.5876 28.8306Z" fill="#0C0B0B"/>
<path d="M19.9564 36.324L9.81177 55.4699C15.1013 61.0844 22.3217 64.5491 30.2719 64.5491C31.7829 64.5491 33.2674 64.4238 34.7176 64.1827L19.9564 36.324Z" fill="#0C0B0B"/>
<path d="M28.0918 44.1849L38.2459 63.3488C47.1144 60.6165 54.289 53.444 57.6115 44.1848L28.0918 44.1849Z" fill="#0C0B0B"/>
<path d="M32.4518 20.9699L22.2977 1.80591C13.4293 4.53838 6.25464 11.7107 2.93213 20.9699H32.4518Z" fill="#0C0B0B"/>
<path d="M18.4675 31.6407L22.1364 24.7166H1.82841C1.24249 27.2323 0.929932 29.8658 0.929932 32.5774C0.929932 40.1317 3.34846 47.0811 7.38401 52.5584L18.4675 31.6407Z" fill="#0C0B0B"/>
</svg>
