<svg width="30" height="33" viewBox="0 0 30 33" fill="none" xmlns="http://www.w3.org/2000/svg">
<path d="M14.753 0.522583C6.6631 0.522583 0.0820312 7.69351 0.0820312 16.5085C0.0820312 25.3235 6.6631 32.4944 14.753 32.4944C22.8429 32.4944 29.424 25.3235 29.424 16.5085C29.424 7.69351 22.8429 0.522583 14.753 0.522583ZM21.7303 24.7771C21.4919 25.0369 21.1789 25.1676 20.866 25.1676C20.553 25.1676 20.2398 25.0369 20.0016 24.7771L13.8887 18.1165C13.6588 17.8674 13.5305 17.5288 13.5305 17.1747V8.51554C13.5305 7.77889 14.0781 7.18346 14.753 7.18346C15.4279 7.18346 15.9755 7.77889 15.9755 8.51554V16.6231L21.7303 22.8935C22.2082 23.4145 22.2082 24.2563 21.7303 24.7771V24.7771Z" fill="#0C0B0B"/>
</svg>
