<svg width="21" height="20" viewBox="0 0 21 20" fill="none" xmlns="http://www.w3.org/2000/svg">
<ellipse cx="10.3664" cy="10.2258" rx="9.96597" ry="9.28073" fill="white"/>
<g clip-path="url(#clip0_147_772)">
<path d="M10.3669 10.6555C10.2264 10.654 10.0888 10.6926 9.9726 10.7661C9.85639 10.8396 9.76714 10.9444 9.71688 11.0666C9.66662 11.1888 9.65776 11.3223 9.69148 11.4493C9.7252 11.5763 9.79989 11.6907 9.90549 11.7769V12.3742C9.90549 12.4881 9.9541 12.5974 10.0406 12.678C10.1272 12.7586 10.2445 12.8038 10.3669 12.8038C10.4892 12.8038 10.6066 12.7586 10.6931 12.678C10.7797 12.5974 10.8283 12.4881 10.8283 12.3742V11.7769C10.9339 11.6907 11.0086 11.5763 11.0423 11.4493C11.076 11.3223 11.0671 11.1888 11.0169 11.0666C10.9666 10.9444 10.8774 10.8396 10.7612 10.7661C10.645 10.6926 10.5074 10.654 10.3669 10.6555V10.6555ZM12.6738 8.93684V8.07752C12.6738 7.50775 12.4308 6.96131 11.9981 6.55843C11.5655 6.15554 10.9787 5.9292 10.3669 5.9292C9.75504 5.9292 9.16826 6.15554 8.73563 6.55843C8.303 6.96131 8.05994 7.50775 8.05994 8.07752V8.93684C7.69284 8.93684 7.34077 9.07265 7.08119 9.31438C6.82161 9.55611 6.67578 9.88397 6.67578 10.2258V13.2335C6.67578 13.5753 6.82161 13.9032 7.08119 14.1449C7.34077 14.3867 7.69284 14.5225 8.05994 14.5225H12.6738C13.0409 14.5225 13.393 14.3867 13.6526 14.1449C13.9121 13.9032 14.058 13.5753 14.058 13.2335V10.2258C14.058 9.88397 13.9121 9.55611 13.6526 9.31438C13.393 9.07265 13.0409 8.93684 12.6738 8.93684ZM8.98272 8.07752C8.98272 7.73566 9.12855 7.4078 9.38813 7.16606C9.64771 6.92433 9.99978 6.78853 10.3669 6.78853C10.734 6.78853 11.0861 6.92433 11.3456 7.16606C11.6052 7.4078 11.751 7.73566 11.751 8.07752V8.93684H8.98272V8.07752ZM13.1352 13.2335C13.1352 13.3474 13.0866 13.4567 13.0001 13.5373C12.9135 13.6179 12.7962 13.6631 12.6738 13.6631H8.05994C7.93758 13.6631 7.82022 13.6179 7.73369 13.5373C7.64717 13.4567 7.59856 13.3474 7.59856 13.2335V10.2258C7.59856 10.1119 7.64717 10.0026 7.73369 9.92202C7.82022 9.84144 7.93758 9.79617 8.05994 9.79617H12.6738C12.7962 9.79617 12.9135 9.84144 13.0001 9.92202C13.0866 10.0026 13.1352 10.1119 13.1352 10.2258V13.2335Z" fill="#954AE9"/>
</g>
<defs>
<clipPath id="clip0_147_772">
<rect width="11.0733" height="10.3119" fill="white" transform="translate(4.83008 5.06982)"/>
</clipPath>
</defs>
</svg>
