<svg width="30" height="33" viewBox="0 0 30 33" fill="none" xmlns="http://www.w3.org/2000/svg">
<path d="M15.2676 0.349609C7.17775 0.349609 0.59668 7.52054 0.59668 16.3355C0.59668 25.1505 7.17775 32.3214 15.2676 32.3214C23.3575 32.3214 29.9386 25.1505 29.9386 16.3355C29.9386 7.52054 23.3575 0.349609 15.2676 0.349609ZM22.245 24.6041C22.0065 24.8639 21.6936 24.9946 21.3806 24.9946C21.0677 24.9946 20.7545 24.8639 20.5163 24.6041L14.4033 17.9435C14.1734 17.6944 14.0451 17.3559 14.0451 17.0017V8.34257C14.0451 7.60591 14.5927 7.01049 15.2676 7.01049C15.9426 7.01049 16.4902 7.60591 16.4902 8.34257V16.4502L22.245 22.7205C22.7229 23.2416 22.7229 24.0833 22.245 24.6041V24.6041Z" fill="#0C0B0B"/>
</svg>
