<svg width="25" height="7" viewBox="0 0 25 7" fill="none" xmlns="http://www.w3.org/2000/svg">
<path fill-rule="evenodd" clip-rule="evenodd" d="M15.4875 3.64569C15.4875 5.21329 14.2168 6.484 12.6492 6.484C11.0816 6.484 9.81087 5.21329 9.81087 3.64569C9.81087 2.07809 11.0816 0.807373 12.6492 0.807373C14.2168 0.807373 15.4875 2.07809 15.4875 3.64569ZM6.3778 3.64627C6.3778 5.21387 5.10704 6.48458 3.53948 6.48458C1.97193 6.48458 0.701172 5.21387 0.701172 3.64627C0.701172 2.07867 1.97193 0.807952 3.53948 0.807952C5.10704 0.807952 6.3778 2.07867 6.3778 3.64627ZM24.597 3.64569C24.597 5.21329 23.3263 6.484 21.7587 6.484C20.1911 6.484 18.9204 5.21329 18.9204 3.64569C18.9204 2.07809 20.1911 0.807373 21.7587 0.807373C23.3263 0.807373 24.597 2.07809 24.597 3.64569Z" fill="#D9E0E8"/>
</svg>
