<svg width="23" height="23" viewBox="0 0 23 23" fill="none" xmlns="http://www.w3.org/2000/svg">
<circle cx="11.5161" cy="11.3647" r="10.7856" fill="#21B573"/>
<path d="M16.8367 8.94145L16.4706 8.42701C16.3939 8.31947 16.2433 8.29331 16.1326 8.36888L15.5068 8.80049C14.6744 7.79341 13.4568 7.10894 12.0768 6.96071V6.54364H12.4325C12.5978 6.54364 12.7321 6.4114 12.7321 6.24864V5.73275C12.7321 5.56999 12.5978 5.43774 12.4325 5.43774H10.5994C10.4341 5.43774 10.2998 5.56999 10.2998 5.73275V6.24864C10.2998 6.4114 10.4341 6.54364 10.5994 6.54364H10.9551V6.96071C9.57364 7.10894 8.35748 7.79341 7.52506 8.80049L6.89926 8.36888C6.79005 8.29331 6.63803 8.31947 6.56128 8.42701L6.19525 8.94145C6.1185 9.04899 6.14507 9.19867 6.25429 9.27424L6.91402 9.72909C6.56571 10.4121 6.37088 11.1823 6.37088 11.9976C6.36941 14.795 8.67332 17.0635 11.516 17.0635C14.3586 17.0635 16.6625 14.795 16.6625 11.9961C16.6625 11.1809 16.4662 10.4107 16.1194 9.72764L16.7791 9.27278C16.8868 9.19867 16.9134 9.04899 16.8367 8.94145ZM14.3601 14.7979C13.6 15.5463 12.5904 15.9576 11.516 15.9576C10.4415 15.9576 9.43047 15.5449 8.67185 14.7979C7.91175 14.0495 7.49406 13.0555 7.49406 11.9976C7.49406 10.9396 7.91322 9.94417 8.67185 9.19721C9.43195 8.44881 10.4415 8.03755 11.516 8.03755C12.5904 8.03755 13.6014 8.45026 14.3601 9.19721C15.1202 9.94562 15.5378 10.9396 15.5378 11.9976C15.5378 13.0555 15.1202 14.0495 14.3601 14.7979Z" fill="white"/>
<path d="M11.5157 8.58813C9.60441 8.58813 8.05469 10.114 8.05469 11.9959C8.05469 13.8778 9.60441 15.4052 11.5157 15.4052C12.4721 15.4052 13.337 15.023 13.9643 14.4068L11.5157 11.9959V8.58813Z" fill="white"/>
</svg>
