<svg width="23" height="17" viewBox="0 0 23 17" fill="none" xmlns="http://www.w3.org/2000/svg">
<path d="M10.6562 1.12965L10.6562 7.32923C10.6562 7.84283 10.2489 8.25917 9.74634 8.25917C9.28568 8.25917 8.90498 7.90933 8.84473 7.45542L8.83642 7.32923L8.83642 5.15841L1.86042 5.15938C1.35789 5.15938 0.95051 4.74303 0.95051 4.22944C0.95051 3.75865 1.29282 3.36957 1.73695 3.30799L1.86042 3.2995L8.83642 3.29854V1.12965C8.83642 0.658854 9.17874 0.269774 9.62287 0.208196L9.74634 0.199707C10.207 0.199707 10.5877 0.549555 10.6479 1.00346L10.6562 1.12965Z" fill="black"/>
<path d="M12.4756 12.9089C12.4756 13.3797 12.1333 13.7688 11.6891 13.8304L11.5657 13.8389L1.85993 13.8389C1.3574 13.8389 0.950017 13.4225 0.950017 12.9089C0.950017 12.4382 1.29233 12.0491 1.73646 11.9875L1.85993 11.979L11.5657 11.979C12.0682 11.979 12.4756 12.3954 12.4756 12.9089Z" fill="black"/>
<path d="M22.1816 4.2295C22.1816 4.70029 21.8393 5.08937 21.3952 5.15095L21.2717 5.15944L13.9924 5.15944C13.4899 5.15944 13.0825 4.74309 13.0825 4.2295C13.0825 3.75871 13.4248 3.36963 13.869 3.30805L13.9924 3.29956L21.2717 3.29956C21.7743 3.29956 22.1816 3.71591 22.1816 4.2295Z" fill="black"/>
<path d="M22.1816 12.9089C22.1816 13.3797 21.8393 13.7688 21.3952 13.8303L21.2717 13.8388L16.7222 13.8379V16.0087C16.7222 16.4795 16.3798 16.8686 15.9357 16.9301L15.8122 16.9386C15.3516 16.9386 14.9709 16.5888 14.9106 16.1349L14.9023 16.0087V9.80909C14.9023 9.2955 15.3097 8.87915 15.8122 8.87915C16.2729 8.87915 16.6536 9.229 16.7139 9.6829L16.7222 9.80909V11.978L21.2717 11.9789C21.7743 11.9789 22.1816 12.3953 22.1816 12.9089Z" fill="black"/>
</svg>
