<svg width="29" height="29" viewBox="0 0 29 29" fill="none" xmlns="http://www.w3.org/2000/svg">
<path fill-rule="evenodd" clip-rule="evenodd" d="M26.0328 20.2189C26.9084 18.4855 27.3636 16.5642 27.3588 14.6166V13.959C27.0058 7.5239 21.9255 2.44363 15.5631 2.09262L14.8311 2.09062C12.8863 2.08554 10.9645 2.54072 9.22548 3.41908C4.9868 5.53749 2.30524 9.87362 2.30341 14.6178C2.29882 16.3757 2.67009 18.1145 3.38987 19.7165L1.05237 26.729C0.708738 27.7599 1.68951 28.7407 2.72042 28.397L9.73291 26.0595C11.3349 26.7793 13.074 27.1506 14.8345 27.146C19.5758 27.1442 23.9119 24.4626 26.0328 20.2189ZM9.40278 23.3889L4.38824 25.0604L6.05975 20.0459C6.17094 19.7123 6.14431 19.3482 5.98579 19.0343C5.29471 17.6661 4.93659 16.154 4.94058 14.6212C4.94204 10.8729 7.05905 7.44964 10.4093 5.77522C11.7825 5.08163 13.2946 4.72351 14.8274 4.7275L15.4902 4.72751C20.4377 5.00246 24.4462 9.01094 24.7231 14.0311L24.7212 14.6212C24.7251 16.154 24.367 17.6661 23.6759 19.0343C21.999 22.3896 18.5758 24.5066 14.8304 24.5081C13.2946 24.5121 11.7825 24.1539 10.4143 23.4629C10.1005 23.3043 9.73634 23.2777 9.40278 23.3889Z" fill="#4D2C5E"/>
<path fill-rule="evenodd" clip-rule="evenodd" d="M24.388 9.60116C26.8961 9.60116 28.9293 7.56795 28.9293 5.05985C28.9293 2.55176 26.8961 0.518555 24.388 0.518555C21.8799 0.518555 19.8467 2.55176 19.8467 5.05985C19.8467 7.56795 21.8799 9.60116 24.388 9.60116Z" fill="#FF5D6D"/>
</svg>
