<svg width="517" height="645" viewBox="0 0 517 645" fill="none" xmlns="http://www.w3.org/2000/svg">
<path d="M257.723 644.092C400.06 644.092 515.446 637.074 515.446 628.416C515.446 619.758 400.06 612.74 257.723 612.74C115.387 612.74 0 619.758 0 628.416C0 637.074 115.387 644.092 257.723 644.092Z" fill="#CED3E6"/>
<path d="M241.655 191.867L267.687 287.063L258.399 276.369C261.833 278.202 265.819 279.607 270.214 280.586C274.609 281.583 279.413 282.152 284.431 282.401C289.449 282.668 294.68 282.615 300.036 282.401C305.392 282.17 310.855 281.778 316.406 281.298H316.442C324.627 280.604 331.834 286.672 332.527 294.857C333.186 302.668 327.652 309.572 320.054 310.818C314.325 311.725 308.506 312.597 302.545 313.291C296.567 313.985 290.446 314.501 284.111 314.643C277.776 314.786 271.211 314.536 264.413 313.558C257.634 312.579 250.606 310.8 243.737 307.846C239.342 305.942 236.21 302.348 234.787 298.131L234.449 297.134L203.221 203.522C199.716 193.006 205.392 181.618 215.926 178.113C226.442 174.607 237.83 180.283 241.335 190.817C241.442 191.138 241.566 191.529 241.655 191.867Z" fill="#EA9B7A"/>
<path d="M251.673 536.957C251.281 536.957 250.89 536.886 250.498 536.743L114.128 487.58C112.349 486.939 111.423 484.964 112.064 483.185C112.705 481.405 114.68 480.462 116.459 481.121L252.829 530.284C254.609 530.925 255.552 532.9 254.894 534.679C254.413 536.085 253.079 536.957 251.673 536.957Z" fill="#C77E2E"/>
<path d="M109.627 536.957C108.221 536.957 106.904 536.085 106.388 534.679C105.748 532.9 106.673 530.925 108.452 530.266L246.442 480.284C248.221 479.644 250.196 480.569 250.855 482.348C251.495 484.128 250.57 486.103 248.791 486.761L110.801 536.743C110.41 536.886 110.018 536.957 109.627 536.957Z" fill="#C77E2E"/>
<path d="M263.808 624.822C260.908 624.822 258.381 622.669 257.972 619.715L233.345 435.782H130.267L106.014 619.715C105.587 622.936 102.633 625.213 99.4127 624.786C96.1921 624.359 93.9145 621.405 94.3415 618.185L119.27 429.163C119.662 426.227 122.153 424.038 125.107 424.038H238.506C241.459 424.038 243.95 426.227 244.342 429.145L269.662 618.167C270.089 621.388 267.83 624.359 264.609 624.786C264.324 624.804 264.075 624.822 263.808 624.822Z" fill="#FAAF3A"/>
<path d="M205.659 429.91H132.011C108.683 429.91 83.7011 417.134 80.1067 394.092C75.3202 363.255 74.1281 333.415 75.4626 306.013C76.9751 275.034 91.7794 246.209 116.121 226.992C116.121 226.992 130.836 291.102 112.331 379.59C119.413 413.184 205.659 429.91 205.659 429.91Z" fill="#FAAF3A"/>
<path d="M190.303 53.9129C190.303 53.9129 181.548 32.8096 158.363 36.7954C142.171 39.5712 135.267 59.7491 136.21 90.9236C137.598 136.28 122.26 163.611 122.26 163.611L142.616 168.237C142.633 168.219 194.466 90.461 190.303 53.9129Z" fill="#39393B"/>
<path d="M376.032 546.014H343.132C343.132 546.014 335.516 509.501 332.972 489.038C330.41 468.558 329.093 420.035 329.093 420.035C329.093 420.035 302.883 428.558 248.007 425.337C126.423 418.237 172.527 328.913 172.527 328.913C176.637 334.59 201.797 330.657 219.004 333.362C271.797 338.433 317.563 359.145 345.036 370.995C351.655 373.842 357.527 376.867 362.687 380.052C369.306 384.127 373.452 396.529 375.961 412.81C383.452 461.761 376.032 546.014 376.032 546.014Z" fill="#39393B"/>
<path d="M347.225 528.416C346.673 528.416 346.193 528.024 346.068 527.473C341.317 503.985 339.734 474.75 338.452 451.263C337.385 431.778 336.388 413.38 333.879 411.173C331.851 409.376 323.435 410.782 312.794 412.544C291.602 416.067 259.573 421.369 224.271 413.166C205.036 408.682 190.89 399.341 182.242 385.39C167.313 361.333 174.128 331.493 174.199 331.191C174.342 330.55 174.982 330.159 175.623 330.319C176.263 330.461 176.655 331.102 176.495 331.743C176.423 332.027 169.858 360.942 184.27 384.163C192.58 397.561 206.228 406.547 224.822 410.871C259.68 418.985 291.424 413.718 312.438 410.23C325.018 408.149 332.616 406.885 335.481 409.412C338.577 412.152 339.449 425.604 340.837 451.138C342.118 474.554 343.702 503.683 348.417 527.01C348.541 527.651 348.132 528.273 347.492 528.398C347.367 528.416 347.296 528.416 347.225 528.416Z" fill="#585859"/>
<path d="M376.655 529.038H376.637L340.054 528.255C339.395 528.238 338.879 527.704 338.897 527.045C338.915 526.387 339.449 525.871 340.107 525.889L376.691 526.672C377.349 526.69 377.865 527.223 377.847 527.882C377.829 528.522 377.296 529.038 376.655 529.038Z" fill="#585859"/>
<path d="M375.125 588.149H351.904L347.438 560.925L344.982 546.014H373.826L374.289 560.925L375.125 588.149Z" fill="#EA9B7A"/>
<path d="M375.125 588.149H351.904L348.577 567.882L347.438 560.925H374.289L374.52 568.131L375.125 588.149Z" fill="#FAAF3A"/>
<path d="M374.52 568.131L348.577 567.882L347.438 560.925H374.289L374.52 568.131Z" fill="#C77E2E"/>
<path d="M432.42 624.822H344.609C343.95 623.629 343.595 621.957 343.452 619.946C342.901 612.508 345.267 600.658 346.424 593.185C346.566 592.313 346.691 591.494 346.78 590.765C346.94 589.519 347.047 588.469 347.047 587.704C347.047 581.601 352.438 582.651 352.438 582.651C361.317 591.37 371.388 578.291 377.26 582.58C377.26 582.58 377.491 582.757 378.043 583.167C378.541 583.558 379.289 584.163 380.321 585.035C381.815 586.281 383.915 588.096 386.762 590.658C393.737 596.939 405.588 601.067 415.677 605.284C416.958 605.818 418.15 606.37 419.271 606.903C420.107 607.313 420.908 607.722 421.655 608.113C429.912 612.562 432.527 616.832 433.132 619.928C433.719 622.918 432.42 624.822 432.42 624.822Z" fill="#0875F7"/>
<path d="M421.673 608.131C419.413 609.928 414.378 613.54 410.338 613.54C410.16 613.54 409.983 613.54 409.805 613.523C406.958 613.291 396.495 608.149 387.972 603.469C383.096 600.782 378.63 598.149 375.427 596.031C370.178 592.562 369.253 591.245 369.057 590.32C368.292 586.85 374.022 584.448 378.043 583.184C378.541 583.576 379.289 584.181 380.321 585.053C375.338 586.405 371.228 588.54 371.424 589.768C371.922 590.8 377.118 594.75 389.538 601.565C399.022 606.761 408.007 610.943 410 611.12C412.705 611.334 416.673 608.878 419.271 606.939C420.125 607.33 420.926 607.74 421.673 608.131Z" fill="#084FC7"/>
<path d="M432.42 624.822H344.609C343.95 623.629 343.594 621.957 343.452 619.946H433.15C433.719 622.918 432.42 624.822 432.42 624.822Z" fill="#084FC7"/>
<path d="M353.559 624.822H350.943C353.541 621.85 355.979 617.277 355.658 610.765C355.231 602.081 350.036 596.245 346.406 593.184C346.548 592.313 346.673 591.494 346.762 590.764C350.658 593.736 357.224 600.266 357.74 610.658C358.078 616.886 356.032 621.53 353.559 624.822Z" fill="#084FC7"/>
<path d="M385.285 595.854C384.644 595.854 384.039 595.409 383.879 594.75C383.683 593.967 384.164 593.184 384.929 592.989L390.41 591.619C391.192 591.423 391.975 591.903 392.171 592.668C392.367 593.451 391.886 594.234 391.121 594.43L385.641 595.8C385.516 595.836 385.392 595.854 385.285 595.854Z" fill="white"/>
<path d="M379.84 591.299C379.2 591.299 378.595 590.854 378.434 590.195C378.239 589.412 378.719 588.63 379.484 588.434L384.965 587.064C385.748 586.868 386.531 587.348 386.726 588.114C386.922 588.896 386.442 589.679 385.676 589.857L380.196 591.227C380.071 591.281 379.947 591.299 379.84 591.299Z" fill="white"/>
<path d="M390.765 599.039C390.125 599.039 389.52 598.594 389.36 597.936C389.164 597.153 389.644 596.37 390.409 596.192L395.89 594.822C396.673 594.626 397.456 595.106 397.651 595.871C397.847 596.654 397.367 597.437 396.602 597.633L391.121 599.003C390.997 599.039 390.89 599.039 390.765 599.039Z" fill="white"/>
<path d="M396.246 602.117C395.587 602.117 395 601.672 394.84 601.014C394.644 600.231 395.125 599.448 395.89 599.252L401.37 597.882C402.153 597.686 402.936 598.167 403.132 598.932C403.328 599.715 402.847 600.498 402.082 600.676L396.602 602.046C396.495 602.099 396.37 602.117 396.246 602.117Z" fill="white"/>
<path d="M402.242 604.946C401.602 604.946 400.997 604.501 400.837 603.843C400.641 603.06 401.121 602.277 401.887 602.099L407.367 600.729C408.15 600.533 408.933 601.014 409.129 601.779C409.324 602.562 408.844 603.345 408.079 603.54L402.598 604.911C402.474 604.928 402.349 604.946 402.242 604.946Z" fill="white"/>
<path d="M408.719 607.366C408.079 607.366 407.474 606.921 407.314 606.263C407.118 605.48 407.598 604.697 408.364 604.501L413.844 603.131C414.627 602.935 415.41 603.416 415.606 604.181C415.801 604.964 415.321 605.747 414.556 605.925L409.075 607.295C408.951 607.348 408.844 607.366 408.719 607.366Z" fill="white"/>
<path d="M111.637 300.586C111.637 300.586 110.605 307.685 120.107 309.678L219.182 312.988C219.182 312.988 225.872 309.625 224.662 301.333C224.662 301.315 182.829 277.81 111.637 300.586Z" fill="#084FC7"/>
<path d="M220.534 333.344C169.11 361.636 112.954 338.86 112.954 338.86C115.694 331.369 117.74 322.917 119.217 315.23C120.925 306.28 121.886 298.38 122.331 294.234C144.199 293.041 197.829 290.746 218.844 295.728L219.004 304.145L220.534 333.344Z" fill="#EA9B7A"/>
<path d="M182.544 319.786C182.171 322.437 180.961 324.465 179.875 324.305C178.772 324.145 178.203 321.867 178.576 319.216C178.95 316.565 180.16 314.536 181.245 314.697C182.349 314.857 182.918 317.134 182.544 319.786Z" fill="#D96C63"/>
<path d="M218.986 304.145C197.082 302.81 154.004 302.348 119.199 315.213C120.907 306.262 121.868 298.362 122.313 294.216C144.181 293.024 197.812 290.728 218.826 295.711L218.986 304.145Z" fill="#D96C63"/>
<path d="M243.417 263.451C243.203 264.091 242.954 264.678 242.669 265.23C242.563 265.443 242.456 265.657 242.349 265.853C239.591 270.959 235.338 275.39 231.762 278.54C231.015 279.198 230.303 279.785 229.644 280.319C228.328 281.387 227.207 282.223 226.442 282.774C225.73 283.273 225.321 283.54 225.321 283.54C225.321 283.593 225.321 283.629 225.303 283.7C225.267 284.073 225.232 284.483 225.196 284.91C225.071 286.529 224.965 288.451 224.894 290.657C224.822 292.419 224.769 294.358 224.733 296.458C224.716 298.006 224.68 299.625 224.662 301.298C195.605 288.308 135.747 296.511 111.637 300.568C112.082 298.486 112.473 296.44 112.847 294.447C114.555 285.248 115.516 276.974 115.89 269.554C116.459 258.522 115.498 241.938 113.149 224.803C113.007 223.682 112.847 222.579 112.687 221.475C112.58 220.746 112.473 220.034 112.349 219.305C111.53 213.931 110.569 208.539 109.484 203.308C104.733 180.497 108.06 156.564 131.192 153.735C132.865 153.521 134.52 153.344 136.139 153.166C147.029 152.009 155.997 151.6 158.488 151.511C158.95 151.493 159.182 151.493 159.182 151.493L203.879 164.482L208.132 165.71C210.57 166.493 212.829 167.258 214.929 168.005C215.819 168.326 216.691 168.646 217.509 168.949C219.68 169.767 221.637 170.55 223.434 171.351C227.011 172.934 229.84 174.482 232.082 176.066C241.886 183.023 240.374 190.888 240.125 206.422C240.125 206.493 240.125 206.564 240.125 206.635C240.125 206.831 240.125 207.027 240.125 207.24C240.125 207.329 240.125 207.418 240.125 207.507C240.125 208.148 240.125 208.771 240.125 209.411C240.143 211.422 240.214 213.415 240.338 215.408C240.499 218.344 240.765 221.262 241.086 224.109C241.21 225.248 241.335 226.386 241.477 227.525C241.602 228.593 241.744 229.643 241.886 230.692C243.63 244.287 245.854 256.209 243.417 263.451Z" fill="#0875F7"/>
<path d="M240.107 206.635C240.107 206.831 240.107 207.027 240.107 207.24C240.107 207.329 240.107 207.418 240.107 207.507C240.107 208.148 240.107 208.771 240.107 209.411L230.712 215.301C230.427 215.479 230.107 215.532 229.787 215.479C229.431 215.425 229.111 215.212 228.897 214.892C228.506 214.269 228.701 213.468 229.306 213.077L239.271 206.831C239.52 206.671 239.822 206.618 240.107 206.635Z" fill="#084FC7"/>
<path d="M178.185 256.956C177.829 256.956 177.473 256.813 177.206 256.529C176.726 255.995 176.762 255.159 177.295 254.678L186.032 246.813C186.566 246.333 187.402 246.369 187.883 246.902C188.363 247.436 188.327 248.273 187.794 248.753L179.057 256.618C178.808 256.831 178.488 256.956 178.185 256.956Z" fill="#084FC7"/>
<path d="M241.851 230.692L235.872 236.084C235.623 236.315 235.303 236.422 235 236.422C234.644 236.422 234.288 236.28 234.021 235.995C233.541 235.461 233.577 234.625 234.11 234.144L241.441 227.543C241.566 228.593 241.708 229.643 241.851 230.692Z" fill="#084FC7"/>
<path d="M160.463 225.319C160.267 225.016 160.178 224.642 160.267 224.269C160.427 223.557 161.139 223.13 161.851 223.29L173.292 225.995C174.004 226.155 174.431 226.867 174.271 227.578C174.11 228.29 173.399 228.717 172.687 228.557L161.246 225.852C160.908 225.781 160.641 225.585 160.463 225.319Z" fill="#084FC7"/>
<path d="M119.626 247.774C119.27 247.774 118.914 247.632 118.647 247.347C118.167 246.814 118.203 245.977 118.736 245.497L127.473 237.632C128.007 237.152 128.843 237.187 129.324 237.721C129.804 238.255 129.768 239.091 129.235 239.572L120.498 247.436C120.249 247.668 119.946 247.774 119.626 247.774Z" fill="#084FC7"/>
<path d="M221.335 245.906C221.442 245.568 221.708 245.265 222.047 245.123C222.705 244.838 223.488 245.141 223.773 245.799L228.47 256.582C228.755 257.241 228.452 258.023 227.794 258.308C227.136 258.593 226.353 258.29 226.068 257.632L221.37 246.849C221.246 246.529 221.246 246.191 221.335 245.906Z" fill="#084FC7"/>
<path d="M243.417 263.451C243.203 264.091 242.954 264.678 242.669 265.23C242.563 265.443 242.456 265.657 242.349 265.853L235.961 263.842C235.641 263.735 235.392 263.522 235.232 263.255C235.054 262.952 234.983 262.561 235.107 262.205C235.321 261.511 236.068 261.137 236.744 261.351L243.417 263.451Z" fill="#084FC7"/>
<path d="M207.331 264.394C207.687 264.358 208.06 264.465 208.345 264.732C208.879 265.212 208.914 266.048 208.434 266.582L200.534 275.283C200.053 275.817 199.217 275.853 198.683 275.372C198.149 274.892 198.114 274.056 198.594 273.522L206.495 264.821C206.726 264.572 207.028 264.429 207.331 264.394Z" fill="#084FC7"/>
<path d="M202.687 244.322C202.331 244.269 202.011 244.055 201.797 243.735C201.406 243.13 201.601 242.312 202.206 241.92L212.171 235.675C212.776 235.283 213.594 235.479 213.986 236.084C214.377 236.689 214.182 237.507 213.577 237.899L203.612 244.144C203.327 244.322 202.989 244.376 202.687 244.322Z" fill="#084FC7"/>
<path d="M209.039 206.458C209.271 206.724 209.413 207.08 209.36 207.472C209.288 208.184 208.63 208.717 207.918 208.628L196.228 207.347C195.516 207.276 194.982 206.618 195.071 205.906C195.142 205.194 195.801 204.66 196.513 204.749L208.203 206.031C208.523 206.066 208.826 206.226 209.039 206.458Z" fill="#084FC7"/>
<path d="M192.046 181.102C192.135 180.746 192.367 180.443 192.705 180.265C193.345 179.927 194.146 180.159 194.484 180.799L200.054 191.155C200.392 191.796 200.16 192.596 199.52 192.934C198.879 193.272 198.078 193.041 197.74 192.401L192.171 182.045C191.993 181.742 191.957 181.404 192.046 181.102Z" fill="#084FC7"/>
<path d="M231.78 278.557C231.032 279.216 230.321 279.803 229.662 280.337L228.132 276.422C228.007 276.102 228.007 275.782 228.132 275.479C228.257 275.141 228.523 274.856 228.879 274.714C229.555 274.447 230.321 274.785 230.588 275.461L231.78 278.557Z" fill="#084FC7"/>
<path d="M124.306 258.629C124.128 258.308 124.092 257.935 124.235 257.561C124.484 256.885 125.231 256.529 125.907 256.778L136.975 260.764C137.651 261.013 138.007 261.76 137.758 262.436C137.509 263.113 136.762 263.468 136.085 263.219L125.018 259.234C124.697 259.145 124.448 258.913 124.306 258.629Z" fill="#084FC7"/>
<path d="M129.715 273.593C130.071 273.593 130.427 273.753 130.694 274.038C131.175 274.572 131.121 275.408 130.587 275.888L121.779 283.682C121.246 284.162 120.409 284.109 119.929 283.575C119.449 283.041 119.502 282.205 120.036 281.725L128.844 273.931C129.093 273.7 129.413 273.593 129.715 273.593Z" fill="#084FC7"/>
<path d="M145.676 285.96C145.89 286.244 146.014 286.618 145.943 286.992C145.819 287.703 145.142 288.184 144.431 288.059L132.847 286.084C132.135 285.959 131.655 285.283 131.779 284.572C131.904 283.86 132.58 283.379 133.292 283.504L144.876 285.479C145.196 285.532 145.481 285.71 145.676 285.96Z" fill="#084FC7"/>
<path d="M155.374 175.888C155.285 175.55 155.32 175.159 155.534 174.838C155.925 174.233 156.744 174.055 157.349 174.447L167.224 180.817C167.829 181.208 168.007 182.027 167.616 182.632C167.224 183.237 166.406 183.415 165.801 183.023L155.925 176.653C155.64 176.457 155.445 176.191 155.374 175.888Z" fill="#084FC7"/>
<path d="M222.776 183.397C223.096 183.219 223.47 183.183 223.843 183.308C224.52 183.557 224.876 184.304 224.644 184.981L220.712 196.066C220.463 196.742 219.715 197.098 219.039 196.867C218.363 196.618 218.007 195.87 218.239 195.194L222.171 184.109C222.278 183.806 222.509 183.557 222.776 183.397Z" fill="#084FC7"/>
<path d="M217.491 168.966L211.424 176.76C210.979 177.329 210.16 177.436 209.591 176.991C209.022 176.546 208.915 175.728 209.36 175.159L214.911 168.041C215.801 168.326 216.673 168.646 217.491 168.966Z" fill="#084FC7"/>
<path d="M158.114 276.493C158.239 276.867 158.559 277.134 158.915 277.205C159.093 277.241 159.288 277.241 159.466 277.169C159.662 277.098 178.683 270.942 198.684 279.234C208.844 283.451 217.883 285.052 225.196 284.91C225.232 284.483 225.267 284.091 225.303 283.7C225.303 283.646 225.321 283.593 225.321 283.557C225.321 283.557 225.73 283.29 226.442 282.792C219.253 283.148 210.054 281.618 199.502 277.258C178.737 268.646 159.591 274.874 158.79 275.141C158.239 275.337 157.936 275.942 158.114 276.493Z" fill="#084FC7"/>
<path d="M203.861 164.482C201.352 168.361 196.192 172.756 185.729 172.009C171.299 170.959 161.797 157.187 158.487 151.529C158.932 151.511 159.181 151.511 159.181 151.511L203.861 164.482Z" fill="#084FC7"/>
<path d="M188.523 190.034C188.95 190.123 189.377 190.176 189.804 190.212C193.79 190.532 197.029 189.376 199.413 186.778C206.353 179.198 203.506 161.902 203.381 161.173C203.274 160.586 202.723 160.194 202.153 160.301C201.566 160.408 201.175 160.959 201.281 161.529C201.317 161.707 204.075 178.522 197.847 185.337C195.908 187.454 193.328 188.361 190 188.095C176.014 186.974 160.338 151.44 160.178 151.084C159.947 150.55 159.306 150.301 158.772 150.532C158.239 150.763 157.989 151.404 158.221 151.938C158.826 153.415 173.701 187.027 188.523 190.034Z" fill="white"/>
<path d="M232.082 176.066C231.157 186.315 233.683 203.237 240.303 215.408C240.142 212.792 240.071 210.141 240.107 207.507C240.107 207.418 240.107 207.329 240.107 207.241C240.107 206.974 240.125 206.707 240.125 206.44C240.356 190.906 241.868 183.023 232.082 176.066Z" fill="#EA9B7A"/>
<path d="M149.857 194.109C144.733 213.895 125.978 229.767 113.167 224.821C113.007 223.717 112.864 222.596 112.704 221.493C112.598 220.764 112.491 220.052 112.366 219.322C111.548 213.949 110.587 208.557 109.501 203.326C104.751 180.514 108.096 156.582 131.21 153.753C132.882 153.539 134.537 153.361 136.156 153.183C147.704 158.112 155.765 171.333 149.857 194.109Z" fill="#EA9B7A"/>
<path d="M152.491 179.02L182.527 288.878L171.815 276.529C175.783 278.628 180.374 280.266 185.463 281.404C190.534 282.543 196.085 283.201 201.868 283.504C207.669 283.806 213.701 283.753 219.876 283.504C226.05 283.255 232.367 282.792 238.772 282.241H238.808C248.256 281.44 256.566 288.433 257.367 297.881C258.132 306.885 251.744 314.874 242.954 316.298C236.353 317.347 229.627 318.344 222.74 319.145C215.854 319.945 208.79 320.533 201.459 320.71C194.146 320.871 186.566 320.604 178.737 319.465C170.925 318.326 162.811 316.298 154.875 312.863C149.804 310.675 146.192 306.511 144.555 301.653L144.181 300.515L108.132 192.472C104.075 180.336 110.64 167.205 122.776 163.148C134.911 159.091 148.043 165.657 152.1 177.792C152.26 178.183 152.384 178.646 152.491 179.02Z" fill="#EA9B7A"/>
<path d="M165.943 285.372C165.64 285.372 165.338 285.212 165.178 284.928C164.929 284.5 165.089 283.967 165.516 283.718C165.8 283.557 172.366 279.856 179.235 279.323C179.733 279.287 180.16 279.643 180.196 280.141C180.231 280.639 179.875 281.066 179.377 281.102C172.918 281.6 166.459 285.23 166.405 285.266C166.245 285.337 166.085 285.372 165.943 285.372Z" fill="#D96C63"/>
<path d="M176.868 281.404C176.708 281.404 176.548 281.369 176.406 281.28C172.26 278.771 167.242 278.379 167.189 278.379C166.69 278.344 166.335 277.917 166.37 277.436C166.406 276.938 166.815 276.582 167.313 276.618C167.527 276.636 172.811 277.027 177.313 279.767C177.74 280.016 177.865 280.568 177.616 280.995C177.456 281.244 177.153 281.404 176.868 281.404Z" fill="#D96C63"/>
<path d="M203.648 223.504C216.94 226.191 222.758 212.454 222.812 212.312C223.043 211.76 222.776 211.137 222.224 210.924C221.673 210.693 221.05 210.959 220.836 211.511C220.623 212.027 215.605 223.753 204.075 221.422C191.957 218.967 169.359 195.141 169.146 194.892C168.737 194.465 168.061 194.447 167.633 194.856C167.206 195.265 167.189 195.942 167.598 196.369C168.523 197.347 190.89 220.906 203.648 223.504Z" fill="#084FC7"/>
<path d="M182.758 136.973C182.758 136.973 161.424 132.952 155.409 111.422C149.68 90.9235 154.093 80.2829 160.054 69.2153C164.538 60.8701 178.772 49.6067 198.719 53.6459C218.861 57.7206 233.933 68.0765 236.157 84.6424C240.303 115.639 215.303 153.45 182.758 136.973Z" fill="#39393B"/>
<path d="M156.406 114.749C156.014 114.749 155.64 114.553 155.445 114.18C155.053 113.504 146.085 97.3647 153.541 76.1191C158.203 62.845 167.367 56.9198 174.253 54.2685C181.69 51.4037 187.936 51.6884 188.203 51.6884C188.808 51.724 189.288 52.24 189.253 52.8628C189.217 53.4678 188.719 53.9482 188.096 53.9126C188.043 53.9126 181.975 53.6635 174.964 56.3681C165.641 59.9802 159.146 66.8664 155.64 76.8486C148.541 97.0978 157.295 112.916 157.384 113.076C157.687 113.61 157.509 114.286 156.975 114.589C156.779 114.696 156.601 114.749 156.406 114.749Z" fill="#FAAF3A"/>
<path d="M224.129 115.087C224.129 115.087 231.068 109.607 232.901 116.867C234.734 124.127 229.573 137.027 221.495 133.112L224.129 115.087Z" fill="#D96C63"/>
<path d="M217.349 128.433C213.897 129.571 210.855 132.632 210.072 136.422C208.933 142.08 212.598 147.596 218.239 148.753C223.897 149.892 229.413 146.226 230.57 140.586C231.424 136.351 229.591 132.187 226.228 129.892C225.107 129.109 223.808 128.557 222.385 128.272C222.349 128.272 222.314 128.255 222.278 128.255C222.082 128.966 222.154 129.536 222.563 129.981C223.702 130.283 224.734 130.799 225.641 131.475C228.257 133.468 229.662 136.831 228.969 140.265C228.008 145.034 223.328 148.13 218.559 147.169C213.791 146.208 210.694 141.529 211.655 136.76C212.367 133.29 214.929 130.835 218.15 130.052L217.349 128.433Z" fill="#FAAF3A"/>
<path d="M203.096 146.208L200.196 164.394C200.196 164.394 186.584 178.29 161.726 153.362C168.399 148.397 170.943 136.867 170.16 129.429C170.16 129.429 172.118 130.603 175.142 133.344C175.73 133.878 176.495 134.287 177.224 134.803C183.79 139.251 193.861 145.07 203.096 146.208Z" fill="#EA9B7A"/>
<path d="M203.096 146.208L201.726 154.821C194.271 151.493 181.086 144.393 175.143 133.326C175.783 133.788 176.495 134.269 177.224 134.785C183.79 139.251 193.862 145.07 203.096 146.208Z" fill="#39393B"/>
<path d="M230.854 110.71C230.463 112.632 230.107 114.465 229.733 116.208C229.342 118.095 228.968 119.874 228.595 121.547C225.837 134.127 223.577 140.87 219.911 143.397C201.353 156.155 171.157 130.319 170.178 129.483C170.16 129.465 170.16 129.465 170.16 129.465C170.143 127.988 170.143 126.511 170.16 125.07C170.392 112.828 172.473 101.831 175.783 91.671C177.438 80.5678 186.05 71.671 197.135 69.9984C208.63 68.2724 217.278 74.9272 222.687 77.8632C230.854 82.3116 234.057 94.6782 230.854 110.71Z" fill="#EA9B7A"/>
<path d="M176.423 80.2474C176.423 80.2474 189.413 55.2652 215.32 62.2403C241.228 69.2154 242.598 81.2439 243.061 87.2581C243.523 93.2724 229.644 82.614 229.644 82.614C229.644 82.614 229.164 94.6425 224.537 90.9414C218.861 86.3862 212.527 76.5819 212.527 76.5819C212.527 76.5819 197.1 91.7421 182.438 87.6496C174.092 85.3364 176.423 80.2474 176.423 80.2474Z" fill="#39393B"/>
<path d="M208.239 135.212C204.876 135.212 202.562 132.881 202.456 132.757C202.1 132.383 202.1 131.796 202.473 131.44C202.847 131.084 203.416 131.084 203.772 131.458C203.897 131.582 206.566 134.233 210.089 133.023C210.57 132.863 211.103 133.112 211.263 133.593C211.424 134.073 211.175 134.607 210.694 134.767C209.84 135.088 209.021 135.212 208.239 135.212Z" fill="#D96C63"/>
<path d="M200.498 120.088C200.498 120.088 212.989 123.789 219.466 123.789C219.466 123.789 216.228 133.041 206.975 129.803C199.769 127.276 200.498 120.088 200.498 120.088Z" fill="white"/>
<path d="M223.683 94.0732C223.683 94.0732 220.445 93.7351 220.961 96.8846C221.495 100.034 228.523 98.1123 232.011 104.411C232.011 104.411 235.374 97.8098 223.683 94.0732Z" fill="#39393B"/>
<path d="M209.253 91.1548C209.253 91.1548 212.367 92.1157 210.659 94.8025C208.951 97.4894 203.221 92.9876 197.563 97.436C197.563 97.436 197.047 90.0516 209.253 91.1548Z" fill="#39393B"/>
<path d="M203.63 113.699C203.328 115.176 200.036 115.764 196.246 114.998C192.474 114.233 189.662 112.418 189.965 110.924C190.267 109.447 193.559 108.86 197.349 109.625C201.121 110.39 203.933 112.223 203.63 113.699Z" fill="#D96C63"/>
<path d="M240.498 114.678L230.409 112.952C230.356 113.379 230.249 113.806 230.16 114.216C230.142 114.287 230.124 114.358 230.089 114.429L240.249 116.155C240.658 116.226 241.05 115.942 241.121 115.532C241.192 115.141 240.925 114.749 240.498 114.678Z" fill="white"/>
<path d="M213.559 106.066C213.559 105.55 213.541 105.034 213.47 104.536C213.132 101.795 211.922 99.2687 210.071 97.3114C208.363 95.5143 206.139 94.1975 203.559 93.6281C203.523 93.6103 203.47 93.6103 203.434 93.5925C197.527 92.3826 191.708 95.4787 189.306 100.746C189.092 101.208 188.914 101.671 188.754 102.151C188.612 102.578 188.505 103.023 188.398 103.468C187.722 106.778 188.381 110.052 190.035 112.721C190.605 113.628 191.281 114.464 192.046 115.194C193.719 116.813 195.836 117.988 198.274 118.486C202.384 119.34 206.423 118.094 209.324 115.497C211.281 113.753 212.722 111.368 213.292 108.61C213.292 108.593 213.292 108.593 213.292 108.575C213.47 107.738 213.559 106.902 213.559 106.066ZM198.594 117.009C198.523 116.991 198.47 116.991 198.416 116.973C195.231 116.262 192.651 114.233 191.139 111.582C189.84 109.287 189.324 106.546 189.893 103.771C190.018 103.201 190.178 102.65 190.374 102.116C190.391 102.08 190.409 102.045 190.409 102.009C191.993 97.8986 195.854 95.105 200.196 94.8559C201.157 94.8025 202.135 94.8559 203.132 95.0694C205.267 95.5143 207.117 96.5285 208.594 97.9342C211.299 100.514 212.651 104.393 211.851 108.308C210.569 114.358 204.644 118.272 198.594 117.009Z" fill="white"/>
<path d="M236.174 100.87C235.836 100.692 235.48 100.532 235.107 100.372C234.68 100.194 234.235 100.052 233.79 99.9094C233.47 99.8204 233.167 99.7315 232.829 99.6781C232.224 99.5535 231.637 99.4824 231.05 99.4468C230.338 99.3934 229.626 99.4112 228.932 99.5002C226.993 99.7137 225.16 100.354 223.541 101.368C221.762 102.472 220.249 104.02 219.217 105.888C218.932 106.368 218.701 106.867 218.488 107.365C218.47 107.401 218.47 107.418 218.452 107.454C218.185 108.13 217.972 108.842 217.811 109.571C216.797 114.482 218.772 119.322 222.491 122.205C223.701 123.148 225.089 123.877 226.619 124.322C226.851 124.393 227.082 124.465 227.331 124.5C227.456 124.536 227.562 124.554 227.687 124.589C228.915 124.838 230.142 124.909 231.335 124.803C231.53 124.785 231.726 124.767 231.904 124.749C232.42 124.678 232.936 124.589 233.452 124.447C234.395 124.198 235.32 123.842 236.174 123.397C239.431 121.689 241.922 118.593 242.722 114.714C243.879 109.02 241.05 103.433 236.174 100.87ZM241.228 114.393C241.174 114.643 241.121 114.874 241.05 115.105C240.961 115.443 240.854 115.764 240.73 116.102C239.84 118.468 238.203 120.39 236.139 121.653C235.392 122.116 234.573 122.49 233.719 122.774C233.185 122.952 232.651 123.077 232.082 123.166C231.922 123.201 231.762 123.219 231.601 123.237C230.427 123.379 229.199 123.344 227.972 123.095C227.865 123.077 227.74 123.041 227.633 123.023C227.562 123.006 227.491 122.988 227.438 122.97C225.641 122.507 224.039 121.618 222.74 120.425C222.545 120.248 222.367 120.07 222.189 119.892C219.715 117.329 218.505 113.61 219.27 109.856C219.448 109.02 219.715 108.201 220.053 107.454C221.174 104.998 223.132 103.094 225.498 101.973C226.957 101.28 228.577 100.906 230.249 100.906C230.516 100.906 230.783 100.924 231.068 100.941C231.548 100.977 232.029 101.048 232.509 101.137C232.865 101.208 233.203 101.297 233.541 101.404C234.004 101.546 234.448 101.724 234.893 101.92C235.231 102.08 235.569 102.258 235.908 102.436C239.947 104.803 242.224 109.554 241.228 114.393Z" fill="white"/>
<path d="M173.221 103.041C173.132 103.023 173.043 102.987 172.971 102.934C172.616 102.703 172.527 102.24 172.74 101.902C177.794 94.0017 189.947 101.101 190.053 101.173C190.409 101.386 190.534 101.849 190.32 102.205C190.107 102.56 189.644 102.685 189.288 102.471C189.181 102.4 178.274 96.048 174.004 102.721C173.843 102.97 173.523 103.094 173.221 103.041Z" fill="white"/>
<path d="M219.022 107.792C218.826 107.756 218.666 107.632 218.541 107.472C216.922 104.981 213.47 106.102 213.435 106.102C213.043 106.226 212.616 106.013 212.492 105.621C212.367 105.23 212.58 104.803 212.972 104.678C214.556 104.144 218.025 103.877 219.823 106.653C220.054 107.009 219.947 107.472 219.591 107.685C219.413 107.792 219.218 107.828 219.022 107.792Z" fill="white"/>
<g opacity="0.8">
<g opacity="0.8">
<g opacity="0.8">
<g opacity="0.8">
<g opacity="0.8">
<g opacity="0.8">
<g opacity="0.8">
<path opacity="0.8" d="M229.734 116.208C229.342 118.094 228.968 119.874 228.595 121.546C225.161 120.71 222.687 119.02 222.972 117.614C223.274 116.226 226.228 115.621 229.734 116.208Z" fill="#D96C63"/>
</g>
</g>
</g>
</g>
</g>
</g>
</g>
<path d="M206.281 106.244C205.872 108.29 204.609 109.749 203.47 109.518C202.331 109.287 201.744 107.454 202.153 105.408C202.562 103.361 203.826 101.902 204.965 102.134C206.103 102.365 206.691 104.198 206.281 106.244Z" fill="#39393B"/>
<path d="M226.459 110.336C226.05 112.383 224.787 113.842 223.648 113.61C222.509 113.379 221.922 111.546 222.331 109.5C222.741 107.454 224.004 105.995 225.143 106.226C226.282 106.457 226.869 108.29 226.459 110.336Z" fill="#39393B"/>
<path d="M216.032 115.817C217.011 116.012 217.705 115.977 217.758 115.977C217.989 115.959 218.221 115.852 218.381 115.674C218.541 115.496 218.594 115.247 218.577 115.016L217.278 105.496C217.206 105.034 216.779 104.696 216.317 104.767C215.854 104.838 215.516 105.265 215.587 105.728L216.744 114.215C215.89 114.091 214.609 113.735 213.452 112.774C213.096 112.471 212.545 112.525 212.242 112.881C211.94 113.237 211.993 113.788 212.349 114.091C213.612 115.123 214.982 115.603 216.032 115.817Z" fill="#39393B"/>
<path d="M178.506 122.543C178.363 122.757 174.413 128.433 170.196 129.465C170.178 129.447 170.178 129.447 170.178 129.447C170.143 127.97 170.16 126.493 170.178 125.052C170.321 125.07 174.342 125.176 178.506 122.543Z" fill="#39393B"/>
<path d="M177.634 107.632C177.634 107.632 171.691 95.0338 163.986 102.418C157.634 108.521 163.185 128.877 174.217 124.518L177.634 107.632Z" fill="#EA9B7A"/>
<path d="M163.025 118.504C159.573 119.642 156.53 122.703 155.747 126.493C154.609 132.151 158.274 137.667 163.915 138.824C169.573 139.963 175.089 136.297 176.246 130.657C177.1 126.422 175.267 122.258 171.904 119.963C170.783 119.18 169.484 118.628 168.061 118.344C168.025 118.344 167.989 118.326 167.954 118.326C167.758 119.037 167.847 119.607 168.239 120.052C169.377 120.354 170.409 120.87 171.317 121.546C173.933 123.539 175.338 126.902 174.644 130.336C173.683 135.105 169.004 138.201 164.235 137.24C159.466 136.28 156.37 131.6 157.331 126.831C158.025 123.361 160.605 120.906 163.826 120.123L163.025 118.504Z" fill="#FAAF3A"/>
<path d="M173.754 121.013C173.79 121.013 173.808 121.031 173.843 121.031C174.306 121.066 174.733 120.728 174.769 120.248C175.641 110.728 168.452 105.906 168.149 105.71C167.758 105.443 167.224 105.568 166.957 105.959C166.69 106.351 166.815 106.885 167.206 107.152C167.473 107.329 173.843 111.636 173.061 120.105C173.043 120.532 173.345 120.924 173.754 121.013Z" fill="#39393B"/>
<path d="M166.958 114.34C167.136 114.376 167.349 114.358 167.527 114.251C168.381 113.806 170.89 112.81 172.26 113.468C172.687 113.682 173.203 113.504 173.399 113.077C173.612 112.65 173.434 112.134 173.007 111.938C170.623 110.781 167.136 112.543 166.744 112.739C166.317 112.952 166.157 113.468 166.388 113.895C166.495 114.127 166.726 114.287 166.958 114.34Z" fill="#39393B"/>
<path d="M185.285 86.2617C185.285 86.2617 177.296 107.952 176.869 112.329C176.281 118.29 168.399 97.8631 176.317 80.4254L185.285 86.2617Z" fill="#39393B"/>
<path d="M318.773 546.121H285.872C285.872 546.121 278.257 509.608 275.712 489.145C273.15 468.665 271.833 420.142 271.833 420.142C271.833 420.142 245.623 428.665 190.747 425.444C69.1635 418.344 115.267 329.02 115.267 329.02C119.377 334.696 150.196 342.508 167.384 345.23C220.178 350.302 260.303 359.27 287.776 371.12C294.395 373.967 300.267 376.992 305.427 380.177C312.047 384.252 316.193 396.654 318.702 412.935C326.193 461.885 318.773 546.121 318.773 546.121Z" fill="#39393B"/>
<path d="M289.947 528.541C289.395 528.541 288.915 528.149 288.79 527.598C284.039 504.11 282.456 474.875 281.175 451.387C280.107 431.903 279.111 413.505 276.602 411.298C274.573 409.501 266.157 410.907 255.516 412.668C234.324 416.192 202.295 421.494 166.993 413.291C147.758 408.807 133.612 399.466 124.964 385.515C110.035 361.458 116.85 331.618 116.921 331.316C117.064 330.675 117.704 330.284 118.345 330.444C118.986 330.586 119.377 331.227 119.217 331.867C119.146 332.152 112.58 361.067 126.993 384.288C135.302 397.686 148.95 406.672 167.544 410.996C202.402 419.11 234.146 413.843 255.16 410.355C267.74 408.273 275.338 407.01 278.203 409.537C281.299 412.277 282.171 425.729 283.559 451.263C284.84 474.679 286.424 503.807 291.139 527.135C291.264 527.775 290.854 528.398 290.214 528.523C290.107 528.523 290.036 528.541 289.947 528.541Z" fill="#585859"/>
<path d="M319.395 529.145H319.377L282.794 528.362C282.135 528.344 281.619 527.811 281.637 527.152C281.655 526.494 282.189 525.978 282.847 525.996L319.431 526.779C320.089 526.796 320.605 527.33 320.587 527.989C320.552 528.647 320.036 529.145 319.395 529.145Z" fill="#585859"/>
<path d="M317.866 588.274H294.645L290.179 561.032L287.723 546.121H316.567L317.029 561.032L317.866 588.274Z" fill="#EA9B7A"/>
<path d="M317.865 588.274H294.644L291.317 567.989L290.178 561.032H317.029L317.242 568.238L317.865 588.274Z" fill="#FAAF3A"/>
<path d="M317.242 568.238L291.317 567.989L290.178 561.032H317.029L317.242 568.238Z" fill="#C77E2E"/>
<path d="M375.161 624.946H287.331C286.673 623.754 286.317 622.082 286.175 620.071C285.623 612.633 287.99 600.783 289.146 593.309C289.289 592.437 289.413 591.619 289.502 590.889C289.662 589.644 289.769 588.594 289.769 587.829C289.769 581.726 295.161 582.776 295.161 582.776C304.04 591.494 314.111 578.434 319.983 582.704C319.983 582.704 320.214 582.882 320.766 583.292C321.264 583.683 322.011 584.288 323.043 585.16C324.538 586.405 326.638 588.22 329.485 590.783C336.46 597.064 348.31 601.192 358.399 605.409C359.68 605.943 360.873 606.477 361.994 607.028C362.83 607.438 363.631 607.847 364.378 608.238C372.634 612.687 375.25 616.957 375.855 620.053C376.442 623.025 375.161 624.946 375.161 624.946Z" fill="#0875F7"/>
<path d="M364.396 608.256C362.136 610.053 357.1 613.665 353.061 613.665C352.883 613.665 352.705 613.665 352.527 613.647C349.68 613.416 339.218 608.274 330.694 603.594C325.819 600.907 321.353 598.274 318.15 596.156C312.901 592.687 311.976 591.37 311.78 590.445C311.015 586.975 316.744 584.573 320.766 583.309C321.264 583.701 322.011 584.306 323.043 585.178C318.061 586.53 313.951 588.665 314.146 589.875C314.645 590.907 319.84 594.857 332.26 601.672C341.744 606.868 350.73 611.05 352.723 611.228C355.428 611.441 359.396 608.986 361.993 607.046C362.865 607.437 363.648 607.847 364.396 608.256Z" fill="#084FC7"/>
<path d="M375.161 624.946H287.331C286.673 623.754 286.317 622.082 286.175 620.071H375.873C376.442 623.025 375.161 624.946 375.161 624.946Z" fill="#084FC7"/>
<path d="M296.3 624.946H293.684C296.282 621.975 298.719 617.402 298.399 610.889C297.972 602.206 292.776 596.37 289.146 593.309C289.289 592.437 289.413 591.619 289.502 590.889C293.399 593.861 299.965 600.391 300.481 610.783C300.801 617.01 298.755 621.655 296.3 624.946Z" fill="#084FC7"/>
<path d="M328.026 595.978C327.385 595.978 326.78 595.534 326.62 594.875C326.424 594.092 326.905 593.309 327.67 593.114L333.15 591.744C333.933 591.548 334.716 592.028 334.912 592.793C335.107 593.576 334.627 594.359 333.862 594.555L328.381 595.925C328.257 595.961 328.132 595.978 328.026 595.978Z" fill="white"/>
<path d="M322.563 591.405C321.904 591.405 321.317 590.96 321.157 590.302C320.961 589.519 321.442 588.736 322.207 588.541L327.687 587.17C328.47 586.975 329.253 587.455 329.449 588.22C329.645 589.003 329.164 589.786 328.399 589.982L322.919 591.352C322.794 591.388 322.687 591.405 322.563 591.405Z" fill="white"/>
<path d="M333.506 599.163C332.866 599.163 332.261 598.719 332.1 598.06C331.905 597.277 332.385 596.494 333.15 596.317L338.631 594.946C339.414 594.751 340.196 595.231 340.392 595.996C340.588 596.779 340.108 597.562 339.342 597.758L333.862 599.128C333.737 599.146 333.613 599.163 333.506 599.163Z" fill="white"/>
<path d="M338.987 602.224C338.346 602.224 337.741 601.779 337.581 601.121C337.385 600.338 337.866 599.555 338.631 599.377L344.111 598.007C344.894 597.811 345.677 598.292 345.873 599.057C346.068 599.84 345.588 600.623 344.823 600.818L339.342 602.188C339.218 602.206 339.111 602.224 338.987 602.224Z" fill="white"/>
<path d="M344.965 605.053C344.325 605.053 343.72 604.608 343.559 603.95C343.364 603.167 343.844 602.384 344.609 602.206L350.09 600.836C350.873 600.64 351.656 601.121 351.851 601.886C352.047 602.669 351.567 603.452 350.801 603.647L345.321 605.018C345.196 605.053 345.09 605.053 344.965 605.053Z" fill="white"/>
<path d="M351.46 607.473C350.801 607.473 350.214 607.028 350.054 606.37C349.858 605.587 350.339 604.804 351.104 604.608L356.584 603.238C357.367 603.042 358.15 603.523 358.346 604.288C358.542 605.071 358.061 605.854 357.296 606.05L351.816 607.42C351.691 607.455 351.566 607.473 351.46 607.473Z" fill="white"/>
<path d="M439.948 327.704V334.999C439.948 339.198 437.421 342.597 434.289 342.597H40.2135C37.0819 342.597 34.5552 339.198 34.5552 334.999V327.704C34.5552 323.504 37.0819 320.106 40.2135 320.106H434.272C437.403 320.106 439.948 323.504 439.948 327.704Z" fill="#21B573"/>
<path d="M439.948 330.017H34.5552V333.362H439.948V330.017Z" fill="#217C58"/>
<path d="M428.097 361.334H57.6868C56.032 361.334 54.6797 359.981 54.6797 358.326V342.49H431.104V358.326C431.104 359.981 429.752 361.334 428.097 361.334Z" fill="#217C58"/>
<path d="M411.46 454.287H80.1958V467.206H411.46V454.287Z" fill="#217C58"/>
<path d="M56.3168 627.242L120.445 361.333H97.9183L33.79 627.242H56.3168Z" fill="#21B573"/>
<path d="M434.912 627.242L370.766 361.333H393.293L457.421 627.242H434.912Z" fill="#21B573"/>
<path d="M70.5194 258.994L63.5718 260.058L71.6025 312.491L78.5501 311.427L70.5194 258.994Z" fill="#FAAF3A"/>
<path d="M70.5333 258.967L63.5938 260.034L65.124 254.732L65.9069 251.974L67.4906 254.358L70.5333 258.967Z" fill="#EA9B7A"/>
<path d="M77.9599 307.61L71.0122 308.674L71.5968 312.491L78.5445 311.427L77.9599 307.61Z" fill="#39393B"/>
<path d="M78.5765 314.501L72.5444 315.426C72.2953 315.462 72.0462 315.284 72.0106 315.035L71.6191 312.455L78.5765 311.387L78.9679 313.967C79.0035 314.234 78.8256 314.465 78.5765 314.501Z" fill="#DF615C"/>
<path d="M67.4911 254.358L65.1245 254.732L65.9074 251.974L67.4911 254.358Z" fill="#39393B"/>
<path d="M77.5668 304.871L70.6191 305.935L71.0367 308.661L77.9844 307.597L77.5668 304.871Z" fill="#C77E2E"/>
<path d="M65.7118 262.347L71.6549 301.173C71.7083 301.476 71.9752 301.671 72.2599 301.618C72.5446 301.565 72.7581 301.298 72.7047 301.013L66.7616 262.187C66.7083 261.903 66.4414 261.689 66.1567 261.742C65.872 261.778 65.6584 262.063 65.7118 262.347Z" fill="#C77E2E"/>
<path d="M68.4345 261.938L74.3776 300.764C74.4309 301.048 74.6978 301.262 74.9825 301.209C75.285 301.155 75.4808 300.888 75.4274 300.604L69.4843 261.778C69.4309 261.493 69.164 261.28 68.8793 261.333C68.5946 261.369 68.3811 261.636 68.4345 261.938Z" fill="#C77E2E"/>
<path d="M83.1164 259.206L76.0879 259.229L76.2623 312.272L83.2908 312.249L83.1164 259.206Z" fill="#21B573"/>
<path d="M83.1139 259.216L76.0854 259.234L78.3808 254.216L79.573 251.6L80.783 254.198L83.1139 259.216Z" fill="#EA9B7A"/>
<path d="M83.2687 308.406L76.2402 308.429L76.2529 312.29L83.2814 312.267L83.2687 308.406Z" fill="#39393B"/>
<path d="M82.829 315.319L76.7258 315.337C76.4589 315.337 76.2632 315.123 76.2632 314.874V312.276L83.2917 312.259V314.856C83.2917 315.106 83.0959 315.319 82.829 315.319Z" fill="#DF615C"/>
<path d="M80.783 254.198L78.3809 254.216L79.573 251.6L80.783 254.198Z" fill="#39393B"/>
<path d="M83.2526 305.63L76.2241 305.653L76.2332 308.411L83.2617 308.388L83.2526 305.63Z" fill="#217C58"/>
<path d="M77.8291 261.849L77.9537 301.12C77.9537 301.422 78.2028 301.654 78.4875 301.654C78.79 301.654 79.0213 301.405 79.0213 301.12L78.8967 261.849C78.8967 261.547 78.6476 261.315 78.3629 261.315C78.0782 261.298 77.8291 261.547 77.8291 261.849Z" fill="#217C58"/>
<path d="M80.5874 261.831L80.712 301.102C80.712 301.404 80.9611 301.636 81.2458 301.636C81.5483 301.636 81.7796 301.387 81.7796 301.102L81.655 261.831C81.655 261.529 81.4059 261.298 81.1212 261.298C80.8365 261.298 80.5874 261.529 80.5874 261.831Z" fill="#217C58"/>
<path d="M88.3011 258.943L80.8433 311.461L87.8022 312.449L95.26 259.932L88.3011 258.943Z" fill="#0875F7"/>
<path d="M95.2493 259.963L88.292 258.967L91.2813 254.323L92.8472 251.92L93.6657 254.661L95.2493 259.963Z" fill="#EA9B7A"/>
<path d="M88.3617 308.675L81.4028 307.686L80.8599 311.509L87.8189 312.497L88.3617 308.675Z" fill="#39393B"/>
<path d="M86.9041 315.444L80.8721 314.59C80.6229 314.554 80.445 314.323 80.4806 314.056L80.8543 311.476L87.8116 312.472L87.4379 315.052C87.3845 315.301 87.1532 315.479 86.9041 315.444Z" fill="#DF615C"/>
<path d="M93.6656 254.661L91.2812 254.323L92.8471 251.92L93.6656 254.661Z" fill="#39393B"/>
<path d="M81.7801 304.925L81.3921 307.656L88.351 308.645L88.7391 305.914L81.7801 304.925Z" fill="#084FC7"/>
<path d="M89.6442 261.796L84.1282 300.675C84.0926 300.978 84.2883 301.245 84.5908 301.28C84.8933 301.316 85.1602 301.12 85.1958 300.817L90.7118 261.938C90.7474 261.636 90.5517 261.369 90.2492 261.333C89.9645 261.298 89.6976 261.511 89.6442 261.796Z" fill="#084FC7"/>
<path d="M92.3844 262.188L86.8684 301.067C86.8328 301.369 87.0286 301.636 87.3311 301.672C87.6336 301.707 87.9005 301.512 87.936 301.209L93.4521 262.33C93.4877 262.027 93.2919 261.761 92.9894 261.725C92.6869 261.689 92.42 261.885 92.3844 262.188Z" fill="#084FC7"/>
<path d="M97.5447 280.194L97.171 283.041L96.8329 285.621L96.3347 289.536L95.9966 292.098L95.4984 296.049L95.1603 298.575L94.6443 302.561L94.324 305.052L93.808 309.073L93.4877 311.529L92.9717 315.586L92.6514 318.006L92.3845 320.106H64.7332L64.4663 318.006L64.146 315.586L63.63 311.529L63.3097 309.073L62.7937 305.052L62.4734 302.561L61.9574 298.575L61.6371 296.049L61.1211 292.098L60.8008 289.536L60.2848 285.621L59.9467 283.041L59.5908 280.194H97.5447Z" fill="#DF615C"/>
<path d="M97.1711 283.041L96.833 285.621H60.2848L59.9468 283.041H97.1711Z" fill="#B11722"/>
<path d="M96.3347 289.536L95.9966 292.099H61.1211L60.8008 289.536H96.3347Z" fill="#B11722"/>
<path d="M95.4985 296.049L95.1604 298.575H61.9575L61.6372 296.049H95.4985Z" fill="#B11722"/>
<path d="M94.6445 302.561L94.3243 305.052H62.7939L62.4736 302.561H94.6445Z" fill="#B11722"/>
<path d="M93.8079 309.073L93.4876 311.529H63.6299L63.3096 309.073H93.8079Z" fill="#B11722"/>
<path d="M92.9717 315.586L92.6514 318.006H64.4663L64.146 315.586H92.9717Z" fill="#B11722"/>
<path d="M437.652 179.091L414.075 278.807L413.453 281.422L411.869 288.13C411.175 291.049 408.595 293.095 405.606 293.095H246.762C242.598 293.095 239.537 289.216 240.498 285.177L266.281 176.119C266.975 173.219 269.555 171.173 272.545 171.173H431.371C435.534 171.173 438.595 175.052 437.652 179.091Z" fill="#39393B"/>
<path d="M414.058 278.789L413.453 281.422H248.523V278.789H414.058Z" fill="#585859"/>
<path d="M310.765 195.835C309.449 202.899 302.651 208.629 295.587 208.629C288.523 208.629 283.861 202.899 285.178 195.835C286.495 188.771 293.292 183.041 300.356 183.041C307.438 183.041 312.082 188.771 310.765 195.835Z" fill="#FAAF3A"/>
<path d="M296.317 193.397C296.05 194.803 295.338 195.959 294.733 195.959C294.111 195.959 293.826 194.821 294.093 193.397C294.36 191.991 295.071 190.835 295.676 190.835C296.299 190.835 296.584 191.974 296.317 193.397Z" fill="#39393B"/>
<path d="M302.99 193.397C302.723 194.803 302.011 195.959 301.406 195.959C300.801 195.959 300.499 194.821 300.766 193.397C301.032 191.991 301.744 190.835 302.349 190.835C302.972 190.835 303.257 191.974 302.99 193.397Z" fill="#39393B"/>
<path d="M296.922 202.08C291.424 202.08 291.192 196.582 291.192 196.529C291.175 196.226 291.424 195.924 291.744 195.87C292.064 195.799 292.313 195.995 292.331 196.297C292.331 196.493 292.545 200.977 297.153 200.977C301.744 200.977 303.63 196.493 303.719 196.297C303.844 195.995 304.182 195.817 304.466 195.87C304.751 195.942 304.893 196.226 304.769 196.529C304.715 196.564 302.42 202.08 296.922 202.08Z" fill="#39393B"/>
<path d="M384.2 255.586C384.342 262.205 395.552 270.497 395.552 270.497C395.552 270.497 408.577 262.205 410.161 255.586C411.869 248.415 403.684 246.209 397.616 251.618C392.723 246.209 384.04 248.415 384.2 255.586Z" fill="#DF615C"/>
<path d="M360.463 236.387C359.698 243.255 353.524 248.806 346.673 248.806C339.823 248.806 334.858 243.237 335.623 236.387C336.388 229.518 342.563 223.967 349.413 223.967C356.282 223.967 361.228 229.536 360.463 236.387Z" fill="#585859"/>
<path d="M278.844 171.173L251.388 293.095H246.762C242.598 293.095 239.537 289.216 240.498 285.177L266.281 176.12C266.975 173.219 269.555 171.155 272.545 171.155H278.844V171.173Z" fill="#585859"/>
<path d="M324.84 293.095L320.018 320.195H335.943L340.765 293.095H324.84Z" fill="white"/>
<path d="M296.21 315.533L299.466 310.96C300.623 309.323 302.509 308.362 304.52 308.362H348.15C350.463 308.362 352.58 309.643 353.648 311.689L355.837 315.889C356.869 317.846 355.445 320.213 353.221 320.213H298.612C296.21 320.195 294.822 317.472 296.21 315.533Z" fill="white"/>
<path d="M205.303 320.177H336.371L337.794 315.23C338.684 312.116 336.353 309.02 333.114 309.02H212.171C210 309.02 208.096 310.462 207.491 312.543L205.303 320.177Z" fill="white"/>
<path d="M377.154 138.611L319.182 138.575C316.94 138.575 315.107 136.742 315.107 134.5L315.125 98.8773C315.125 96.6353 316.958 94.8026 319.2 94.8026L377.172 94.8382C379.414 94.8382 381.246 96.6709 381.246 98.9129L381.229 134.536C381.229 136.796 379.414 138.611 377.154 138.611Z" fill="#DF615C"/>
<path d="M373.702 132.045L368.417 152.009L359.182 133.237L373.702 132.045Z" fill="#DF615C"/>
<path d="M362.83 113.486C361.655 120.959 347.687 130.319 347.687 130.319C347.687 130.319 334.253 120.941 333.488 113.45C332.652 105.336 342.26 102.863 348.292 108.984C354.645 102.881 364.111 105.372 362.83 113.486Z" fill="white"/>
<path d="M418.234 604.687C472.755 604.687 516.953 600.321 516.953 594.936C516.953 589.551 472.755 585.185 418.234 585.185C363.713 585.185 319.515 589.551 319.515 594.936C319.515 600.321 363.713 604.687 418.234 604.687Z" fill="#CED3E6"/>
<path d="M478.679 524.42H354.052C351.685 524.42 349.764 522.498 349.764 520.132V518.156C349.764 515.79 351.685 513.868 354.052 513.868H478.679C481.045 513.868 482.967 515.79 482.967 518.156V520.132C482.967 522.498 481.045 524.42 478.679 524.42Z" fill="#39393B"/>
<path d="M355.618 396.982H477.38C479.409 396.982 481.046 398.619 481.046 400.647V415.612C481.046 417.64 479.409 419.277 477.38 419.277H355.618C353.59 419.277 351.953 417.64 351.953 415.612V400.647C351.953 398.619 353.59 396.982 355.618 396.982Z" fill="#585859"/>
<path d="M384.373 302.142C384.373 302.142 333.038 291.999 318.714 256.181C304.39 220.362 356.775 193.494 384.373 212.729C413.91 233.298 384.373 302.142 384.373 302.142Z" fill="#21B573"/>
<path d="M414.907 396.252C414.462 396.252 414.052 395.914 413.981 395.452C409.07 362.178 389.23 314.313 373.483 280.024C356.383 242.836 340.262 213.156 340.102 212.853C339.853 212.409 340.031 211.839 340.476 211.59C340.921 211.341 341.49 211.519 341.739 211.964C341.899 212.266 358.056 241.999 375.191 279.241C391.01 313.654 410.903 361.697 415.85 395.185C415.921 395.701 415.583 396.163 415.067 396.235C414.996 396.235 414.942 396.252 414.907 396.252Z" fill="#39393B"/>
<path d="M382.451 298.672C382.113 298.672 381.792 298.494 381.632 298.192C359.301 256.608 323.038 226.43 322.682 226.128C322.291 225.807 322.237 225.22 322.557 224.829C322.878 224.437 323.465 224.384 323.856 224.704C324.23 225.007 360.76 255.398 383.269 297.32C383.518 297.765 383.34 298.334 382.896 298.583C382.735 298.637 382.593 298.672 382.451 298.672Z" fill="#39393B"/>
<path d="M383.465 301.661C383.198 301.661 382.949 301.555 382.753 301.341C366.472 282.177 349.782 270.256 338.661 263.636C326.597 256.465 318.287 253.779 318.216 253.761C317.735 253.601 317.451 253.085 317.611 252.586C317.771 252.106 318.287 251.821 318.785 251.982C319.123 252.088 327.344 254.722 339.568 261.999C350.832 268.69 367.718 280.754 384.177 300.131C384.515 300.523 384.462 301.11 384.07 301.448C383.892 301.59 383.661 301.661 383.465 301.661Z" fill="#39393B"/>
<path d="M378.945 290.754C378.554 290.754 378.198 290.505 378.074 290.131C365.547 253.387 370.155 208.743 370.209 208.298C370.262 207.782 370.725 207.426 371.223 207.48C371.739 207.533 372.095 207.996 372.041 208.494C371.988 208.939 367.433 253.192 379.817 289.526C379.977 290.007 379.728 290.54 379.23 290.701C379.141 290.736 379.034 290.754 378.945 290.754Z" fill="#39393B"/>
<path d="M382.095 298.032C381.65 298.032 381.259 297.711 381.188 297.249C377.362 273.992 380.298 255.024 383.447 243.209C386.864 230.38 391.134 223.156 391.312 222.853C391.579 222.409 392.149 222.266 392.593 222.533C393.038 222.8 393.181 223.369 392.914 223.814C392.878 223.885 388.572 231.163 385.227 243.779C382.148 255.398 379.266 274.081 383.02 296.964C383.109 297.462 382.753 297.943 382.255 298.032C382.184 298.014 382.131 298.032 382.095 298.032Z" fill="#39393B"/>
<path d="M438.518 311.501C438.518 311.501 490.369 304.402 506.793 269.508C523.216 234.597 472.504 204.686 443.821 222.248C413.109 241.038 438.518 311.501 438.518 311.501Z" fill="#21B573"/>
<path d="M418.857 393.21C418.34 393.21 417.913 392.783 417.931 392.267C418.127 375.131 421.864 355.612 429.034 334.259C434.764 317.195 442.664 298.921 452.558 279.953C469.373 247.658 486.312 224.188 486.49 223.957C486.793 223.547 487.38 223.44 487.789 223.743C488.198 224.045 488.305 224.633 488.003 225.042C487.842 225.273 470.974 248.654 454.212 280.825C438.768 310.487 420.262 353.886 419.817 392.284C419.782 392.8 419.373 393.21 418.857 393.21Z" fill="#39393B"/>
<path d="M440.707 308.156C440.547 308.156 440.369 308.121 440.227 308.014C439.782 307.747 439.657 307.177 439.924 306.733C464.871 266.216 503.145 238.031 503.536 237.747C503.946 237.444 504.533 237.533 504.835 237.942C505.138 238.352 505.049 238.939 504.64 239.241C504.266 239.526 466.277 267.498 441.526 307.693C441.33 307.996 441.027 308.156 440.707 308.156Z" fill="#39393B"/>
<path d="M439.515 311.074C439.284 311.074 439.052 310.985 438.874 310.825C438.501 310.469 438.483 309.882 438.839 309.508C456.437 291.128 473.999 280.095 485.636 274.081C498.269 267.551 506.615 265.398 506.97 265.309C507.469 265.184 507.967 265.487 508.091 265.985C508.216 266.483 507.914 266.982 507.415 267.106C507.326 267.124 498.874 269.313 486.419 275.754C474.924 281.697 457.575 292.622 440.173 310.79C440.013 310.967 439.764 311.074 439.515 311.074Z" fill="#39393B"/>
<path d="M444.675 300.451C444.55 300.451 444.444 300.434 444.319 300.38C443.839 300.185 443.625 299.651 443.803 299.17C458.323 263.619 456.383 219.188 456.365 218.743C456.348 218.227 456.739 217.8 457.255 217.764C457.753 217.729 458.198 218.138 458.234 218.654C458.251 219.099 460.209 263.939 445.547 299.882C445.387 300.238 445.049 300.451 444.675 300.451Z" fill="#39393B"/>
<path d="M441.099 307.533C441.028 307.533 440.956 307.533 440.885 307.515C440.387 307.409 440.067 306.91 440.191 306.412C445.316 283.779 443.536 264.971 441.152 253.191C438.554 240.416 434.711 232.889 434.675 232.8C434.444 232.337 434.622 231.786 435.067 231.554C435.529 231.323 436.081 231.501 436.312 231.946C436.472 232.248 440.298 239.722 442.949 252.747C445.387 264.739 447.202 283.85 442.006 306.821C441.917 307.231 441.526 307.533 441.099 307.533Z" fill="#39393B"/>
<path d="M418.554 243.956C418.554 243.956 374.622 215.522 374.568 176.946C374.515 138.369 433.127 132.817 451.65 160.896C471.49 190.949 418.554 243.956 418.554 243.956Z" fill="#21B573"/>
<path d="M412.415 342.729C412.344 342.729 412.273 342.729 412.202 342.711C411.704 342.587 411.401 342.089 411.508 341.59C419.266 308.868 418.572 257.053 416.632 219.366C414.533 178.494 410.529 144.935 410.494 144.615C410.44 144.099 410.796 143.636 411.312 143.583C411.81 143.529 412.291 143.885 412.344 144.401C412.38 144.739 416.383 178.351 418.501 219.277C420.458 257.088 421.134 309.081 413.341 342.017C413.216 342.444 412.842 342.729 412.415 342.729Z" fill="#39393B"/>
<path d="M418.394 240.095C417.931 240.095 417.522 239.739 417.469 239.277C412.131 192.373 389.622 150.913 389.39 150.504C389.141 150.059 389.301 149.49 389.764 149.241C390.209 148.992 390.778 149.152 391.027 149.614C391.259 150.024 413.946 191.803 419.319 239.081C419.373 239.597 419.017 240.059 418.501 240.113C418.465 240.095 418.43 240.095 418.394 240.095Z" fill="#39393B"/>
<path d="M418.234 243.227C417.843 243.227 417.487 242.978 417.362 242.586C409.337 218.743 398.252 201.501 390.369 191.234C381.828 180.095 375.102 174.543 375.031 174.49C374.64 174.17 374.569 173.583 374.907 173.191C375.227 172.8 375.814 172.728 376.206 173.067C376.49 173.298 383.127 178.778 391.793 190.059C399.782 200.451 410.992 217.889 419.106 241.999C419.266 242.48 419.017 243.013 418.519 243.173C418.43 243.209 418.341 243.227 418.234 243.227Z" fill="#39393B"/>
<path d="M418.074 231.43C418.056 231.43 418.038 231.43 418.02 231.43C417.504 231.412 417.113 230.967 417.148 230.451C419.123 191.697 439.942 151.928 440.138 151.518C440.387 151.056 440.938 150.896 441.401 151.127C441.864 151.358 442.024 151.928 441.793 152.39C441.579 152.782 420.956 192.195 419.017 230.54C418.981 231.038 418.572 231.43 418.074 231.43Z" fill="#39393B"/>
<path d="M418.305 239.348C418.234 239.348 418.18 239.348 418.109 239.33C417.611 239.223 417.291 238.725 417.397 238.227C422.451 215.202 432.237 198.547 439.568 188.618C447.522 177.835 454.177 172.586 454.462 172.373C454.871 172.052 455.458 172.124 455.761 172.533C456.081 172.942 456.01 173.529 455.6 173.832C455.529 173.885 448.821 179.188 441.01 189.775C433.803 199.544 424.177 215.949 419.212 238.618C419.124 239.063 418.732 239.348 418.305 239.348Z" fill="#39393B"/>
<path d="M472.237 337.747L470.707 341.804L469.746 344.384L466.971 351.75L465.992 354.33L463.145 361.91L462.184 364.473L449.942 396.964H383.074L370.832 364.473L369.871 361.91L367.024 354.33L366.045 351.75L363.269 344.384L362.308 341.804L360.778 337.747C359.728 334.953 361.792 331.982 364.764 331.982H468.269C471.223 331.982 473.287 334.953 472.237 337.747Z" fill="#0875F7"/>
<path d="M470.707 341.804L469.746 344.384H363.269L362.291 341.804H470.707Z" fill="#084FC7"/>
<path d="M466.953 351.75L465.992 354.33H367.006L366.045 351.75H466.953Z" fill="#084FC7"/>
<path d="M463.127 361.911L462.166 364.473H370.832L369.871 361.911H463.127Z" fill="#084FC7"/>
<path d="M398.59 419.259L394.889 431.217L343.269 597.587H333.18L365.903 434.615L368.999 419.259H398.59Z" fill="#39393B"/>
<path d="M500.12 597.587H490.031L436.899 426.288L434.71 419.259H464.301L465.049 422.996L500.12 597.587Z" fill="#39393B"/>
<path d="M478.679 501.484H354.052C351.685 501.484 349.764 499.562 349.764 497.196V495.22C349.764 492.854 351.685 490.932 354.052 490.932H478.661C481.027 490.932 482.949 492.854 482.949 495.22V497.196C482.967 499.562 481.045 501.484 478.679 501.484Z" fill="#585859"/>
<path d="M321.703 101.495C348.354 101.495 369.959 80.1606 369.959 53.8435C369.959 27.5264 348.354 6.19214 321.703 6.19214C295.051 6.19214 273.446 27.5264 273.446 53.8435C273.446 80.1606 295.051 101.495 321.703 101.495Z" fill="#CED3E6"/>
<path d="M321.703 95.3027C348.354 95.3027 369.959 73.9685 369.959 47.6514C369.959 21.3342 348.354 0 321.703 0C295.051 0 273.446 21.3342 273.446 47.6514C273.446 73.9685 295.051 95.3027 321.703 95.3027Z" fill="#0875F7"/>
<path d="M321.703 86.3882C343.362 86.3882 360.92 69.0452 360.92 47.6514C360.92 26.2577 343.362 8.91467 321.703 8.91467C300.043 8.91467 282.485 26.2577 282.485 47.6514C282.485 69.0452 300.043 86.3882 321.703 86.3882Z" fill="white"/>
<path d="M360.92 47.6514C360.92 48.6835 360.884 49.6977 360.795 50.7119C359.211 30.7831 342.272 15.0357 321.685 15.0357C301.097 15.0357 284.176 30.7831 282.574 50.7119C282.503 49.6977 282.45 48.6835 282.45 47.6514C282.45 26.2813 300.048 8.91467 321.667 8.91467C343.322 8.91467 360.92 26.2813 360.92 47.6514Z" fill="#CED3E6"/>
<path d="M321.703 51.6727C321.4 51.6727 321.098 51.5304 320.92 51.2812L301.685 25.694C301.364 25.2669 301.453 24.662 301.88 24.3417C302.307 24.0214 302.93 24.1103 303.251 24.5374L322.023 49.5019L343.357 40.2492C343.856 40.0357 344.425 40.2492 344.656 40.7474C344.87 41.2456 344.656 41.815 344.158 42.0285L322.112 51.5837C321.969 51.6549 321.827 51.6727 321.703 51.6727Z" fill="#39393B"/>
</svg>
