<svg width="17" height="17" viewBox="0 0 17 17" fill="none" xmlns="http://www.w3.org/2000/svg">
<g clip-path="url(#clip0_129_88)">
<path d="M15.5165 1.31861L12.3752 0.593706C12.0339 0.515174 11.6835 0.69338 11.5446 1.01355L10.0948 4.39644C9.9679 4.69244 10.0525 5.0398 10.3032 5.24216L12.1336 6.7403C11.0462 9.05698 9.14634 10.984 6.78134 12.0925L5.2832 10.2621C5.07781 10.0114 4.73348 9.92687 4.43748 10.0537L1.05458 11.5035C0.731393 11.6455 0.553187 11.9959 0.631719 12.3372L1.35662 15.4784C1.43214 15.8046 1.7221 16.0402 2.06341 16.0402C9.79876 16.0402 16.0783 9.77283 16.0783 2.02539C16.0783 1.68711 15.8457 1.39412 15.5165 1.31861Z" fill="#FDF8EE"/>
</g>
<defs>
<clipPath id="clip0_129_88">
<rect width="15.4647" height="15.4647" fill="white" transform="translate(0.613281 0.575928)"/>
</clipPath>
</defs>
</svg>
