<svg width="39" height="35" viewBox="0 0 39 35" fill="none" xmlns="http://www.w3.org/2000/svg">
<path d="M30.875 10.0357H26V8.60206C26 7.08112 25.3152 5.62248 24.0962 4.54701C22.8772 3.47154 21.2239 2.86735 19.5 2.86735C17.7761 2.86735 16.1228 3.47154 14.9038 4.54701C13.6848 5.62248 13 7.08112 13 8.60206V10.0357H8.125C7.69402 10.0357 7.2807 10.1868 6.97595 10.4557C6.67121 10.7245 6.5 11.0892 6.5 11.4694V27.2399C6.5 28.3806 7.01361 29.4745 7.92785 30.2811C8.84209 31.0877 10.0821 31.5409 11.375 31.5409H27.625C28.9179 31.5409 30.1579 31.0877 31.0721 30.2811C31.9864 29.4745 32.5 28.3806 32.5 27.2399V11.4694C32.5 11.0892 32.3288 10.7245 32.0241 10.4557C31.7193 10.1868 31.306 10.0357 30.875 10.0357ZM16.25 8.60206C16.25 7.84159 16.5924 7.11227 17.2019 6.57454C17.8114 6.0368 18.638 5.73471 19.5 5.73471C20.362 5.73471 21.1886 6.0368 21.7981 6.57454C22.4076 7.11227 22.75 7.84159 22.75 8.60206V10.0357H16.25V8.60206ZM29.25 27.2399C29.25 27.6201 29.0788 27.9848 28.7741 28.2536C28.4693 28.5225 28.056 28.6735 27.625 28.6735H11.375C10.944 28.6735 10.5307 28.5225 10.226 28.2536C9.92121 27.9848 9.75 27.6201 9.75 27.2399V12.9031H13V14.3368C13 14.717 13.1712 15.0817 13.476 15.3505C13.7807 15.6194 14.194 15.7704 14.625 15.7704C15.056 15.7704 15.4693 15.6194 15.774 15.3505C16.0788 15.0817 16.25 14.717 16.25 14.3368V12.9031H22.75V14.3368C22.75 14.717 22.9212 15.0817 23.226 15.3505C23.5307 15.6194 23.944 15.7704 24.375 15.7704C24.806 15.7704 25.2193 15.6194 25.524 15.3505C25.8288 15.0817 26 14.717 26 14.3368V12.9031H29.25V27.2399Z" fill="white"/>
</svg>
