<svg width="150" height="24" viewBox="0 0 150 24" fill="none" xmlns="http://www.w3.org/2000/svg">
<path d="M26.5971 9.50577C26.4225 9.02108 25.9436 8.67684 25.377 8.631L17.6803 8.00368L14.6368 1.60942C14.4124 1.1408 13.9013 0.837463 13.3334 0.837463C12.7656 0.837463 12.2545 1.1408 12.0301 1.61052L8.98662 8.00368L1.28868 8.631C0.723077 8.67793 0.245364 9.02108 0.0697818 9.50577C-0.1058 9.99046 0.0563537 10.5221 0.48422 10.8572L6.30202 15.4371L4.58649 22.2203C4.46096 22.7191 4.67662 23.2346 5.13765 23.5338C5.38546 23.6945 5.67538 23.7763 5.96775 23.7763C6.21983 23.7763 6.46988 23.7153 6.69429 23.5948L13.3334 20.033L19.9702 23.5948C20.4558 23.857 21.068 23.8331 21.528 23.5338C21.9892 23.2337 22.2047 22.718 22.0792 22.2203L20.3636 15.4371L26.1814 10.8581C26.6093 10.5221 26.7727 9.99137 26.5971 9.50577V9.50577Z" fill="#FFC107"/>
<path d="M57.2636 9.50577C57.089 9.02108 56.6101 8.67684 56.0435 8.631L48.3468 8.00368L45.3033 1.60942C45.0789 1.1408 44.5678 0.837463 43.9999 0.837463C43.4321 0.837463 42.921 1.1408 42.6966 1.61052L39.6531 8.00368L31.9552 8.631C31.3896 8.67793 30.9119 9.02108 30.7363 9.50577C30.5607 9.99046 30.7229 10.5221 31.1507 10.8572L36.9685 15.4371L35.253 22.2203C35.1275 22.7191 35.3431 23.2346 35.8042 23.5338C36.052 23.6945 36.3419 23.7763 36.6343 23.7763C36.8863 23.7763 37.1364 23.7153 37.3608 23.5948L43.9999 20.033L50.6367 23.5948C51.1223 23.857 51.7345 23.8331 52.1945 23.5338C52.6557 23.2337 52.8712 22.718 52.7457 22.2203L51.0301 15.4371L56.8479 10.8581C57.2758 10.5221 57.4392 9.99137 57.2636 9.50577V9.50577Z" fill="#FFC107"/>
<path d="M87.9306 9.50577C87.756 9.02108 87.2771 8.67684 86.7105 8.631L79.0138 8.00368L75.9703 1.60942C75.7459 1.1408 75.2348 0.837463 74.6669 0.837463C74.0991 0.837463 73.588 1.1408 73.3636 1.61052L70.3201 8.00368L62.6222 8.631C62.0566 8.67793 61.5789 9.02108 61.4033 9.50577C61.2277 9.99046 61.3898 10.5221 61.8177 10.8572L67.6355 15.4371L65.92 22.2203C65.7945 22.7191 66.0101 23.2346 66.4711 23.5338C66.719 23.6945 67.0089 23.7763 67.3012 23.7763C67.5533 23.7763 67.8034 23.7153 68.0278 23.5948L74.6669 20.033L81.3036 23.5948C81.7893 23.857 82.4015 23.8331 82.8615 23.5338C83.3227 23.2337 83.5382 22.718 83.4127 22.2203L81.6971 15.4371L87.5149 10.8581C87.9428 10.5221 88.1062 9.99137 87.9306 9.50577V9.50577Z" fill="#FFC107"/>
<path d="M118.597 9.50577C118.423 9.02108 117.944 8.67684 117.377 8.631L109.68 8.00368L106.637 1.60942C106.412 1.1408 105.901 0.837463 105.333 0.837463C104.766 0.837463 104.255 1.1408 104.03 1.61052L100.987 8.00368L93.2887 8.631C92.7231 8.67793 92.2454 9.02108 92.0698 9.50577C91.8942 9.99046 92.0564 10.5221 92.4842 10.8572L98.302 15.4371L96.5865 22.2203C96.461 22.7191 96.6766 23.2346 97.1376 23.5338C97.3855 23.6945 97.6754 23.7763 97.9677 23.7763C98.2198 23.7763 98.4699 23.7153 98.6943 23.5948L105.333 20.033L111.97 23.5948C112.456 23.857 113.068 23.8331 113.528 23.5338C113.989 23.2337 114.205 22.718 114.079 22.2203L112.364 15.4371L118.181 10.8581C118.609 10.5221 118.773 9.99137 118.597 9.50577V9.50577Z" fill="#FFC107"/>
<path d="M149.264 9.50577C149.089 9.02108 148.61 8.67684 148.043 8.631L140.347 8.00368L137.303 1.60942C137.079 1.1408 136.568 0.837463 136 0.837463C135.432 0.837463 134.921 1.1408 134.697 1.61052L131.653 8.00368L123.955 8.631C123.39 8.67793 122.912 9.02108 122.736 9.50577C122.561 9.99046 122.723 10.5221 123.151 10.8572L128.969 15.4371L127.253 22.2203C127.127 22.7191 127.343 23.2346 127.804 23.5338C128.052 23.6945 128.342 23.7763 128.634 23.7763C128.886 23.7763 129.136 23.7153 129.361 23.5948L136 20.033L142.637 23.5948C143.122 23.857 143.735 23.8331 144.195 23.5338C144.656 23.2337 144.871 22.718 144.746 22.2203L143.03 15.4371L148.848 10.8581C149.276 10.5221 149.439 9.99137 149.264 9.50577V9.50577Z" fill="#FFC107"/>
</svg>
