<svg width="150" height="24" viewBox="0 0 150 24" fill="none" xmlns="http://www.w3.org/2000/svg">
<path d="M26.5971 9.36826C26.4225 8.88357 25.9436 8.53932 25.377 8.49348L17.6803 7.86617L14.6368 1.47191C14.4124 1.00329 13.9013 0.699951 13.3334 0.699951C12.7656 0.699951 12.2545 1.00329 12.0301 1.473L8.98662 7.86617L1.28868 8.49348C0.723077 8.54042 0.245364 8.88357 0.0697818 9.36826C-0.1058 9.85295 0.0563537 10.3846 0.48422 10.7197L6.30202 15.2996L4.58649 22.0828C4.46096 22.5816 4.67662 23.0971 5.13765 23.3963C5.38546 23.557 5.67538 23.6388 5.96775 23.6388C6.21983 23.6388 6.46988 23.5778 6.69429 23.4573L13.3334 19.8955L19.9702 23.4573C20.4558 23.7195 21.068 23.6956 21.528 23.3963C21.9892 23.0962 22.2047 22.5805 22.0792 22.0828L20.3636 15.2996L26.1814 10.7206C26.6093 10.3846 26.7727 9.85386 26.5971 9.36826V9.36826Z" fill="#FFC107"/>
<path d="M57.2636 9.36826C57.089 8.88357 56.6101 8.53932 56.0435 8.49348L48.3468 7.86617L45.3033 1.47191C45.0789 1.00329 44.5678 0.699951 43.9999 0.699951C43.4321 0.699951 42.921 1.00329 42.6966 1.473L39.6531 7.86617L31.9552 8.49348C31.3896 8.54042 30.9119 8.88357 30.7363 9.36826C30.5607 9.85295 30.7229 10.3846 31.1507 10.7197L36.9685 15.2996L35.253 22.0828C35.1275 22.5816 35.3431 23.0971 35.8042 23.3963C36.052 23.557 36.3419 23.6388 36.6343 23.6388C36.8863 23.6388 37.1364 23.5778 37.3608 23.4573L43.9999 19.8955L50.6367 23.4573C51.1223 23.7195 51.7345 23.6956 52.1945 23.3963C52.6557 23.0962 52.8712 22.5805 52.7457 22.0828L51.0301 15.2996L56.8479 10.7206C57.2758 10.3846 57.4392 9.85386 57.2636 9.36826V9.36826Z" fill="#FFC107"/>
<path d="M87.9306 9.36826C87.756 8.88357 87.2771 8.53932 86.7105 8.49348L79.0138 7.86617L75.9703 1.47191C75.7459 1.00329 75.2348 0.699951 74.6669 0.699951C74.0991 0.699951 73.588 1.00329 73.3636 1.473L70.3201 7.86617L62.6222 8.49348C62.0566 8.54042 61.5789 8.88357 61.4033 9.36826C61.2277 9.85295 61.3898 10.3846 61.8177 10.7197L67.6355 15.2996L65.92 22.0828C65.7945 22.5816 66.0101 23.0971 66.4711 23.3963C66.719 23.557 67.0089 23.6388 67.3012 23.6388C67.5533 23.6388 67.8034 23.5778 68.0278 23.4573L74.6669 19.8955L81.3036 23.4573C81.7893 23.7195 82.4015 23.6956 82.8615 23.3963C83.3227 23.0962 83.5382 22.5805 83.4127 22.0828L81.6971 15.2996L87.5149 10.7206C87.9428 10.3846 88.1062 9.85386 87.9306 9.36826V9.36826Z" fill="#FFC107"/>
<path d="M118.597 9.36826C118.423 8.88357 117.944 8.53932 117.377 8.49348L109.68 7.86617L106.637 1.47191C106.412 1.00329 105.901 0.699951 105.333 0.699951C104.766 0.699951 104.255 1.00329 104.03 1.473L100.987 7.86617L93.2887 8.49348C92.7231 8.54042 92.2454 8.88357 92.0698 9.36826C91.8942 9.85295 92.0564 10.3846 92.4842 10.7197L98.302 15.2996L96.5865 22.0828C96.461 22.5816 96.6766 23.0971 97.1376 23.3963C97.3855 23.557 97.6754 23.6388 97.9677 23.6388C98.2198 23.6388 98.4699 23.5778 98.6943 23.4573L105.333 19.8955L111.97 23.4573C112.456 23.7195 113.068 23.6956 113.528 23.3963C113.989 23.0962 114.205 22.5805 114.079 22.0828L112.364 15.2996L118.181 10.7206C118.609 10.3846 118.773 9.85386 118.597 9.36826V9.36826Z" fill="#FFC107"/>
<path d="M149.264 9.36826C149.089 8.88357 148.61 8.53932 148.043 8.49348L140.347 7.86617L137.303 1.47191C137.079 1.00329 136.568 0.699951 136 0.699951C135.432 0.699951 134.921 1.00329 134.697 1.473L131.653 7.86617L123.955 8.49348C123.39 8.54042 122.912 8.88357 122.736 9.36826C122.561 9.85295 122.723 10.3846 123.151 10.7197L128.969 15.2996L127.253 22.0828C127.127 22.5816 127.343 23.0971 127.804 23.3963C128.052 23.557 128.342 23.6388 128.634 23.6388C128.886 23.6388 129.136 23.5778 129.361 23.4573L136 19.8955L142.637 23.4573C143.122 23.7195 143.735 23.6956 144.195 23.3963C144.656 23.0962 144.871 22.5805 144.746 22.0828L143.03 15.2996L148.848 10.7206C149.276 10.3846 149.439 9.85386 149.264 9.36826V9.36826Z" fill="#FFC107"/>
</svg>
