<svg width="19" height="19" viewBox="0 0 19 19" fill="none" xmlns="http://www.w3.org/2000/svg">
<g clip-path="url(#clip0_4_3311)">
<path d="M9.50014 0C4.26193 0 0.000488281 4.26167 0.000488281 9.49989C0.000488281 14.7383 4.26193 19 9.50014 19C14.7384 19 19 14.7383 19 9.49989C19 4.26167 14.7381 0 9.50014 0ZM9.50014 17.6265C5.0194 17.6265 1.37374 13.9809 1.37374 9.49989C1.37374 5.01892 5.01917 1.37348 9.50014 1.37348C13.9811 1.37348 17.6266 5.01892 17.6266 9.49989C17.6266 13.9809 13.9811 17.6265 9.50014 17.6265Z" fill="black"/>
<path d="M12.2485 10.3744C12.2449 10.3744 12.2416 10.3744 12.238 10.3744L10.1865 10.405V5.0361C10.1865 4.6568 9.87904 4.34937 9.49973 4.34937C9.12042 4.34937 8.81299 4.6568 8.81299 5.0361V11.1023C8.81299 11.1037 8.81345 11.105 8.81345 11.1064C8.81345 11.1087 8.81299 11.1108 8.81299 11.1126C8.81345 11.1405 8.81871 11.1668 8.82237 11.1936C8.82466 11.2103 8.82489 11.2275 8.8281 11.244C8.83428 11.2735 8.84458 11.301 8.85442 11.3287C8.85946 11.3431 8.86266 11.3582 8.86861 11.372C8.88052 11.4001 8.89654 11.4257 8.91188 11.4521C8.91897 11.4637 8.92424 11.4766 8.93179 11.488C8.94919 11.5134 8.97002 11.5361 8.99062 11.5592C8.99932 11.5688 9.00642 11.5798 9.01558 11.5892C9.03778 11.6112 9.06273 11.6297 9.08768 11.6487C9.09776 11.6563 9.10668 11.6654 9.11698 11.6725C9.144 11.6908 9.17353 11.7053 9.20306 11.7194C9.21336 11.7243 9.22251 11.7311 9.23304 11.7355C9.26738 11.7499 9.30401 11.76 9.34109 11.7689C9.34796 11.7705 9.35437 11.7737 9.36146 11.7751C9.40587 11.784 9.45188 11.789 9.49904 11.789C9.50247 11.789 9.50614 11.789 9.50957 11.789L12.2584 11.7478C12.6374 11.7421 12.9403 11.4299 12.9348 11.0508C12.9295 10.6751 12.623 10.3744 12.2485 10.3744Z" fill="black"/>
</g>
<defs>
<clipPath id="clip0_4_3311">
<rect width="19" height="19" fill="white"/>
</clipPath>
</defs>
</svg>
