<svg width="477" height="263" viewBox="0 0 477 263" fill="none" xmlns="http://www.w3.org/2000/svg">
<path d="M0.725996 260.72C0.377955 261.149 0.443438 261.779 0.872257 262.127C1.30108 262.475 1.93085 262.409 2.27889 261.98L0.725996 260.72ZM250.92 198.944C258.715 198.944 264.955 195.729 269.958 190.175C274.931 184.654 278.677 176.828 281.597 167.561C287.436 149.03 290.076 124.373 292.362 99.8478C294.654 75.2586 296.59 50.8052 300.985 32.483C303.184 23.3203 305.975 15.7958 309.664 10.5812C313.327 5.40271 317.822 2.56555 323.51 2.56555L323.51 0.565552C317.011 0.56555 311.965 3.86523 308.031 9.42618C304.123 14.951 301.259 22.7687 299.041 32.0164C294.602 50.5153 292.654 75.1566 290.37 99.6622C288.08 124.231 285.453 148.669 279.69 166.96C276.809 176.103 273.171 183.619 268.471 188.837C263.801 194.023 258.08 196.944 250.92 196.944V198.944ZM323.51 2.56555C334.841 2.56555 341.914 6.53323 346.977 12.4391C352.104 18.4197 355.209 26.4225 358.458 34.6456C361.677 42.7921 365.036 51.1472 370.712 57.4379C376.447 63.7942 384.491 67.9906 396.924 67.9906V65.9906C385.023 65.9906 377.53 62.0089 372.197 56.098C366.804 50.1215 363.562 42.1203 360.318 33.9106C357.104 25.7774 353.885 17.4239 348.495 11.1374C343.042 4.77602 335.408 0.565555 323.51 0.565552L323.51 2.56555ZM396.924 67.9906C420.686 67.9906 433.042 83.7983 443.161 100.024C448.182 108.074 452.697 116.313 457.733 122.474C462.794 128.665 468.566 132.998 476.212 132.998V130.998C469.446 130.998 464.184 127.206 459.281 121.208C454.353 115.18 449.973 107.167 444.858 98.9653C434.706 82.6869 421.83 65.9906 396.924 65.9906V67.9906ZM168.921 102.168C178.172 102.168 185.528 107.902 192.002 116.875C198.477 125.849 203.911 137.844 209.368 149.967C214.8 162.035 220.256 174.232 226.75 183.401C233.243 192.567 240.941 198.944 250.92 198.944V196.944C241.919 196.944 234.743 191.224 228.382 182.245C222.024 173.268 216.649 161.271 211.191 149.146C205.757 137.074 200.241 124.876 193.624 115.705C187.006 106.532 179.128 100.168 168.921 100.168V102.168ZM2.27889 261.98C6.73821 256.486 11.7448 247.687 17.3394 237.691C22.9548 227.658 29.1945 216.358 36.1576 205.736C43.1232 195.11 50.7777 185.218 59.1969 177.991C67.6128 170.766 76.721 166.263 86.6189 166.263V164.263C76.0782 164.263 66.5241 169.064 57.8941 176.473C49.2673 183.879 41.4923 193.95 34.485 204.639C27.4752 215.333 21.1985 226.701 15.5942 236.714C9.9692 246.764 5.05279 255.389 0.725996 260.72L2.27889 261.98ZM86.6189 166.263C100.172 166.263 109.833 162.18 117.263 156.018C124.66 149.885 129.795 141.733 134.382 133.712C139.003 125.631 143.035 117.755 148.278 111.847C153.463 106.003 159.768 102.168 168.921 102.168V100.168C159.078 100.168 152.261 104.345 146.782 110.519C141.361 116.629 137.187 124.776 132.645 132.719C128.069 140.722 123.083 148.594 115.987 154.478C108.925 160.334 99.7192 164.263 86.6189 164.263V166.263Z" fill="#0C0B0B"/>
</svg>
