<svg width="26" height="30" viewBox="0 0 26 30" fill="none" xmlns="http://www.w3.org/2000/svg">
<path d="M24.375 7.73088H19.5V6.29721C19.5 4.77627 18.8152 3.31762 17.5962 2.24216C16.3772 1.16669 14.7239 0.5625 13 0.5625C11.2761 0.5625 9.62279 1.16669 8.40381 2.24216C7.18482 3.31762 6.5 4.77627 6.5 6.29721V7.73088H1.625C1.19402 7.73088 0.780698 7.88193 0.475952 8.1508C0.171205 8.41967 0 8.78433 0 9.16456V24.935C0 26.0757 0.513615 27.1697 1.42785 27.9763C2.34209 28.7829 3.58207 29.236 4.875 29.236H21.125C22.4179 29.236 23.6579 28.7829 24.5721 27.9763C25.4864 27.1697 26 26.0757 26 24.935V9.16456C26 8.78433 25.8288 8.41967 25.5241 8.1508C25.2193 7.88193 24.806 7.73088 24.375 7.73088ZM9.75 6.29721C9.75 5.53674 10.0924 4.80742 10.7019 4.26968C11.3114 3.73195 12.138 3.42985 13 3.42985C13.862 3.42985 14.6886 3.73195 15.2981 4.26968C15.9076 4.80742 16.25 5.53674 16.25 6.29721V7.73088H9.75V6.29721ZM22.75 24.935C22.75 25.3152 22.5788 25.6799 22.2741 25.9488C21.9693 26.2176 21.556 26.3687 21.125 26.3687H4.875C4.44402 26.3687 4.0307 26.2176 3.72595 25.9488C3.42121 25.6799 3.25 25.3152 3.25 24.935V10.5982H6.5V12.0319C6.5 12.4121 6.67121 12.7768 6.97595 13.0457C7.2807 13.3145 7.69402 13.4656 8.125 13.4656C8.55598 13.4656 8.9693 13.3145 9.27405 13.0457C9.5788 12.7768 9.75 12.4121 9.75 12.0319V10.5982H16.25V12.0319C16.25 12.4121 16.4212 12.7768 16.726 13.0457C17.0307 13.3145 17.444 13.4656 17.875 13.4656C18.306 13.4656 18.7193 13.3145 19.024 13.0457C19.3288 12.7768 19.5 12.4121 19.5 12.0319V10.5982H22.75V24.935Z" fill="white"/>
</svg>
