<svg width="234" height="26" viewBox="0 0 234 26" fill="none" xmlns="http://www.w3.org/2000/svg">
<path d="M17.1284 0.478447C17.4803 -0.159482 18.6793 -0.159482 19.0313 0.478447L23.2891 8.19543C23.4375 8.46437 23.773 8.64813 24.1582 8.6714L35.2101 9.3393C36.1236 9.39451 36.4942 10.254 35.798 10.7035L27.3776 16.1407C27.0842 16.3303 26.956 16.6276 27.0456 16.9108L29.6182 25.0406C29.8309 25.7126 28.861 26.2439 28.0787 25.8837L18.6168 21.5272C18.2871 21.3754 17.8724 21.3754 17.5426 21.5272L8.0807 25.8837C7.29851 26.2439 6.32862 25.7126 6.5413 25.0406L9.11386 16.9108C9.20351 16.6276 9.07535 16.3303 8.7819 16.1407L0.36153 10.7035C-0.334559 10.254 0.0359179 9.39451 0.949528 9.3393L12.0014 8.6714C12.3866 8.64813 12.7221 8.46437 12.8705 8.19543L17.1284 0.478447Z" fill="#FDB022"/>
<path d="M66.5884 0.478447C66.9404 -0.159482 68.1394 -0.159482 68.4914 0.478447L72.7493 8.19543C72.8977 8.46437 73.2332 8.64813 73.6183 8.6714L84.6702 9.3393C85.5838 9.39451 85.9543 10.254 85.2581 10.7035L76.8378 16.1407C76.5443 16.3303 76.4161 16.6276 76.5058 16.9108L79.0783 25.0406C79.291 25.7126 78.3212 26.2439 77.5389 25.8837L68.077 21.5272C67.7472 21.3754 67.3326 21.3754 67.0028 21.5272L57.5409 25.8837C56.7586 26.2439 55.7888 25.7126 56.0015 25.0406L58.574 16.9108C58.6637 16.6276 58.5355 16.3303 58.242 16.1407L49.8216 10.7035C49.1255 10.254 49.496 9.39451 50.4096 9.3393L61.4615 8.6714C61.8466 8.64813 62.1821 8.46437 62.3305 8.19543L66.5884 0.478447Z" fill="#FDB022"/>
<path d="M116.048 0.478447C116.4 -0.159482 117.599 -0.159482 117.951 0.478447L122.209 8.19543C122.358 8.46437 122.693 8.64813 123.078 8.6714L134.13 9.3393C135.044 9.39451 135.414 10.254 134.718 10.7035L126.298 16.1407C126.004 16.3303 125.876 16.6276 125.966 16.9108L128.538 25.0406C128.751 25.7126 127.781 26.2439 126.999 25.8837L117.537 21.5272C117.207 21.3754 116.793 21.3754 116.463 21.5272L107.001 25.8837C106.219 26.2439 105.249 25.7126 105.462 25.0406L108.034 16.9108C108.124 16.6276 107.996 16.3303 107.702 16.1407L99.2817 10.7035C98.5856 10.254 98.9561 9.39451 99.8697 9.3393L110.922 8.6714C111.307 8.64813 111.642 8.46437 111.791 8.19543L116.048 0.478447Z" fill="#FDB022"/>
<path d="M165.509 0.478447C165.861 -0.159482 167.06 -0.159482 167.412 0.478447L171.669 8.19543C171.818 8.46437 172.153 8.64813 172.539 8.6714L183.59 9.3393C184.504 9.39451 184.874 10.254 184.178 10.7035L175.758 16.1407C175.464 16.3303 175.336 16.6276 175.426 16.9108L177.999 25.0406C178.211 25.7126 177.241 26.2439 176.459 25.8837L166.997 21.5272C166.667 21.3754 166.253 21.3754 165.923 21.5272L156.461 25.8837C155.679 26.2439 154.709 25.7126 154.922 25.0406L157.494 16.9108C157.584 16.6276 157.456 16.3303 157.162 16.1407L148.742 10.7035C148.046 10.254 148.416 9.39451 149.33 9.3393L160.382 8.6714C160.767 8.64813 161.102 8.46437 161.251 8.19543L165.509 0.478447Z" fill="#FDB022"/>
<path d="M214.968 0.478447C215.32 -0.159482 216.52 -0.159482 216.872 0.478447L221.13 8.19543C221.278 8.46437 221.614 8.64813 221.998 8.6714L233.05 9.3393C233.965 9.39451 234.334 10.254 233.639 10.7035L225.219 16.1407C224.924 16.3303 224.796 16.6276 224.887 16.9108L227.459 25.0406C227.671 25.7126 226.7 26.2439 225.919 25.8837L216.458 21.5272C216.128 21.3754 215.712 21.3754 215.382 21.5272L205.921 25.8837C205.14 26.2439 204.169 25.7126 204.382 25.0406L206.953 16.9108C207.044 16.6276 206.916 16.3303 206.622 16.1407L198.202 10.7035C197.506 10.254 197.876 9.39451 198.79 9.3393L209.843 8.6714C210.226 8.64813 210.562 8.46437 210.71 8.19543L214.968 0.478447Z" fill="#FDB022"/>
</svg>
