<svg width="26" height="30" viewBox="0 0 26 30" fill="none" xmlns="http://www.w3.org/2000/svg">
<path d="M24.375 7.83098H19.5V6.39731C19.5 4.87637 18.8152 3.41772 17.5962 2.34225C16.3772 1.26679 14.7239 0.662598 13 0.662598C11.2761 0.662598 9.62279 1.26679 8.40381 2.34225C7.18482 3.41772 6.5 4.87637 6.5 6.39731V7.83098H1.625C1.19402 7.83098 0.780698 7.98203 0.475952 8.2509C0.171205 8.51976 0 8.88442 0 9.26466V25.0351C0 26.1758 0.513615 27.2698 1.42785 28.0764C2.34209 28.883 3.58207 29.3361 4.875 29.3361H21.125C22.4179 29.3361 23.6579 28.883 24.5721 28.0764C25.4864 27.2698 26 26.1758 26 25.0351V9.26466C26 8.88442 25.8288 8.51976 25.5241 8.2509C25.2193 7.98203 24.806 7.83098 24.375 7.83098ZM9.75 6.39731C9.75 5.63684 10.0924 4.90751 10.7019 4.36978C11.3114 3.83205 12.138 3.52995 13 3.52995C13.862 3.52995 14.6886 3.83205 15.2981 4.36978C15.9076 4.90751 16.25 5.63684 16.25 6.39731V7.83098H9.75V6.39731ZM22.75 25.0351C22.75 25.4153 22.5788 25.78 22.2741 26.0489C21.9693 26.3177 21.556 26.4688 21.125 26.4688H4.875C4.44402 26.4688 4.0307 26.3177 3.72595 26.0489C3.42121 25.78 3.25 25.4153 3.25 25.0351V10.6983H6.5V12.132C6.5 12.5122 6.67121 12.8769 6.97595 13.1458C7.2807 13.4146 7.69402 13.5657 8.125 13.5657C8.55598 13.5657 8.9693 13.4146 9.27405 13.1458C9.5788 12.8769 9.75 12.5122 9.75 12.132V10.6983H16.25V12.132C16.25 12.5122 16.4212 12.8769 16.726 13.1458C17.0307 13.4146 17.444 13.5657 17.875 13.5657C18.306 13.5657 18.7193 13.4146 19.024 13.1458C19.3288 12.8769 19.5 12.5122 19.5 12.132V10.6983H22.75V25.0351Z" fill="white"/>
</svg>
