<svg width="178" height="26" viewBox="0 0 178 26" fill="none" xmlns="http://www.w3.org/2000/svg">
<path d="M13.0293 0.478447C13.297 -0.159482 14.209 -0.159482 14.4768 0.478447L17.7157 8.19543C17.8285 8.46437 18.0838 8.64813 18.3768 8.6714L26.7837 9.3393C27.4787 9.39451 27.7605 10.254 27.231 10.7035L20.8257 16.1407C20.6025 16.3303 20.505 16.6276 20.5732 16.9108L22.5301 25.0406C22.6918 25.7126 21.9541 26.2439 21.359 25.8837L14.1615 21.5272C13.9107 21.3754 13.5952 21.3754 13.3444 21.5272L6.14686 25.8837C5.55186 26.2439 4.81408 25.7126 4.97586 25.0406L6.93277 16.9108C7.00096 16.6276 6.90347 16.3303 6.68025 16.1407L0.27501 10.7035C-0.254493 10.254 0.0273222 9.39451 0.722291 9.3393L9.12927 8.6714C9.42227 8.64813 9.67748 8.46437 9.79037 8.19543L13.0293 0.478447Z" fill="#FDB022"/>
<path d="M50.6527 0.478447C50.9205 -0.159482 51.8325 -0.159482 52.1003 0.478447L55.3392 8.19543C55.4521 8.46437 55.7073 8.64813 56.0003 8.6714L64.4072 9.3393C65.1022 9.39451 65.384 10.254 64.8545 10.7035L58.4492 16.1407C58.226 16.3303 58.1285 16.6276 58.1967 16.9108L60.1536 25.0406C60.3154 25.7126 59.5776 26.2439 58.9826 25.8837L51.785 21.5272C51.5342 21.3754 51.2188 21.3754 50.968 21.5272L43.7704 25.8837C43.1754 26.2439 42.4376 25.7126 42.5994 25.0406L44.5563 16.9108C44.6245 16.6276 44.527 16.3303 44.3038 16.1407L37.8985 10.7035C37.369 10.254 37.6508 9.39451 38.3458 9.3393L46.7527 8.6714C47.0457 8.64813 47.3009 8.46437 47.4138 8.19543L50.6527 0.478447Z" fill="#FDB022"/>
<path d="M88.2762 0.478447C88.544 -0.159482 89.456 -0.159482 89.7238 0.478447L92.9627 8.19543C93.0756 8.46437 93.3308 8.64813 93.6238 8.6714L102.031 9.3393C102.726 9.39451 103.008 10.254 102.478 10.7035L96.0727 16.1407C95.8495 16.3303 95.752 16.6276 95.8202 16.9108L97.7771 25.0406C97.9389 25.7126 97.2011 26.2439 96.606 25.8837L89.4085 21.5272C89.1577 21.3754 88.8423 21.3754 88.5915 21.5272L81.3939 25.8837C80.7989 26.2439 80.0611 25.7126 80.2229 25.0406L82.1798 16.9108C82.248 16.6276 82.1505 16.3303 81.9272 16.1407L75.522 10.7035C74.9925 10.254 75.2743 9.39451 75.9692 9.3393L84.3762 8.6714C84.6692 8.64813 84.9244 8.46437 85.0373 8.19543L88.2762 0.478447Z" fill="#FDB022"/>
<path d="M125.9 0.478447C126.167 -0.159482 127.08 -0.159482 127.347 0.478447L130.586 8.19543C130.699 8.46437 130.954 8.64813 131.247 8.6714L139.654 9.3393C140.349 9.39451 140.631 10.254 140.101 10.7035L133.696 16.1407C133.473 16.3303 133.375 16.6276 133.444 16.9108L135.401 25.0406C135.562 25.7126 134.825 26.2439 134.23 25.8837L127.032 21.5272C126.781 21.3754 126.466 21.3754 126.215 21.5272L119.017 25.8837C118.422 26.2439 117.685 25.7126 117.846 25.0406L119.803 16.9108C119.871 16.6276 119.774 16.3303 119.551 16.1407L113.145 10.7035C112.616 10.254 112.898 9.39451 113.593 9.3393L122 8.6714C122.293 8.64813 122.548 8.46437 122.661 8.19543L125.9 0.478447Z" fill="#FDB022"/>
<path d="M163.523 0.478447C163.791 -0.159482 164.703 -0.159482 164.971 0.478447L168.21 8.19543C168.323 8.46437 168.578 8.64813 168.87 8.6714L177.277 9.3393C177.973 9.39451 178.254 10.254 177.726 10.7035L171.32 16.1407C171.096 16.3303 170.999 16.6276 171.068 16.9108L173.024 25.0406C173.186 25.7126 172.447 26.2439 171.853 25.8837L164.656 21.5272C164.405 21.3754 164.089 21.3754 163.838 21.5272L156.641 25.8837C156.047 26.2439 155.308 25.7126 155.47 25.0406L157.426 16.9108C157.495 16.6276 157.398 16.3303 157.174 16.1407L150.769 10.7035C150.239 10.254 150.521 9.39451 151.216 9.3393L159.624 8.6714C159.916 8.64813 160.171 8.46437 160.284 8.19543L163.523 0.478447Z" fill="#FDB022"/>
</svg>
