<svg xmlns="http://www.w3.org/2000/svg" height="800" width="1200" viewBox="-43.8 -73.75 379.6 442.5"><path d="M219.8 41.5c.7-1.7-.7-3.3-.7-3.3s-11-18.6-49.7-22.8c-20.8-2.2-49 2-68.8 12.7-36 19.3-41.4 51.2-41.4 51.2-.2.8-.5 3.2.3 4.2s2 1 3.5.5c12.7-4.3 50.4-16.8 74.2-23.1 33.9-9 61.8-14.5 79.6-17.5 1.4-.3 2.5-.7 3-1.9" fill="#FAAF18"/><path d="M258.5 191.7c-20.3 45.6-59.2 77.3-110.3 78-37.1.5-69.9-12.2-93.6-34.4l-14.3 6.1v-22.2c-15.6-21-24.7-47.7-24.7-77.9C15.6 63.8 74.9 2.8 157.7 2.8c13.5 0 25.7 2.1 34.9 4.2-14.2-4.5-28.3-7-44-7C59.8 0 0 72 0 146.3 0 227.2 63.5 295 146.8 295c79.6 0 122.5-56.1 136.3-89.9l-24.6-13.4" fill="#185494"/><path d="M237.9 175.7c11.7-1.3 19.8-6 24.2-10.4 4-4 5-9.4 5-13.5.2-6 0-24.8 0-24.8l-30.9 6.7v7.2c.1 4.8 2.4 7.4 7.4 6.5 1.6-.3 4-1 4-1v5.9c0-.2.5 3.3-7.3 4.8-10.2 1.6-14.8-4.7-14.9-15.8.2-11.9 6.9-18.7 15.1-20.6 9.2-2.1 14.4.1 17.4.5 10.2 1.5 13.1-13.8 3.8-17.4-6.9-2.8-15.8-3.3-24.3-1.6-11.4 2.3-33.7 11.8-33.8 42.7-.1 24.6 18 32.6 34.3 30.8" fill="#ED1D21"/><path d="M137.4 202s9.5-3.3 10.3-3.5c7.6-2.6 10.4-7.2 10.4-15-.1-8.5-.1-25.1-.1-25.1l22.1 25.4c3.6 3.7 8.1 4 12.2 2.8 4.2-1.2 7.8-5.1 7.9-10.6v-63.1s-5.7 1.2-10.4 2.5c-5.4 1.5-9.6 5-9.6 14.2v21.9s-12.6-15.7-20.7-23.8c-4.3-4.3-11.5-1.7-11.5-1.7l-10.6 3.2V202" fill="#EE1C23"/><path d="M130.7 130.8s-6.6 1.9-12 3.9c-7 2.5-11.1 6.6-11.1 17.2v60.5s6.1-2.1 11.9-4.3c8.1-3.1 11.2-7.3 11.2-15.8v-61.5" fill="#ED1C23"/><path d="M97.8 145.2c-6.1-2.8-11.3.3-13.5 3.7l-18.7 31.9v-25.7l-22.2 9.1-.1 72.6 15.6-6.5s3.1-.9 4.9-3.8c1.7-2.7 1.6-7.1 1.6-7.1v-23l17.4 18.5c3.8 4 10.8 6 17 1 5.6-4.5 4.7-12.2 1.6-15.7l-15.8-15.9s13.9-22 16.2-25.6c3-5 1.5-11-4-13.5" fill="#EE1D23"/><path d="M89.1 230.6c-.8 1.9 1.1 3.8 1.1 3.8 8 10.1 43.7 22.9 82.5 13.5 59.2-14.3 71.7-56.2 73.1-62.1.3-1.2.5-3.1-.6-4.3-.9-1-2.3-1-4.1-.6-41.2 9.7-109.5 30.6-149 47.5-1.7.7-2.4 1-3 2.2" fill="#FAAF18"/><path d="M54 135.4c-.1-4-3.2-6.2-8.5-3.5v12.9s1.7-.8 3-1.4c3.2-1.5 5.6-4.1 5.5-8m-8.6-11.7c1-.4 1.7-.7 2.5-1.1 2.9-1.4 5-4.1 5-7.5 0-3.9-3.2-4.9-7.5-2.7v11.3zm22.8 9.8c.2 10.2-7.1 15.6-16.7 19.5L32 161.3v-52.9s12.3-5 16.3-6.5c11.4-4.2 18.1.9 18.1 8.5 0 5.1-2.2 9.4-6.9 13.2 4.6.8 8.6 4.6 8.7 9.9z" fill="#EE1C23"/><path d="M105.2 88.9c0-4.5-3.1-5.6-6.8-4.6-3 .9-6.5 2.2-6.5 2.2v32.9c0 3.3-.5 7.4-4.6 8.4-3.1.8-4.6-1.3-4.6-4.6V96.3c0-4.5-3.1-5.8-6.8-4.6-4.2 1.4-6.6 2.4-6.6 2.4v32.6c-.1 10.9 7.5 16.4 18.9 13 10.1-3 16.9-8.7 17-23.2V88.9" fill="#ED1D1F"/><path d="M213.8 102.5c2.9-.6 4.7-2.7 4.7-6.3v-5.7L202.7 94v-9.3s7.8-1.6 9.9-2.1c2.7-.6 4.1-2.1 4.1-5.2V72l-14 3v-7.4l11.2-2.3c3.1-.6 4.1-2.7 4.1-5.6v-5.6c-7 1.2-20.3 3.9-28.6 5.8l-.1 48.2s15.8-3.7 24.5-5.6" fill="#EE1C23"/><path d="M122.2 100.5S130 96.4 130 90c-.1-5.5-5.1-4.3-7.7-3.3l-.1 13.8m.1 7.5v13c0 3.5-2.4 6-5.4 7.2 0 .1 0-.1 0 0-2.5.9-7.9 2.7-7.9 2.7V81.2s11.1-3.9 17.6-5.4c10-2.4 17.2 2.2 17.1 10.4-.1 7.8-4.4 12.5-8.3 15.8l8.6 8.2c2.6 2.6 2.8 7.2-.1 10-1.8 1.7-6.5 3.4-10.1-.4-.1 0-11.5-11.8-11.5-11.8zm112.1-34.2s7.7-2.9 7.6-9.1c-.1-5.2-5.2-4.3-7.7-3.7l.1 12.8m-13 27.2V53.4s13.9-2.5 17.5-2.9c10-1.3 16.7 4.3 16.5 12.1-.1 6.9-4.4 11.1-8.1 13.6 0 0 6.8 7.6 8.6 9.7 2.4 2.7 2.3 7.4-1.3 9.7-3.5 2.2-7.1 1.1-9.1-1.2l-11.1-13.2v11.6c0 3.5-2.1 6.1-5.7 6.8z" fill="#EE1D23"/><path d="M186.2 81l-19.7 4.5V91c0 2.6 1.8 4.2 4.4 3.7 1.6-.3 2.9-.6 2.9-.6v5.5c0 2.2-3.2 3.6-6.6 3.5-4.8-.2-7.4-3.9-7.5-10.9.1-9.2 4.5-14.6 10.4-16.1 2.9-.8 5.6-.4 7.7-.1 5.1.8 8-1.6 8.1-5.8.1-4.5-3.9-7.3-12.4-7-18.6.6-28.1 14-28.1 29.9 0 16.3 10.7 23.5 23.7 21.2 7.3-1.5 11-3.9 13.5-6.1 2.5-2.2 3.6-5.5 3.6-8.4V81" fill="#EE1D23"/><path d="M108.5 27.7C86.7 37.3 72 60.2 71.2 69.8c-.3 3.8 4.8 4.4 5.3.3 4.6-17.6 18.6-34.2 32-42.4m72.1 16.4c11.7-2.9 18.2-3.3 18.3-8.6.2-8.8-24.8-19-47.8-17.1 23.4 1.6 37.4 10.6 37.4 16.8.1 4-3.4 7.5-7.9 8.9m7.2 194c17.6-6.9 34.5-20.2 43.9-40 2.7-5.7-5.1-8.7-7.3-1.9-5.5 14.1-16.7 30.6-36.6 41.9" fill="#FFF"/><path d="M276.5 178.6h2.4c1.3 0 3 .2 3 1.8 0 1.8-1.2 2-2.8 2h-2.5l-.1-3.8m-2.9 12.1h2.8v-6.1h1.8l3.5 6.1h3l-3.8-6.3c2.1-.2 3.8-1.2 3.8-3.8 0-3.1-2-4.3-5.6-4.3h-5.5zm-8-7.2c0 7.8 6.2 12.9 13.2 12.9 7 0 13.2-5 13.2-12.9 0-7.8-6.2-12.8-13.2-12.8-7 0-13.2 5-13.2 12.8zm3.5 0c0-5.8 4.3-10.1 9.7-10.1 5.3 0 9.7 4.2 9.7 10.1 0 5.9-4.4 10.1-9.7 10.1-5.4.1-9.7-4.2-9.7-10.1z" fill="#EE1D23"/></svg>