<svg xmlns="http://www.w3.org/2000/svg" height="800" width="1200" viewBox="-106.2993 -116.8735 921.2606 701.241"><g fill="#CC071E"><path d="M498.021 14.18c25.74-12.642 38.496-10.983 38.783 1.831.344 16.646-2.117 38.782-3.89 54.8C523.36 157.864 507.4 229 506.2 318.383c42.043-108.843 77.28-184.492 122.697-277.662 14.416-29.688 23.625-24.139 35.465-29.402 46.105-20.535 47.822-7.95 41.814 17.161-22.365 93.01-79.625 385.858-88.375 430.951-2.518 13.047-16.703 7.516-20.365 2.414-16.416-22.709-34.949-23.064-32.89-38.165 10.296-75.18 47.362-263.808 57.03-308.254-49.252 100.972-100.332 227.2-126.588 298.77-5.549 15.198-15.674 14.083-21.965 2.963-8.867-15.62-26.084-23.596-28.945-42.055-8.98-58.688 10.297-170.552 12.984-241.322-26.826 77.308-71.844 227.4-91.579 295.211-8.122 28.058-35.236 23.481-28.029-3.866C367.427 311.325 432.01 110.05 459.924 37.69c6.58-17.047 23.796-16.475 38.097-23.51M334.54.222c-8.695-2.116-33.92 11.498-49.423 14.186-4.919.858-9.61 6.063-11.269 9.782-24.826 57.03-47.077 111.394-66.354 160.92-24.654 4.21-53.483 9.752-85.745 17 23.11-59.279 46.448-117.745 69.214-173.974C202.174.45 172.66-2.18 161.218 25.848c-14.873 36.438-42.73 104.708-73.562 184.281a1823.82 1823.82 0 00-71.788 19.157c-18.248 5.268-18.99 10.13-11.097 21.073 4.347 6.093 13.328 5.48 17.446 9.821 10.64 11.252 17.104 24.711 36.151 26.748C41.38 332.374 24.39 379.24 9.003 424.366c-9.667 28.326 17.847 34.12 28.43 4.146 17.046-48.318 35.007-97.22 53.483-145.978 15.387-3.576 52.625-11.596 87.003-19.055-27.285 74.785-45.247 131.581-52.053 159.227-1.258 5.32.858 8.271 2.002 10.44 9.21 13.401 17.961 13.95 29.802 30.521 3.204 4.52 13.958 6.956 17.618-4.17 25.283-76.37 51.31-148.026 75.563-212.264 10.067-2.202 28.2-6.578 39.297-23.138 19.734-29.39 25.397-23.43 30.146-32.365 5.95-11.217 2.001-21.748-19.048-19.146 0 0-7.95.566-22.652 2.242 23.338-60.09 43.76-111.057 58.46-149.896C342.09 11.777 342.72 2.167 334.54.222"/><path d="M300.104 389.96c5.434 13.733 22.423 9.574 15.96-7.002-6.58-16.887-22.939-67.722-27.23-84.099-5.834-22.068 19.45-16.033 6.636-1.606-10.982 12.406-18.305 17.377-38.61 40.967-19.62 22.772-14.3 52.323 6.692 58.85 23.681 7.367 44.56-18.728 57.487-37.873 12.527-18.539.4-29.413-12.24-18.453-8.124 7.047-17.505 17.87-27 23.704-7.723 4.696-13.787-.349-3.49-14.523 11.955-16.41 25.34-30.162 35.293-45.67 20.307-31.604-19.849-49.822-37.124-29.293-9.267 10.943-6.92 21.686-4.404 30.906 4.062 14.77 19.163 61.915 28.03 84.091"/></g></svg>