<svg xmlns="http://www.w3.org/2000/svg" height="800" width="1200" viewBox="-46.5 -77.57475 403 465.4485"><g fill-rule="evenodd"><path fill="#e4042c" d="M15.56 12.26a5.152 5.152 0 00-3.466 4.843c-.005 1.042 15.708 199.908 15.851 200.612l.093.454h51.415V11.875l-31.408.006c-29.98.006-31.458.023-32.484.379m215.134 102.762V218.17h51.367l.11-.857c.646-5.083 15.901-200.826 15.705-201.525-.501-1.788-2.097-3.313-3.863-3.692-.718-.154-10.42-.22-32.173-.22h-31.146z"/><path fill="#050505" d="M12.344.208C5.434 1.201 0 7.448 0 14.394c0 2.849 22.37 283.618 22.7 284.923 1.451 5.721 6.604 10.127 12.65 10.816 1.28.146 38.871.193 121.035.152l119.179-.06 1.506-.467c5.157-1.598 9.036-5.51 10.275-10.365.666-2.611 22.95-284.645 22.652-286.695-.87-5.966-4.901-10.528-10.84-12.266C297.796.034 15.093-.188 12.344.208M298.45 4.281c4.38 1.47 7.368 5.065 7.782 9.363.162 1.692-22.188 283.106-22.61 284.683-.985 3.67-3.821 6.521-7.656 7.696-1.62.497-239.488.59-241.484.096-3.671-.911-6.803-3.8-7.872-7.26-.388-1.256-22.778-280.832-22.78-284.435 0-4.825 3.706-9.23 8.672-10.301 2.329-.503 284.443-.347 285.948.158M149.528 14.427c-6.499.687-15.361 3.116-22.271 6.104-3.879 1.677-4.65 2.272-4.65 3.584-.001 1.7-3.19 5.455-5.647 6.65-2.429 1.18-3.747 1.502-8.229 2.012-.478.054-.917.224-.976.378-.35.914 3.303 5.21 5.122 6.025 1.717.767.6 1.147-3.882 1.32-4.515.172-5.827.799-6.984 3.337-.555 1.218-.478 1.549.83 3.54 2.973 4.527 2.896 7.127-.287 9.66-4 3.182-4.035 3.726-1.033 15.945 1.157 4.71 2.238 8.94 2.402 9.399.312.869.171 1.283-.436 1.283-.59 0-1.82.882-2.213 1.587-1.668 2.992-1.186 7.6 1.848 17.672 2.147 7.128 2.406 8.084 3.06 11.292 1.636 8.04 3.6 10.88 7.483 10.823 1.556-.024 1.61.046 1.776 2.285.3 4.046 1.298 7.977 2.92 11.495.525 1.136.818 2.148.995 3.427.785 5.695 4.313 12.042 9.637 17.34 2.262 2.252 4.058 3.71 9.797 7.958 2.302 1.702 4.184 3.16 4.184 3.238 0 .079-2.064.194-4.587.257-4.47.112-6.402.366-6.952.916-.616.616-.832 10.62-.254 11.739.682 1.319 2.84 1.433 16.482.875 3.508-.143 3.317-.42 1.972 2.839a642.827 642.827 0 00-3.1 7.774c-2.618 6.67-5.087 12.27-7.636 17.315-2.485 4.914-2.557 4.382.692 5.056.635.132 2.07.688 3.19 1.236 2.896 1.416 2.797 1.446 4.109-1.274 2.324-4.82 6.506-15.391 7.538-19.057.288-1.025.598-1.865.686-1.865.21 0 .186 18.575-.03 22.485-.23 4.156-.123 4.28 3.055 3.524a18.746 18.746 0 013.788-.473c2.274-.032 2.272-.03 2.612-2.745.928-7.398-.74-24.932-3.12-32.802-.652-2.155-.646-2.213.26-2.363 1.466-.241 7.657-.133 11.452.201 4.245.375 4.795.324 5.202-.484.475-.94.62-10.665.174-11.56-.675-1.352-3.678-1.964-8.46-1.726-2.884.143-2.913.111-1-1.066 6.313-3.887 15.913-12.45 18.564-16.56 4.066-6.302 7.587-17.805 7.591-24.799.002-3.037.068-3.136 2.162-3.262 4.036-.24 5.28-2.312 8.622-14.345 3.505-12.625 4.402-16.777 4.425-20.5.023-3.7-.335-4.394-3.161-6.124-.672-.411-.733-.07.992-5.53 1.82-5.77 2.282-7.57 2.423-9.459l.124-1.654-1.002-.967c-1.776-1.715-2.02-2.25-2.381-5.203-2.985-24.474-19.702-42.37-43.257-46.313-2.442-.408-12.152-.7-14.62-.44m9.002 4.716c9.57.963 18.638 4.65 27.377 11.133 8.653 6.419 13.383 14.976 15.184 27.475.736 5.101.246 16.658-.754 17.809-.704.81-.915.446-2.085-3.602-2.222-7.688-3.989-12.147-6.401-16.152-1.497-2.487-1.727-1.99-1.759 3.813l-.026 4.83.602.837c2.585 3.596 3.22 4.95 4.264 9.09.867 3.436 1.109 6.187.565 6.396-.204.077-1.647-.056-3.207-.298-3.428-.531-8.058-.643-17.354-.418-8.679.21-10.256.616-14.419 3.71-2.309 1.716-2.537 1.808-3.818 1.533a9.998 9.998 0 00-4.466.084c-1.474.382-1.91.226-3.916-1.398-4.424-3.583-5.74-3.84-19.737-3.845l-11.47-.005.102-1.613c.177-2.814 1.05-4.12 3.516-5.258 1.809-.835 1.664-.523 2.766-5.991 2.174-10.796 5.418-16.69 11.347-20.627 4.382-2.909 12.565-2.653 18.972.594 1.46.74 1.557.713 3.53-.993 2.357-2.035 2.357-2.031-.304-4.632-9.262-9.052-19.863-11.031-32.548-6.077-1.536.599-2.82 1.017-2.855.927-.58-1.507 7.483-7.106 12.92-8.973 3.65-1.253 3.344-2.5-.613-2.507-1.528-.003-1.794-.334-.966-1.198 2.696-2.814 17.323-5.473 25.553-4.644m-23.656 21.282c.93.388.773.598-1.04 1.386-5.591 2.431-8.864 5.55-12.081 11.514-.865 1.602-1.325 2.2-2.469 3.198-2.87 2.507-3.208 3.008-4.304 6.37-1.513 4.643-2.29 8.947-2.636 14.598-.198 3.248-.376 3.676-1.826 4.41-1.393.705-1.235.955-2.516-3.994-3.582-13.848-3.583-13.833 1.484-21.134 1.25-1.801 1.032-4.197-.728-7.956-1.05-2.243-1.172-2.133 2.958-2.658 3.842-.488 8.758-1.968 12.437-3.745 4.325-2.088 8.59-2.88 10.721-1.99m-16.267 42.364c1.107 1.002-.12 2.323-1.654 1.78-.468-.163-1.109-.298-1.423-.298-.82 0-1.152-.671-.543-1.098.247-.172.724-.316 1.06-.317.336-.002.747-.091.912-.199.465-.3 1.24-.238 1.648.132m75.123.053c1.455.26 1.933 1.429.583 1.429-.26 0-.857.135-1.329.302-1.117.394-1.332.382-1.815-.1-.884-.885-.217-2.155 1.006-1.918.39.076 1.09.205 1.555.287m-66.12 2.587c.051.354-.137.575-.862 1.008-.51.305-1.934 1.213-3.164 2.017-2.374 1.554-2.942 1.716-3.62 1.039-.723-.724.031-2.604 1.474-3.674 1.287-.954 6.05-1.255 6.173-.39m57.601-.333c2.417.608 2.894 4.418.554 4.418-1.473 0-6.156-3.452-5.831-4.298.157-.411 3.794-.493 5.277-.12m-46.802.775c1.031.5 2.075 1.796 1.871 2.325-.098.257-.45.287-2.191.19-2.495-.14-4.04.205-7.12 1.587-2.416 1.083-3.71 1.4-4.369 1.071-1.078-.537-.623-1.102 2.156-2.682a577.93 577.93 0 002.498-1.428c2.746-1.586 5.293-1.965 7.155-1.063m38.601.596c.46.234 1.542 1.066 2.405 1.848.863.781 2.18 1.83 2.926 2.33 1.578 1.058 1.664 1.16 1.265 1.49-.729.605-3.005-.247-5.222-1.953-2.09-1.61-3.523-1.912-6.57-1.386-2.983.514-3.248-.452-.51-1.856 2.251-1.154 4.075-1.305 5.706-.473m19.833.476c.475.883.543 2.115.35 6.386-.248 5.533.018 5.88 2.56 3.339 1.073-1.072 1.217-1.585.955-3.413-.423-2.953.927-5.456 2.69-4.989 2.909.768 2.933 3.117.134 13.145a243.295 243.295 0 00-1.782 6.779c-2.168 9.01-3.676 11.406-6.452 10.246-1.218-.509-1.542-.297-2.872 1.88-1.504 2.46-1.599 2.786-1.74 6-.678 15.548-8.297 28.426-19.383 32.76-2.878 1.126-3.63 1.112-4.918-.092-.88-.823-1.595-1.15-1.658-.756-.014.083-.04 1.154-.06 2.38-.042 2.638-.223 3.084-2.332 5.736-1.947 2.449-2.45 3.57-2.924 6.502-.586 3.634-9.21-4.935-11.617-11.543-.693-1.903-.649-4.662.115-7.159 1.424-4.655 1.71-6.904 1.26-9.913-.126-.84-.092-1.103.174-1.37.566-.566 1.047-.11 2.564 2.432.978 1.638 1.595.12 1.253-3.082-.18-1.671-.9-2.496-2.613-2.995-3.569-1.037-1.091-3.098 3.517-2.924 7.69.289 9.354.14 13.671-1.226 3.069-.971 3.32-.972 4.814-.006 1.515.98 1.623 1.267 1.752 4.666.22 5.84 2.322 5.525 3.561-.534.603-2.95.965-3.877 1.915-4.9 2.364-2.554 3.39-6.27 3.036-10.996-.216-2.88-.701-3.643-3.012-4.74-1.461-.694-3.297-2.533-5.078-5.09-2.812-4.035-4.114-5.264-6.71-6.332-2.382-.98-3.093-.537-2.545 1.58.761 2.936.426 3.592-2.595 5.065-4.56 2.224-8.384 2.082-12.036-.444-3.61-2.497-4.081-5.631-1.625-10.815 1.108-2.339 1.284-2.977 1.725-6.251.798-5.925 1.388-7.16 3.425-7.16 1.732 0 2.492.709 3.03 2.825 1.042 4.094 2.713 5.733 4.513 4.43 1.243-.901 1.358-1.297.757-2.596-.82-1.768-.385-2.045 1.607-1.025 2.608 1.336 7.26 1.872 10.544 1.213 3.575-.715 5.04-.423 5.852 1.17.544 1.066.75 1.192 2.344 1.442 2.523.395 2.742.621 2.196 2.264-.67 2.018-2.757 3.464-6.026 4.18-2.095.457-2.126.478-2.126 1.391 0 1.73 1.536 2.114 4.954 1.24 4.688-1.2 6.697-4.209 8.344-12.5 1.045-5.262 1.089-5.34 3.44-6.125 1.959-.654 2.73-.673 3.052-.075m-87.206 1.957c1.29.786 1.798 2.5 1.214 4.092-.678 1.846-.636 2.36.86 10.536 1.21 6.606.924 8.308-1.095 6.536-.89-.78-1.23-1.407-1.605-2.946-.157-.643-.979-3.665-1.828-6.715-1.734-6.235-1.978-7.878-1.442-9.722.583-2.002 2.27-2.774 3.896-1.781m26.706 4.645c2.67.467 3.673.494 5.963.163 2.178-.315 2.447-.115 1.403 1.04-.879.973-.877.957-.21 2.232 1.52 2.91-1.93 5.647-7.76 6.155-1.81.158-2.043.328-2.043 1.489 0 1.179.55 1.45 2.885 1.424 2.65-.03 2.56-.038 2.56.235 0 .13-.268.652-.595 1.162-.327.51-.736 1.468-.908 2.128-.398 1.53-.494 1.616-2.802 2.524-1.057.416-2.495 1.164-3.195 1.662-5.883 4.187-8.72 2.93-11.355-5.032-1.834-5.536-1.424-6.407 2.198-4.67 2.427 1.165 3.392 1.252 3.94.353.856-1.404.636-1.89-1.264-2.793-3.332-1.582-5.527-5.085-3.87-6.171.55-.359.963-.226 1.992.644 1.905 1.612 2.675 1.641 4.034.155 2.64-2.886 4.606-3.474 9.027-2.7m8.062 12.884c.416.337.441.44.225.915-.437.96-.513 2.561-.168 3.545.84 2.387-.257 3.412-1.97 1.842-2.624-2.408-.782-8.484 1.913-6.302m22.974 10.157c.37.25 1.41 1.361 2.312 2.47 1.714 2.107 3.91 3.968 5.143 4.358 5.664 1.795-4.584 4.39-12.225 3.096-1.096-.186-3.126-.699-4.513-1.141-2.94-.938-3.95-.949-6.155-.067-4.96 1.984-13.713 2.195-17.222.416-2.128-1.08-2.083-1.662.199-2.624.825-.348 2.704-1.427 4.174-2.398 4.452-2.939 6.493-3.423 8.518-2.02 4.584 3.175 9.891 3.468 12.599.696.679-.694 1.363-1.16 2.117-1.441a14.927 14.927 0 002.022-.955c1.605-.958 2.098-1.02 3.031-.39m-39.948 6.69c.399.424.484.81.637 2.874.633 8.523 3.446 17.71 5.421 17.71.405 0 .592-.257 1.228-1.69 1.431-3.226 2.047-3.462 2.686-1.032.7 2.664 2.168 7.44 2.75 8.952.916 2.377.574 2.949-1.76 2.94-8.404-.03-20.513-19.396-16.82-26.9 1.352-2.745 4.513-4.285 5.858-2.854m35.079 6.561c2.97.287 2.842.813-.389 1.594-3.089.747-10.273 1.271-11.791.86-1.581-.427-3.367-1.945-2.67-2.268 1.07-.496 10.433-.613 14.85-.186m63.141 103.677c-22.503 1.57-36.193 14.04-36.176 32.953.016 18.944 19.131 28.646 45.886 23.287 5.58-1.117 5.232-.783 6.212-5.959 1.022-5.388.973-5.449-3.455-4.33-19.736 4.99-32.526-4.611-28.307-21.246 2.225-8.768 8.3-14.595 16.325-15.658 6.412-.85 10.641 1.854 10.963 7.01.14 2.26.166 2.275 3.59 2.275 3.43 0 3.006.661 4.828-7.525 2.038-9.154 2.14-8.605-1.778-9.501-5.92-1.355-11.558-1.762-18.088-1.306m-150.51 1.242c-.325.517-1.135 3.927-1.135 4.78 0 .655.27.917 1.681 1.621 1.463.731 2.21 1.856 2.312 3.485.076 1.217-5.654 28.43-6.833 32.446-1.06 3.614-2.82 5.915-5 6.535-2.084.594-2.092.602-2.598 2.611-1.147 4.56-2.626 4.129 14.161 4.129 16.189 0 14.482.297 15.149-2.634.76-3.346.671-3.804-.864-4.411-.896-.354-1.996-1.473-2.273-2.313-.201-.61 2.065-12.24 2.945-15.113.16-.523.156-.529 2.906 4.407 7.822 14.036 11.526 17.987 18.353 19.574 2.06.478 17.61.683 18.208.24.372-.277 1.324-3.703 1.336-4.81.009-.835-.646-1.252-2.237-1.422-3.286-.35-3.738-.82-13.451-13.969-7.423-10.045-7.715-10.475-7.361-10.81 2.085-1.972 19.903-16.464 20.798-16.915 1.444-.728 3.442-1.349 4.943-1.536 1.634-.205 1.885-.483 2.352-2.618.902-4.116 2.194-3.73-12.5-3.73-13.31 0-12.744-.047-13.01 1.072-1 4.206-.965 4.678.404 5.444 2.129 1.193 2.136 1.184-7.808 9.453-11.095 9.227-11.444 9.512-11.522 9.419-.128-.151 3.296-15.404 3.623-16.143.46-1.037 1.605-2.083 2.912-2.66 1.446-.638 1.479-.688 1.984-3.011.863-3.973 2.395-3.574-13.75-3.574h-13.44zm68.16 0c-.326.517-1.135 3.927-1.135 4.78 0 .659.15.804 1.619 1.572.681.356 1.322.893 1.692 1.42 1.148 1.634 1.269.888-3.997 24.749-5.215 23.64-4.923 22.116-4.356 22.683.59.589 22.47.637 23.155.05.475-.407 1.562-5.017 1.345-5.702-.071-.223-.473-.58-.894-.795-3.384-1.727-3.435-2.738-.716-14.274l.107-.453h9.335c7.152 0 9.413-.06 9.674-.252.332-.247 2.157-7.764 2.157-8.885 0-1.158.084-1.148-9.746-1.148-8.446 0-9.008-.021-9.004-.352.002-.194.712-3.575 1.577-7.512l1.573-7.16 6.439-.053c9.701-.081 10.77.428 10.773 5.13.001 2.174.27 2.334 3.771 2.249 2.17-.053 2.733-.129 3.007-.403.321-.321 3.508-13.948 3.508-14.998 0-1.167 1.53-1.1-25.168-1.1h-24.43zm150.712 55.405c0 .6.011.606 1.109.606h1.11v7.46h1.411v-7.46h1.11c1.097 0 1.108-.006 1.108-.606v-.605h-5.848zm7.865 3.731v4.335h1.209l.007-3.075.007-3.075.83 1.765c1.054 2.24 1.242 2.25 2.326.1l.84-1.663.011 2.974.013 2.974h1.209v-8.671h-.618c-.587 0-.667.106-1.585 2.068l-.968 2.067-1.037-2.067c-.969-1.93-1.078-2.068-1.641-2.068h-.603z"/><path fill="#fbfbfb" d="M12.906 4.15c-5.195.872-8.852 5.192-8.868 10.475-.005 1.91 22.042 280.59 22.366 282.694.656 4.273 4.268 7.962 8.57 8.754 2.072.38 238.574.298 240.388-.084 3.79-.8 6.87-3.554 7.974-7.134.392-1.268 22.778-280.844 22.778-284.468 0-4.295-2.838-8.162-7.219-9.837l-1.15-.439-142.167-.024c-78.192-.012-142.394.015-142.672.062m66.547 110.873V218.17H53.64c-14.197 0-25.811-.068-25.81-.151.002-.083-3.59-45.41-7.98-100.728-7.68-96.784-7.97-100.615-7.672-101.64.398-1.371 1.532-2.691 2.833-3.297l1.02-.474 31.71-.002 31.71-.002zm216.09-102.436c1.171.721 2.19 2.14 2.466 3.431.155.729-1.46 21.786-7.742 100.88-4.367 54.98-7.941 100.256-7.944 100.617l-.004.655h-51.826v-206.3l32.029.053 32.029.054zm-131.698 2.096c5.347.867 11.137 2.683 15.285 4.792 16.009 8.141 26.139 23.076 28.463 41.965.341 2.767.752 3.632 2.316 4.87 1.534 1.216 1.297 3.208-1.39 11.667-1.862 5.862-1.819 5.6-.978 6.05 4.482 2.402 4.227 6.504-1.723 27.668-3.083 10.971-4.473 13.156-8.553 13.457-1.902.14-1.853.068-1.857 2.72-.01 7.521-4.114 20.43-8.298 26.111-2.761 3.748-10.733 10.895-16.206 14.53-1.442.957-2.696 1.802-2.785 1.875-.09.074 1.317.134 3.126.133 7.733-.005 7.845.114 7.644 8.124-.17 6.79.12 6.463-5.303 5.978-5.471-.488-7.814-.586-10.302-.43l-2.31.144.164.633c2.826 10.944 4.195 22.694 3.72 31.929-.263 5.119-.398 5.35-3.17 5.401-1.374.025-2.67.189-3.831.485-1.655.422-1.79.429-2.393.117l-.64-.33.123-3.865c.264-8.25.373-17.527.231-19.61l-.148-2.182-.671 2.208c-1.55 5.105-7.104 18.647-8.287 20.207-.659.868-.868.842-3.536-.455-1.356-.66-2.776-1.194-3.494-1.317-1.906-.323-2.066-.374-2.189-.695-.065-.17 1.073-2.729 2.578-5.8 2.991-6.1 4.957-10.631 7.943-18.301 1.1-2.829 2.24-5.707 2.532-6.397.672-1.591.685-1.954.062-1.798-.257.065-4.203.215-8.767.336-11.335.299-10.62.787-10.497-7.164.105-6.838-.23-6.523 7.188-6.76 2.584-.083 4.74-.192 4.791-.243.052-.051-1.79-1.487-4.093-3.19-12.807-9.473-18.13-16.433-19.402-25.374-.157-1.101-.507-2.294-1.008-3.433-1.614-3.668-2.466-6.922-2.823-10.788-.27-2.917-.164-2.745-1.7-2.745-3.988 0-5.923-2.784-7.602-10.936-.696-3.382-1.256-5.457-3.019-11.193-2.803-9.126-3.46-13.918-2.325-16.989.52-1.407 1.88-2.625 2.93-2.625.513 0 .525.16-.167-2.174-.32-1.077-1.009-3.774-1.532-5.993a355.379 355.379 0 00-1.743-7.058c-1.77-6.745-1.434-8.207 2.68-11.643.758-.633 1.327-1.332 1.688-2.068l.544-1.112-.338-1.36c-.44-1.773-1.106-3.217-2.368-5.142-1.202-1.835-1.17-2.474.211-4.301 1.353-1.79 2.5-2.198 6.264-2.224 2.21-.016 3.373-.109 3.927-.316l.787-.294-.989-.578c-1.385-.81-3.901-3.42-4.619-4.789-.795-1.519-.655-1.641 2.223-1.94 6.429-.667 10.998-3.755 12.222-8.26.49-1.805.953-2.165 5.016-3.903 12.48-5.336 25.646-7.371 36.398-5.625m-12.3 4.577c-10.14 1.043-16.41 2.599-18.528 4.6-.796.751-.5.962 1.438 1.024 3.67.116 3.75 1.522.153 2.72-4.314 1.437-10.668 5.461-12.353 7.823-.869 1.217-.962 1.223 2.588-.146 11.747-4.53 21.992-2.933 30.735 4.79 4.248 3.753 4.355 4.111 1.867 6.24-2.094 1.793-2.185 1.806-4.558.68-4.992-2.374-12.474-2.943-16.142-1.228-6.814 3.183-10.79 9.755-13.157 21.75-1.044 5.286-.89 4.953-2.65 5.765-2.66 1.23-3.727 3.027-3.772 6.354-.003.266 1.355.303 11.037.303 14.391 0 15.513.228 20.462 4.171 1.72 1.372 2.292 1.527 3.893 1.062 1.166-.34 1.948-.334 4.734.03.883.116.964.078 3.025-1.44 4.9-3.61 6.52-3.92 20.595-3.923 7.683-.001 8.84.042 10.89.4 1.26.22 2.633.402 3.048.404l.757.001v-1.2c0-3.875-2.081-10.176-4.333-13.117-1.422-1.858-1.375-1.617-1.332-6.83.041-5.042.044-5.068.617-5.068 1.542 0 4.935 7.562 7.772 17.318 1.717 5.904 2.435 5.417 2.945-1.992.784-11.37-1.7-22.68-6.621-30.148-8.22-12.472-28.155-21.88-43.11-20.343m-20.77 21.144c-2.376.377-3.74.823-6.608 2.156-4.578 2.127-11.392 4-14.555 4-1.551 0-1.634.253-.726 2.219 2.162 4.682 2.132 6.18-.182 9.374-3.363 4.645-3.69 6.235-2.447 11.9 1.11 5.06 2.943 12.2 3.133 12.2 1.735 0 2.573-1.364 2.77-4.508.348-5.566 1.35-10.951 2.866-15.416.925-2.724 1.178-3.1 3.608-5.35 1.832-1.698 2.18-2.136 3.166-3.99 2.868-5.384 6.75-9.093 11.685-11.163 1.957-.82 2.11-1.039 1.007-1.437-.867-.314-1.672-.31-3.718.015m-13.786 42.362c-.373.162-.918.296-1.21.297-1.228.007-1.38.869-.192 1.095.368.07 1.044.224 1.502.341 1.093.28 1.688-.011 1.688-.826 0-1.09-.63-1.41-1.788-.907m74.223.133c-.698.697-.049 1.905.915 1.706.307-.063.968-.193 1.471-.287 1.492-.28 1.974-.938.85-1.156-.305-.06-.941-.197-1.414-.306-1.127-.26-1.529-.25-1.822.043m-66.588 2.2c-2.747.311-4.44 1.437-4.764 3.17-.365 1.947.88 1.915 3.938-.104 1.313-.867 2.673-1.73 3.02-1.92.982-.534.753-1.429-.344-1.343-.186.014-1.018.103-1.85.197m55.547.032c-.314.818 3.36 3.826 5.207 4.26 2.022.477 2.419-3.06.442-3.935-1.249-.552-5.469-.795-5.649-.325m-46.068.737c-2.133.704-7.27 3.554-7.735 4.29-.784 1.243 1.22 1.172 4.15-.147 3.603-1.62 6.195-2.16 8.324-1.736 1.308.262 1.534.05 1.005-.937-.867-1.62-3.358-2.258-5.744-1.47m38.516.628c-2.907 1.039-4.05 2.708-1.538 2.245 3.355-.618 5.355-.246 7.41 1.377 2.015 1.593 4.264 2.446 4.96 1.88.239-.193.281-.325.126-.39-.626-.265-2.177-1.437-4.001-3.024-2.974-2.586-4.381-3.008-6.957-2.088m22.004.427c-2.947.77-3.086.972-4.062 5.918-1.947 9.858-5.044 13.41-11.692 13.41-2.91 0-2.826-2.746.102-3.332 3.037-.607 5.05-1.847 5.875-3.617.881-1.893.674-2.213-1.656-2.552-1.812-.263-1.978-.357-2.528-1.434-.783-1.536-2.646-1.964-5.522-1.27-2.947.712-8.304.11-10.948-1.23-1.894-.96-2.188-.78-1.388.852.745 1.518-.105 2.954-2.035 3.439-1.058.265-2.626-2.025-3.474-5.073-.616-2.213-1.193-2.756-2.93-2.756-2.037 0-2.265.543-3.515 8.403-.366 2.298-.552 2.906-1.511 4.94-2.161 4.583-2.061 7.152.375 9.588 3.148 3.148 7.953 3.842 12.396 1.79 3.583-1.657 3.934-2.136 3.365-4.592-.66-2.842-.28-3.33 2-2.582 2.633.865 4.542 2.536 7.102 6.216 2.055 2.955 3.689 4.572 5.675 5.613 2.355 1.232 2.535 1.622 2.616 5.63.1 4.988-.591 7.43-2.778 9.802-1.086 1.179-1.577 2.352-2.022 4.833-.566 3.15-1.595 5.042-2.743 5.042-.813 0-1.282-2.16-1.291-5.955-.008-3.136-2.168-4.1-6.289-2.805-4.506 1.416-7.022 1.699-11.365 1.279-3.814-.368-4.282-.337-5.83.387-1.836.86-1.953 1.795-.268 2.132 2.045.409 2.883 1.515 3.096 4.083.27 3.255-.685 3.957-2.039 1.498-1.5-2.725-2.294-2.492-1.905.558.313 2.456.133 3.814-1.046 7.85-1.383 4.736-1.304 6.59.431 10.23 1.953 4.1 5.932 8.579 9.132 10.279.97.516 1.12.353 1.49-1.606.402-2.125.988-3.34 2.57-5.324 2.277-2.858 2.395-3.132 2.527-5.927.147-3.09.35-3.31 1.775-1.92 1.28 1.252 1.922 1.36 3.888.658 11.274-4.03 18.771-15.504 20.168-30.866.59-6.485.408-5.684 1.815-8.02 1.548-2.572 1.827-2.761 3.195-2.173 2.63 1.132 4.08-1.203 6.18-9.95a197.23 197.23 0 011.698-6.425c2.99-10.543 2.886-13.64-.46-13.64-1.296 0-2.289 2.562-1.929 4.981l.248 1.664-.586.944c-.613.986-2.277 2.292-2.92 2.292-.686 0-.746-.578-.543-5.143.287-6.419.137-6.793-2.444-6.119m-87.996 2.293c-1.21 1.21-1.269 3.86-.175 7.96 3.19 11.958 3.275 12.199 4.616 13.118 1.56 1.068 1.619-.984.237-8.278-.995-5.257-1.19-7.627-.72-8.746 1.261-3.007-1.835-6.178-3.958-4.054m24.71 4.421c-1.379.431-2.568 1.235-3.737 2.528-1.564 1.728-2.142 1.71-4.591-.148-1.017-.771-1.473-.82-1.902-.207-.973 1.388 1.079 4.232 4.056 5.621 2.061.962 2.394 1.84 1.248 3.298-.634.806-1.605.629-4.568-.834-2.592-1.28-2.98-.567-1.86 3.416 2.52 8.982 5.439 10.579 11.617 6.36.898-.613 2.396-1.408 3.328-1.767 2.144-.824 2.118-.8 2.6-2.418.223-.746.67-1.754.996-2.237.777-1.159.758-1.171-1.647-1.066-2.795.123-3.077-.028-3.077-1.647 0-1.412-.087-1.362 2.961-1.696 4.998-.548 8.122-3.26 6.643-5.767-.588-.996-.538-1.572.206-2.421.878-1 .61-1.106-1.894-.748-2.074.295-2.282.29-4.84-.129-3.006-.492-4.302-.524-5.54-.138m10.84 13.18c-1.54 1.54-1.116 4.817.794 6.145 1.273.885 2.044.217 1.551-1.345-.393-1.247-.435-3.072-.098-4.2.39-1.3-1.138-1.709-2.247-.6m23.385 9.665c-.167.064-.62.316-1.009.56-.388.244-1.292.657-2.01.918-1.003.366-1.568.745-2.457 1.648-2.597 2.637-7.524 2.44-12.012-.481-2.708-1.762-4.136-1.488-8.976 1.72-1.272.844-3.097 1.897-4.056 2.34-1.947.9-2.078 1.14-1.052 1.923 2.898 2.21 12.272 2.244 17.905.064 2.268-.877 3.407-.86 6.342.097 6.22 2.028 15.183 1.902 17.84-.249.508-.412.128-1.227-.573-1.227-1.105 0-3.916-2.19-5.727-4.461-2.216-2.779-3.01-3.317-4.215-2.852m-40.7 6.689c-3.376 1.166-4.634 4.907-3.267 9.71 3.185 11.18 10.641 20.028 16.834 19.974 2.484-.022 2.516-.155 1.043-4.38-.39-1.122-1.133-3.526-1.65-5.344-.517-1.817-1.014-3.384-1.105-3.481-.294-.316-1.14.851-1.828 2.517-.99 2.399-1.617 2.512-2.884.52-1.9-2.99-4.153-12.473-4.153-17.482 0-2.143-.9-2.756-2.99-2.034m25.01 6.71c-2.482.251-2.686.608-.958 1.67l.996.613 3.743-.032c5.455-.048 11.575-1.075 10.831-1.82-.451-.45-11.252-.77-14.612-.43m86.875 103.638c4.722.458 9.348 1.52 10.032 2.303.621.711.642.548-1.077 8.36-1.876 8.52-1.451 7.866-5.113 7.866-3.406 0-3.48-.053-3.66-2.594-.34-4.812-3.784-7.196-9.853-6.822-9.085.562-16.142 7.866-17.668 18.288-2.2 15.033 10.378 23.122 28.65 18.424 4.597-1.183 4.7-1.053 3.63 4.616-.894 4.735-.766 4.557-3.933 5.383-9.402 2.449-22.27 2.483-30.249.08-15.127-4.557-21.695-17.61-16.635-33.058 5.374-16.404 22.804-25.084 45.876-22.846m-133.839 1.228l.408.546-.475 2.26c-.535 2.553-.801 2.964-2.251 3.49-1.036.374-2.398 1.602-2.768 2.495-.241.582-3.64 15.825-3.552 15.925.07.078 19.515-16.092 19.813-16.475.624-.806.227-1.641-1.1-2.313-.401-.204-.706-.543-.792-.882-.216-.849.642-4.656 1.176-5.226l.44-.467h24.461l.467.497c.522.555.51.973-.11 3.694-.462 2.033-.645 2.202-2.78 2.57-1.956.336-4.213 1.14-5.473 1.949-.673.433-18.982 15.563-19.838 16.394-.236.23.907 1.877 7.356 10.61 9.885 13.388 10.004 13.513 13.287 13.88 2.482.279 2.72.674 2.11 3.506-.803 3.72.047 3.436-9.91 3.31-15.117-.193-17.788-2.097-27.65-19.708a789.65 789.65 0 00-2.708-4.816c-.243-.403-3.361 13.936-3.203 14.728.188.941.803 1.65 1.975 2.277 2.02 1.079 2.038 1.135 1.362 4.18-.549 2.474-.724 2.893-1.32 3.165-.355.162-4.44.227-14.176.227-16.663 0-15.338.369-14.325-3.974.538-2.306.739-2.59 2.027-2.867 2.775-.595 4.555-2.68 5.695-6.67.294-1.031 6.58-29.66 6.869-31.286.332-1.87-.67-3.74-2.437-4.55-1.776-.813-1.847-1.048-1.21-3.958.775-3.549-1.026-3.17 14.81-3.109l13.415.052zm89.987-.152c.635.635.733-.086-1.115 8.254-1.942 8.77-1.427 7.988-5.262 7.988-3.712 0-3.815-.072-3.815-2.685 0-2.125-.465-3.146-1.784-3.922l-.938-.552-7.093-.06-7.092-.059-.243 1.168c-.133.644-.85 3.938-1.595 7.32l-1.352 6.151 9.069.1 9.069.102.415.556.415.556-.944 4.267c-.72 3.251-1.05 4.379-1.388 4.738l-.44.47h-18.59l-1.08 4.945c-1.49 6.81-1.39 7.508 1.33 9.324.62.414 1.192.935 1.27 1.157.248.707-.885 5.36-1.41 5.784-.549.445-21.905.578-22.86.143-1.143-.521-1.298.405 3.782-22.625 5.553-25.176 5.047-22.65 4.754-23.752-.342-1.286-1.068-2.124-2.438-2.815-1.687-.852-1.756-1.084-1.168-3.864.344-1.624.61-2.407.927-2.73l.445-.454h48.636z"/><path fill="#7c7c7c" d="M306.172 14.597c.002.555.04.758.087.45a3.64 3.64 0 00-.002-1.007c-.048-.248-.086.002-.085.557m-152.257 4.475c.193.05.51.05.705 0 .194-.051.035-.092-.353-.092s-.547.04-.352.092m1.814 0c.195.05.512.05.706 0 .194-.051.035-.092-.353-.092s-.547.04-.353.092m-48.6 21.375c.195.05.512.05.707 0 .194-.05.035-.092-.353-.092s-.547.041-.353.092m3.223 13.977c0 .389.042.548.092.353a1.68 1.68 0 000-.706c-.05-.194-.092-.035-.092.353m79.654 3.226c0 .389.041.548.092.353.05-.194.05-.51 0-.705-.05-.194-.092-.035-.092.352m-90.732 5.042c0 .61.038.86.085.554a4.496 4.496 0 000-1.109c-.047-.304-.085-.055-.085.555m12.893 15.729c0 .388.041.547.092.353a1.68 1.68 0 000-.706c-.051-.194-.092-.035-.092.353m8.17 1.554c.25.048.658.048.908 0s.045-.087-.454-.087-.703.039-.453.087m16.134 0c.25.049.614.047.807-.003.193-.051-.013-.09-.456-.089-.444.003-.602.045-.35.093m37.004.002c.306.046.76.045 1.008-.003s-.002-.086-.558-.085c-.554.002-.757.041-.45.088m-19.463 5.038c.25.048.658.048.908 0s.044-.087-.454-.087c-.5 0-.703.04-.454.087m56.561 4.698c0 .388.041.547.092.353a1.68 1.68 0 000-.706c-.05-.194-.092-.035-.092.353m-105.052 2.924c.001.555.04.758.087.45a3.6 3.6 0 00-.003-1.007c-.048-.248-.086.003-.084.557m27.522.647c.25.048.613.046.806-.004.192-.05-.013-.09-.456-.088-.444.003-.602.044-.35.092m2.722 12.908c.306.046.76.045 1.008-.003s-.003-.086-.557-.084c-.555.001-.757.04-.451.087m42.851-.002c.252.048.614.046.807-.004.193-.05-.013-.09-.456-.088-.444.003-.601.044-.35.092m17.743 18.955c.25.048.657.048.907 0s.046-.087-.454-.087c-.499 0-.703.04-.453.087m-55.758 1.812c.194.05.511.05.706 0 .194-.05.035-.093-.353-.093s-.547.042-.353.093m14.018 2.629c.363.044.907.043 1.21-.003.304-.045.007-.083-.658-.081-.666 0-.914.039-.552.084m-5.149 17.398c0 .388.042.546.092.352a1.64 1.64 0 000-.705c-.05-.195-.092-.036-.092.353m-18.721 30.55c0 1.553.032 2.162.07 1.353.038-.809.038-2.08 0-2.823-.04-.745-.07-.082-.07 1.47m10.558 7.305c.36.045.95.045 1.31 0 .36-.045.066-.081-.655-.081-.721 0-1.016.036-.655.081m13.827 29.094c0 .722.037 1.016.081.656a6.38 6.38 0 000-1.31c-.044-.361-.08-.067-.08.654m13.811 29.593c1.81.034 4.713.034 6.453 0 1.74-.034.26-.061-3.289-.061-3.55 0-4.973.028-3.164.061m68.054 6.403c.001.555.04.758.087.45a3.6 3.6 0 00-.003-1.007c-.048-.248-.086.002-.084.557m2.413 2.065c.637.04 1.68.04 2.319 0 .637-.04.115-.073-1.16-.073-1.276 0-1.797.033-1.16.073m-74.612 16.941c2.523.032 6.652.032 9.175 0 2.524-.032.459-.058-4.587-.058-5.047 0-7.111.026-4.588.058m-93.77 21.577c3.743.031 9.868.031 13.611 0 3.743-.03.681-.056-6.806-.056-7.486 0-10.549.026-6.806.056m51.234 0c1.753.033 4.566.033 6.251 0 1.684-.034.25-.061-3.189-.061-3.438 0-4.816.028-3.062.061m20.945 0c2.959.032 7.86.032 10.89 0 3.03-.031.609-.057-5.38-.057-5.99 0-8.469.026-5.51.057"/><path fill="#6c6c6c" d="M84.225 3.96c38.838.028 102.45.028 141.362 0 38.91-.029 7.134-.051-70.614-.051-77.749 0-109.585.022-70.748.051m70.496 10.282c.637.04 1.68.04 2.32 0 .636-.04.115-.073-1.16-.073-1.276 0-1.798.033-1.16.073m-12.906 30.446c.305.046.804.046 1.109 0 .305-.047.056-.085-.555-.085-.61 0-.859.038-.554.085m48.192 11.753c0 .388.041.546.092.353a1.68 1.68 0 000-.706c-.05-.195-.092-.036-.092.353m-84.692 8.57c.003.443.044.602.092.35.049-.25.047-.613-.004-.806-.05-.193-.09.012-.088.456m19.863 14.973c2.024.033 5.337.033 7.36 0 2.025-.033.369-.06-3.68-.06-4.048 0-5.704.027-3.68.06m50.927-.001a29.25 29.25 0 002.621-.001c.689-.039.072-.072-1.369-.07-1.442 0-2.006.032-1.252.07m8.158 0c.804.039 2.12.039 2.924 0 .804-.037.147-.07-1.461-.07-1.609 0-2.267.033-1.463.07m13.012 9.53c0 .5.04.704.087.454a2.88 2.88 0 000-.908c-.048-.249-.087-.045-.087.455m-97.005 1.21c0 .388.042.547.092.352a1.68 1.68 0 000-.706c-.05-.193-.092-.035-.092.353m12.107 18.15c0 .499.04.703.088.453.048-.25.048-.658 0-.907-.048-.25-.088-.046-.088.453m36.647 2.887c0 .034.295.33.655.655l.656.593-.593-.656c-.552-.61-.718-.748-.718-.592m6.205 9.56a5.43 5.43 0 001.21-.001c.303-.047.006-.083-.66-.082-.665.001-.913.038-.55.083m-27.332 3.686c0 .388.041.547.092.353a1.68 1.68 0 000-.706c-.05-.194-.092-.035-.092.353m67.376 2.42c0 .942.035 1.328.078.857.043-.471.043-1.243 0-1.714-.043-.472-.078-.086-.078.857m-53.355-.463c.25.048.614.047.806-.003.193-.05-.012-.09-.455-.088-.444.002-.602.043-.351.091m11.09 2.622c.252.048.615.046.808-.004.192-.05-.012-.09-.457-.088-.443.003-.6.044-.35.092m3.628 0c.249.048.657.048.907 0s.045-.088-.454-.088-.703.04-.453.088m23.442 23.552c-.49.5-.845.908-.79.908.056 0 .502-.409.992-.908.49-.499.845-.907.79-.907-.056 0-.502.408-.992.907m3.422 4.688l-1.305 1.362 1.362-1.305c.749-.718 1.361-1.33 1.361-1.362 0-.148-.205.04-1.418 1.305m-18.889 2.874c0 .61.038.86.084.554a4.422 4.422 0 000-1.108c-.046-.305-.084-.056-.084.554m14.138 18.552c0 1.83.03 2.579.068 1.664.037-.915.037-2.412 0-3.327-.038-.915-.068-.167-.068 1.663m-48.017 2.017c0 .61.038.86.085.554a4.496 4.496 0 000-1.109c-.047-.304-.085-.055-.085.555m17.131 3.366c.195.05.512.05.706 0 .195-.051.036-.093-.353-.093-.388 0-.546.042-.353.093m-8.67.207c.304.046.803.046 1.108 0 .306-.047.056-.085-.554-.085-.61 0-.86.038-.555.085m-5.542.203a5.34 5.34 0 001.21-.002c.304-.046.007-.083-.659-.082-.665.002-.913.039-.55.084m30.946 24.657c0 .389.042.548.093.353.05-.194.05-.512 0-.705-.05-.194-.093-.036-.093.352m-9.467 6.353c.002.554.041.758.088.45.045-.306.045-.76-.003-1.007-.048-.249-.086.002-.085.557m-72.805 18.2c3.633.03 9.576.03 13.209 0 3.632-.032.66-.057-6.605-.057-7.264 0-10.236.025-6.604.056m37.71 0c3.3.031 8.7.031 11.998 0 3.3-.031.6-.056-5.999-.056-6.599 0-9.299.025-6 .056m36.012 0c6.691.03 17.58.03 24.2 0 6.618-.029 1.143-.054-12.166-.054-13.31 0-18.725.025-12.034.054m71.366 8.262a7.47 7.47 0 001.412.002c.418-.044.126-.08-.651-.081-.776 0-1.119.035-.76.079M166.92 258.45c2.468.032 6.506.032 8.974 0 2.468-.033.449-.058-4.487-.058s-6.955.025-4.487.058m42.057 5.797c.002.666.039.914.084.552a5.388 5.388 0 00-.002-1.21c-.046-.303-.083-.007-.082.658m-19.764 2.32c0 .61.038.86.084.554a4.422 4.422 0 000-1.109c-.046-.305-.084-.056-.084.555m37.8 14.262c.361.044.95.044 1.311 0 .36-.045.066-.082-.655-.082-.721 0-1.016.037-.655.082m-8.974 10.277c.194.05.511.05.706 0 .194-.051.035-.092-.354-.092-.387 0-.546.041-.352.092m5.848 0c.194.05.512.05.706 0 .194-.051.035-.092-.353-.092s-.547.041-.353.092M95.736 306.444c32.636.028 86.04.028 118.675 0 32.635-.028 5.934-.05-59.337-.05-65.272 0-91.973.022-59.338.05"/><path fill="#9c9c9c" d="M192.38 29.116c.377.389.73.706.785.706.055 0-.207-.317-.583-.706-.377-.388-.73-.706-.785-.706-.055 0 .207.318.583.706m3.227 253.482c.376.388.729.706.785.706.055 0-.207-.318-.584-.706-.376-.388-.73-.706-.785-.706-.055 0 .207.318.584.706"/><path fill="#bcbcbc" d="M3.892 14.698c0 .61.038.86.084.554a4.502 4.502 0 000-1.11c-.046-.304-.084-.054-.084.556m130.161 10.226c.25.048.615.045.807-.005.193-.05-.013-.09-.456-.088-.444.003-.602.044-.35.093m1.815 7.864c.25.048.613.046.806-.004.193-.05-.012-.09-.456-.088-.443.002-.602.043-.35.092m54.156 26.678c0 .72.036 1.015.081.655.045-.36.045-.95 0-1.31-.045-.361-.081-.067-.081.655m20.757 8.973c.002.444.043.602.091.351.049-.251.047-.614-.004-.807-.05-.192-.09.012-.087.456m-9.482.505c0 .387.042.546.092.352a1.64 1.64 0 000-.705c-.05-.195-.092-.036-.092.353m-29.44 11.028c.195.05.512.05.707 0 .193-.05.034-.093-.353-.093-.389 0-.548.042-.354.093m25.204 12.767c0 .388.041.547.093.353a1.68 1.68 0 000-.706c-.052-.194-.093-.036-.093.353m-76.218 36.701c0 .5.04.704.087.454.048-.25.048-.658 0-.907-.048-.25-.087-.046-.087.453m30.446 2.962c.194.051.511.051.706 0 .193-.05.035-.091-.353-.091-.389 0-.548.04-.353.091m6.654 4.235c.194.051.512.051.706 0 .194-.05.035-.092-.353-.092s-.547.042-.353.092m2.219 0c.193.051.511.051.705 0 .195-.05.036-.092-.353-.092-.388 0-.546.042-.352.092m13.928 2.281c0 .721.037 1.016.08.656a6.38 6.38 0 000-1.31c-.043-.361-.08-.067-.08.654m-3.036 31.604c.306.045.76.045 1.008-.004.248-.048-.002-.086-.558-.084-.554.002-.757.041-.45.088m-29.543.4c.25.049.613.047.806-.003.193-.05-.012-.09-.456-.088-.443.002-.601.043-.35.091m37.401 3.084c0 .389.041.548.092.353a1.64 1.64 0 000-.706c-.05-.194-.092-.035-.092.353m-10.684 10.223c.194.05.511.05.705 0 .195-.052.036-.093-.352-.093-.388 0-.547.041-.353.093m-24.296.611a5.34 5.34 0 001.21-.002c.303-.046.006-.082-.66-.081-.664.001-.913.038-.55.083m11.195 13.063c.002.554.041.758.088.45.045-.306.045-.76-.003-1.008s-.086.003-.085.558m.018 12.704c0 1.22.034 1.693.074 1.051.04-.641.04-1.64-.001-2.218-.04-.578-.073-.053-.073 1.167m9.683 3.831c0 1.443.032 2.006.071 1.253a29.25 29.25 0 000-2.622c-.04-.688-.072-.073-.071 1.37M118.02 290.5c.193.05.511.05.705 0 .194-.05.035-.092-.353-.092s-.547.041-.352.092"/><path fill="#f4839a" d="M13.398 13.538l-.593.656.655-.592c.36-.327.656-.621.656-.656 0-.156-.166-.019-.718.592m-1.453 3.58c0 .388.04.547.092.353.05-.195.05-.512 0-.707-.051-.193-.092-.034-.092.354"/><path fill="#ccc" d="M230.593 115.022c0 56.786.023 79.987.051 51.557.029-28.43.029-74.891 0-103.248-.028-28.356-.05-5.095-.05 51.691M156.99 41.518c.546.554 1.038 1.008 1.094 1.008.055 0-.347-.454-.893-1.008s-1.039-1.008-1.094-1.008c-.056 0 .346.454.893 1.008m-30.662 5.092l-.797.857.857-.797c.797-.742.95-.917.797-.917-.033 0-.418.386-.857.857m59.89 56.867l-.593.655.655-.592c.36-.326.655-.62.655-.655 0-.156-.166-.019-.718.592m-15.616 16.952c0 .035.295.33.655.655l.656.592-.592-.655c-.552-.61-.719-.748-.719-.592m27.617 123.703l-.696.757.757-.696c.703-.646.849-.817.695-.817-.034 0-.374.34-.756.756m14.73 30.967c0 .035.296.33.657.656l.655.592-.592-.655c-.553-.611-.72-.748-.72-.593"/></g></svg>